<svg xmlns="http://www.w3.org/2000/svg" viewBox="0 0 750 500"><g id="freepik--background-simple--inject-2"><path d="M279.42,117.39c96.86-47.7,196.49-110.06,309-84.54,34.89,7.91,66.64,27.7,88.1,56.46,57.39,76.9,52.73,194.69,21.55,281.25a157.18,157.18,0,0,1-15.69,32.35c-31.65,48.84-85,51.14-136.42,37-43.53-11.95-82.09-24.24-127.06-12.09-24.91,6.73-49,16-73.86,23-33.78,9.58-68.61,16.1-103.79,16.76-93.08,1.74-199.41-45.74-207.66-149.69a163.07,163.07,0,0,1-.32-20.26c1.86-41.49,15.57-83.05,53.58-104.6,38.22-21.66,83.57-30.22,124.45-45.58C234.56,138.75,257.12,128.37,279.42,117.39Z" style="fill:#92E3A9"></path><path d="M279.42,117.39c96.86-47.7,196.49-110.06,309-84.54,34.89,7.91,66.64,27.7,88.1,56.46,57.39,76.9,52.73,194.69,21.55,281.25a157.18,157.18,0,0,1-15.69,32.35c-31.65,48.84-85,51.14-136.42,37-43.53-11.95-82.09-24.24-127.06-12.09-24.91,6.73-49,16-73.86,23-33.78,9.58-68.61,16.1-103.79,16.76-93.08,1.74-199.41-45.74-207.66-149.69a163.07,163.07,0,0,1-.32-20.26c1.86-41.49,15.57-83.05,53.58-104.6,38.22-21.66,83.57-30.22,124.45-45.58C234.56,138.75,257.12,128.37,279.42,117.39Z" style="fill:#fff;opacity:0.7000000000000001"></path></g><g id="freepik--Floor--inject-2"><path d="M735,391H29.46a.51.51,0,0,1-.5-.5.5.5,0,0,1,.5-.5H735a.5.5,0,0,1,.5.5A.5.5,0,0,1,735,391Z" style="fill:#263238"></path></g><g id="freepik--Poster--inject-2"><path d="M135.82,251.86H53a.51.51,0,0,1-.5-.5V132.19a.5.5,0,0,1,.5-.5h82.87a.5.5,0,0,1,.5.5V251.36A.5.5,0,0,1,135.82,251.86Zm-82.37-1h81.87V132.69H53.45Z" style="fill:#263238"></path><path d="M126.92,190.9H63.23a.5.5,0,0,1-.5-.5v-8.9a.5.5,0,0,1,.5-.5h63.69a.5.5,0,0,1,.5.5v8.9A.5.5,0,0,1,126.92,190.9Zm-63.19-1h62.69V182H63.73Z" style="fill:#263238"></path><path d="M126.92,240.9H63.23a.5.5,0,0,1-.5-.5v-8.9a.5.5,0,0,1,.5-.5h63.69a.5.5,0,0,1,.5.5v8.9A.5.5,0,0,1,126.92,240.9Zm-63.19-1h62.69V232H63.73Z" style="fill:#263238"></path><path d="M126.78,225.36h0L63.1,223.55a.49.49,0,0,1-.49-.51l.25-8.9a.51.51,0,0,1,.52-.49l63.67,1.81a.5.5,0,0,1,.48.52l-.25,8.9a.48.48,0,0,1-.16.35A.47.47,0,0,1,126.78,225.36Zm-63.15-2.79,62.66,1.78.23-7.9-62.67-1.78Z" style="fill:#263238"></path><path d="M63.72,209.7a.51.51,0,0,1-.5-.46l-.76-8.87a.48.48,0,0,1,.12-.36.5.5,0,0,1,.34-.18l63.46-5.44a.48.48,0,0,1,.36.12.46.46,0,0,1,.18.34l.76,8.87a.5.5,0,0,1-.45.54L63.76,209.7Zm-.22-8.91.68,7.87,62.46-5.35-.67-7.88Z" style="fill:#263238"></path><path d="M65.6,167.14v-3.5a9.46,9.46,0,0,0,1.29-.08,2,2,0,0,0,.84-.32,1.39,1.39,0,0,0,.44-.7,4,4,0,0,0,.14-1.19V143.9h5v17.67a9.15,9.15,0,0,1-.46,3.09,3.39,3.39,0,0,1-1.61,1.86,6.92,6.92,0,0,1-3.22.62Z" style="fill:#263238"></path><path d="M83.16,166.88a7.74,7.74,0,0,1-4-.89A5,5,0,0,1,77,163.42a11.15,11.15,0,0,1-.64-4V151a11,11,0,0,1,.64-4,5,5,0,0,1,2.12-2.53,8,8,0,0,1,4-.88,8.09,8.09,0,0,1,4.07.88A4.93,4.93,0,0,1,89.37,147a11,11,0,0,1,.64,4v8.42a11.15,11.15,0,0,1-.64,4A5,5,0,0,1,87.23,166,7.88,7.88,0,0,1,83.16,166.88Zm0-3.55a1.52,1.52,0,0,0,1.15-.39,1.91,1.91,0,0,0,.47-1,6.56,6.56,0,0,0,.11-1.26V149.77a6.46,6.46,0,0,0-.11-1.27,1.91,1.91,0,0,0-.47-1,1.52,1.52,0,0,0-1.15-.39,1.42,1.42,0,0,0-1.09.39,2,2,0,0,0-.48,1,7.32,7.32,0,0,0-.11,1.27v10.91a8.68,8.68,0,0,0,.1,1.26,1.89,1.89,0,0,0,.45,1A1.45,1.45,0,0,0,83.16,163.33Z" style="fill:#263238"></path><path d="M93.06,166.55V143.9H99a17.12,17.12,0,0,1,2.75.22A6.33,6.33,0,0,1,104,145a4.25,4.25,0,0,1,1.58,1.79,7,7,0,0,1,.57,3.06,5.78,5.78,0,0,1-.4,2.3,3.64,3.64,0,0,1-1.15,1.5,4.24,4.24,0,0,1-1.77.76,4.41,4.41,0,0,1,2.2.85,4.28,4.28,0,0,1,1.36,1.83,7.37,7.37,0,0,1,.46,2.77,8.86,8.86,0,0,1-.46,3,5.22,5.22,0,0,1-1.33,2.08,5.3,5.3,0,0,1-2.14,1.21,10,10,0,0,1-2.92.39Zm5-13.59h1a3.51,3.51,0,0,0,1.74-.35,1.73,1.73,0,0,0,.79-1,5.49,5.49,0,0,0,.21-1.62,3.2,3.2,0,0,0-.32-1.5,2.09,2.09,0,0,0-.95-.91,3.68,3.68,0,0,0-1.58-.3h-.87Zm0,10.09h1.07a2.65,2.65,0,0,0,2.27-.84,4,4,0,0,0,.63-2.46,6,6,0,0,0-.28-2,2,2,0,0,0-.92-1.1,3.69,3.69,0,0,0-1.73-.35h-1Z" style="fill:#263238"></path><path d="M115.51,166.88a7.55,7.55,0,0,1-3.55-.75,4.78,4.78,0,0,1-2.15-2.34,10.47,10.47,0,0,1-.81-4.09l4.27-.64a10.1,10.1,0,0,0,.27,2.34,2.6,2.6,0,0,0,.67,1.29,1.52,1.52,0,0,0,1.05.39,1,1,0,0,0,1-.53,2.68,2.68,0,0,0,.24-1.12,4.08,4.08,0,0,0-.67-2.36,10.76,10.76,0,0,0-1.82-1.94l-2-1.71A11,11,0,0,1,109.9,153a6.36,6.36,0,0,1-.88-3.43,5.57,5.57,0,0,1,1.71-4.4,6.69,6.69,0,0,1,4.64-1.53,6,6,0,0,1,2.92.62,4.21,4.21,0,0,1,1.68,1.61,6.7,6.7,0,0,1,.78,2.09A13.51,13.51,0,0,1,121,150l-4.3.53c0-.67-.07-1.25-.13-1.74a2.39,2.39,0,0,0-.41-1.15,1.11,1.11,0,0,0-1-.4,1.09,1.09,0,0,0-1,.58,2.49,2.49,0,0,0-.32,1.18,3.3,3.3,0,0,0,.6,2,11.94,11.94,0,0,0,1.58,1.67l1.88,1.65a12.77,12.77,0,0,1,2.5,2.85,7.15,7.15,0,0,1,1,3.94,5.75,5.75,0,0,1-.73,2.89,5.27,5.27,0,0,1-2,2.06A6.33,6.33,0,0,1,115.51,166.88Z" style="fill:#263238"></path></g><g id="freepik--Blackboard--inject-2"><path d="M494,283.1H146.67a.5.5,0,0,1-.5-.5v-170a.5.5,0,0,1,.5-.5H494a.51.51,0,0,1,.5.5v170A.5.5,0,0,1,494,283.1Zm-346.8-1h346.3v-169H147.17Z" style="fill:#263238"></path><rect x="159.41" y="123.07" width="321.82" height="149.06" style="fill:#636363"></rect><path d="M481.23,272.63H159.41a.5.5,0,0,1-.5-.5V123.07a.5.5,0,0,1,.5-.5H481.23a.5.5,0,0,1,.5.5V272.13A.5.5,0,0,1,481.23,272.63Zm-321.32-1H480.73V123.57H159.91Z" style="fill:#263238"></path><rect x="239.23" y="147.17" width="148.38" height="105.54" style="fill:#fff"></rect><path d="M387.61,253.21H239.23a.5.5,0,0,1-.5-.5V147.17a.5.5,0,0,1,.5-.5H387.61a.5.5,0,0,1,.5.5V252.71A.5.5,0,0,1,387.61,253.21Zm-147.88-1H387.11V147.67H239.73Z" style="fill:#263238"></path><path d="M268.06,188.85H256.14a.5.5,0,0,1-.5-.5V176.43a.5.5,0,0,1,.5-.5h11.92a.5.5,0,0,1,.5.5v11.92A.51.51,0,0,1,268.06,188.85Zm-11.42-1h10.92V176.93H256.64Z" style="fill:#263238"></path><path d="M284.52,188.85H272.6a.5.5,0,0,1-.5-.5V176.43a.5.5,0,0,1,.5-.5h11.92a.5.5,0,0,1,.5.5v11.92A.5.5,0,0,1,284.52,188.85Zm-11.42-1H284V176.93H273.1Z" style="fill:#263238"></path><path d="M301,188.85H289.06a.51.51,0,0,1-.5-.5V176.43a.5.5,0,0,1,.5-.5H301a.5.5,0,0,1,.5.5v11.92A.5.5,0,0,1,301,188.85Zm-11.42-1h10.92V176.93H289.56Z" style="fill:#263238"></path><path d="M317.45,188.85H305.52a.51.51,0,0,1-.5-.5V176.43a.5.5,0,0,1,.5-.5h11.93a.5.5,0,0,1,.5.5v11.92A.51.51,0,0,1,317.45,188.85Zm-11.43-1H317V176.93H306Z" style="fill:#263238"></path><path d="M333.91,188.85H322a.5.5,0,0,1-.5-.5V176.43a.5.5,0,0,1,.5-.5h11.92a.5.5,0,0,1,.5.5v11.92A.5.5,0,0,1,333.91,188.85Zm-11.42-1h10.92V176.93H322.49Z" style="fill:#263238"></path><path d="M350.37,188.85H338.45a.5.5,0,0,1-.5-.5V176.43a.5.5,0,0,1,.5-.5h11.92a.5.5,0,0,1,.5.5v11.92A.5.5,0,0,1,350.37,188.85Zm-11.42-1h10.92V176.93H339Z" style="fill:#263238"></path><path d="M366.83,188.85H354.91a.51.51,0,0,1-.5-.5V176.43a.5.5,0,0,1,.5-.5h11.92a.5.5,0,0,1,.5.5v11.92A.5.5,0,0,1,366.83,188.85Zm-11.42-1h10.92V176.93H355.41Z" style="fill:#263238"></path><path d="M268.06,207H256.14a.5.5,0,0,1-.5-.5V194.62a.5.5,0,0,1,.5-.5h11.92a.51.51,0,0,1,.5.5v11.92A.5.5,0,0,1,268.06,207Zm-11.42-1h10.92V195.12H256.64Z" style="fill:#263238"></path><path d="M284.52,207H272.6a.5.5,0,0,1-.5-.5V194.62a.5.5,0,0,1,.5-.5h11.92a.5.5,0,0,1,.5.5v11.92A.5.5,0,0,1,284.52,207Zm-11.42-1H284V195.12H273.1Z" style="fill:#263238"></path><path d="M301,207H289.06a.5.5,0,0,1-.5-.5V194.62a.51.51,0,0,1,.5-.5H301a.5.5,0,0,1,.5.5v11.92A.5.5,0,0,1,301,207Zm-11.42-1h10.92V195.12H289.56Z" style="fill:#263238"></path><path d="M317.45,207H305.52a.5.5,0,0,1-.5-.5V194.62a.51.51,0,0,1,.5-.5h11.93a.51.51,0,0,1,.5.5v11.92A.5.5,0,0,1,317.45,207ZM306,206H317V195.12H306Z" style="fill:#263238"></path><path d="M333.91,207H322a.5.5,0,0,1-.5-.5V194.62a.5.5,0,0,1,.5-.5h11.92a.5.5,0,0,1,.5.5v11.92A.5.5,0,0,1,333.91,207Zm-11.42-1h10.92V195.12H322.49Z" style="fill:#263238"></path><path d="M350.37,207H338.45a.5.5,0,0,1-.5-.5V194.62a.5.5,0,0,1,.5-.5h11.92a.5.5,0,0,1,.5.5v11.92A.5.5,0,0,1,350.37,207ZM339,206h10.92V195.12H339Z" style="fill:#263238"></path><path d="M366.83,207H354.91a.5.5,0,0,1-.5-.5V194.62a.51.51,0,0,1,.5-.5h11.92a.5.5,0,0,1,.5.5v11.92A.5.5,0,0,1,366.83,207Zm-11.42-1h10.92V195.12H355.41Z" style="fill:#263238"></path><path d="M268.06,225.24H256.14a.5.5,0,0,1-.5-.5V212.82a.5.5,0,0,1,.5-.5h11.92a.5.5,0,0,1,.5.5v11.92A.5.5,0,0,1,268.06,225.24Zm-11.42-1h10.92V213.32H256.64Z" style="fill:#263238"></path><path d="M284.52,225.24H272.6a.5.5,0,0,1-.5-.5V212.82a.5.5,0,0,1,.5-.5h11.92a.5.5,0,0,1,.5.5v11.92A.5.5,0,0,1,284.52,225.24Zm-11.42-1H284V213.32H273.1Z" style="fill:#263238"></path><path d="M301,225.24H289.06a.5.5,0,0,1-.5-.5V212.82a.5.5,0,0,1,.5-.5H301a.5.5,0,0,1,.5.5v11.92A.5.5,0,0,1,301,225.24Zm-11.42-1h10.92V213.32H289.56Z" style="fill:#263238"></path><path d="M317.45,225.24H305.52a.5.5,0,0,1-.5-.5V212.82a.5.5,0,0,1,.5-.5h11.93a.5.5,0,0,1,.5.5v11.92A.5.5,0,0,1,317.45,225.24Zm-11.43-1H317V213.32H306Z" style="fill:#263238"></path><path d="M333.91,225.24H322a.5.5,0,0,1-.5-.5V212.82a.5.5,0,0,1,.5-.5h11.92a.5.5,0,0,1,.5.5v11.92A.5.5,0,0,1,333.91,225.24Zm-11.42-1h10.92V213.32H322.49Z" style="fill:#263238"></path><path d="M350.37,225.24H338.45a.5.5,0,0,1-.5-.5V212.82a.5.5,0,0,1,.5-.5h11.92a.5.5,0,0,1,.5.5v11.92A.5.5,0,0,1,350.37,225.24Zm-11.42-1h10.92V213.32H339Z" style="fill:#263238"></path><path d="M366.83,225.24H354.91a.5.5,0,0,1-.5-.5V212.82a.5.5,0,0,1,.5-.5h11.92a.5.5,0,0,1,.5.5v11.92A.5.5,0,0,1,366.83,225.24Zm-11.42-1h10.92V213.32H355.41Z" style="fill:#263238"></path><path d="M268.06,243.44H256.14a.5.5,0,0,1-.5-.5V231a.5.5,0,0,1,.5-.5h11.92a.51.51,0,0,1,.5.5v11.93A.51.51,0,0,1,268.06,243.44Zm-11.42-1h10.92V231.51H256.64Z" style="fill:#263238"></path><path d="M284.52,243.44H272.6a.5.5,0,0,1-.5-.5V231a.5.5,0,0,1,.5-.5h11.92a.5.5,0,0,1,.5.5v11.93A.5.5,0,0,1,284.52,243.44Zm-11.42-1H284V231.51H273.1Z" style="fill:#263238"></path><path d="M301,243.44H289.06a.51.51,0,0,1-.5-.5V231a.51.51,0,0,1,.5-.5H301a.5.5,0,0,1,.5.5v11.93A.5.5,0,0,1,301,243.44Zm-11.42-1h10.92V231.51H289.56Z" style="fill:#263238"></path><path d="M317.45,243.44H305.52a.51.51,0,0,1-.5-.5V231a.51.51,0,0,1,.5-.5h11.93a.51.51,0,0,1,.5.5v11.93A.51.51,0,0,1,317.45,243.44Zm-11.43-1H317V231.51H306Z" style="fill:#263238"></path><path d="M333.91,243.44H322a.5.5,0,0,1-.5-.5V231a.5.5,0,0,1,.5-.5h11.92a.5.5,0,0,1,.5.5v11.93A.5.5,0,0,1,333.91,243.44Zm-11.42-1h10.92V231.51H322.49Z" style="fill:#263238"></path><path d="M350.37,243.44H338.45a.5.5,0,0,1-.5-.5V231a.5.5,0,0,1,.5-.5h11.92a.5.5,0,0,1,.5.5v11.93A.5.5,0,0,1,350.37,243.44Zm-11.42-1h10.92V231.51H339Z" style="fill:#263238"></path><path d="M366.83,243.44H354.91a.51.51,0,0,1-.5-.5V231a.51.51,0,0,1,.5-.5h11.92a.5.5,0,0,1,.5.5v11.93A.5.5,0,0,1,366.83,243.44Zm-11.42-1h10.92V231.51H355.41Z" style="fill:#263238"></path><rect x="377.31" y="155.85" width="74.39" height="27.09" transform="translate(10.8 -24.33) rotate(3.41)" style="fill:#fff"></rect><path d="M450.83,185.63h0l-74.26-4.42a.5.5,0,0,1-.47-.52l1.61-27.05a.51.51,0,0,1,.17-.34.55.55,0,0,1,.36-.13l74.26,4.42a.52.52,0,0,1,.47.53l-1.61,27a.51.51,0,0,1-.5.47Zm-73.73-5.39,73.26,4.36,1.55-26-73.26-4.36Z" style="fill:#263238"></path><rect x="377.31" y="197.17" width="74.39" height="27.09" transform="matrix(1, -0.08, 0.08, 1, -16.14, 35.32)" style="fill:#fff"></rect><path d="M378.57,227.82a.47.47,0,0,1-.32-.12.48.48,0,0,1-.18-.34l-2.26-27a.5.5,0,0,1,.46-.54l74.13-6.21a.43.43,0,0,1,.36.12.48.48,0,0,1,.18.34l2.26,27a.5.5,0,0,1-.46.54l-74.13,6.21Zm-1.72-27,2.18,26,73.13-6.12-2.18-26Z" style="fill:#263238"></path><path d="M299,168.51v-1.78l2.92-4.5c.23-.33.43-.65.63-1a5.06,5.06,0,0,0,.48-1,2.63,2.63,0,0,0,.19-1,1.21,1.21,0,0,0-.21-.78.7.7,0,0,0-.57-.26.88.88,0,0,0-.64.23,1.23,1.23,0,0,0-.31.6,4.39,4.39,0,0,0-.08.85v.6h-2.44v-.65a5.16,5.16,0,0,1,.34-1.94,2.91,2.91,0,0,1,1.11-1.34,3.53,3.53,0,0,1,2-.49,3.3,3.3,0,0,1,2.48.85,3.25,3.25,0,0,1,.84,2.38,4.06,4.06,0,0,1-.23,1.37,6.45,6.45,0,0,1-.62,1.23L304,163.2l-2.24,3.33h3.58v2Z" style="fill:#263238"></path><path d="M310.24,168.73a3.58,3.58,0,0,1-1.84-.44,2.87,2.87,0,0,1-1.11-1.23,4,4,0,0,1-.38-1.83V159.7a4.74,4.74,0,0,1,.35-1.88,2.7,2.7,0,0,1,1.1-1.26,4.15,4.15,0,0,1,3.76,0,2.74,2.74,0,0,1,1.09,1.26,4.74,4.74,0,0,1,.35,1.88v5.53a4.06,4.06,0,0,1-.38,1.82,2.84,2.84,0,0,1-1.11,1.24A3.54,3.54,0,0,1,310.24,168.73Zm0-2.24a.57.57,0,0,0,.52-.24,1.21,1.21,0,0,0,.2-.54c0-.21,0-.39,0-.54v-5.41c0-.17,0-.37,0-.58a1.37,1.37,0,0,0-.19-.58.61.61,0,0,0-.54-.25.58.58,0,0,0-.53.25,1.25,1.25,0,0,0-.19.58c0,.21,0,.41,0,.58v5.41a3.81,3.81,0,0,0,0,.54,1.22,1.22,0,0,0,.21.54A.55.55,0,0,0,310.24,166.49Z" style="fill:#263238"></path><path d="M315,168.51v-1.78l2.93-4.5c.22-.33.43-.65.62-1a5.8,5.8,0,0,0,.49-1,2.83,2.83,0,0,0,.18-1,1.21,1.21,0,0,0-.21-.78.7.7,0,0,0-.57-.26.85.85,0,0,0-.63.23,1.15,1.15,0,0,0-.31.6,3.7,3.7,0,0,0-.09.85v.6H315v-.65a5.16,5.16,0,0,1,.35-1.94,2.89,2.89,0,0,1,1.1-1.34,3.53,3.53,0,0,1,2-.49,3.34,3.34,0,0,1,2.49.85,3.28,3.28,0,0,1,.83,2.38,3.83,3.83,0,0,1-.23,1.37,6.45,6.45,0,0,1-.62,1.23l-.82,1.25-2.23,3.33h3.57v2Z" style="fill:#263238"></path><path d="M322.76,168.51v-1.78l2.93-4.5.63-1a6.61,6.61,0,0,0,.48-1,2.63,2.63,0,0,0,.19-1,1.21,1.21,0,0,0-.21-.78.71.71,0,0,0-.58-.26.85.85,0,0,0-.63.23,1.23,1.23,0,0,0-.31.6,4.39,4.39,0,0,0-.08.85v.6h-2.45v-.65a5.16,5.16,0,0,1,.35-1.94,2.89,2.89,0,0,1,1.1-1.34,3.56,3.56,0,0,1,2-.49,3.32,3.32,0,0,1,2.48.85,3.25,3.25,0,0,1,.84,2.38,3.83,3.83,0,0,1-.24,1.37,6.4,6.4,0,0,1-.61,1.23c-.26.4-.53.81-.83,1.25l-2.23,3.33h3.58v2Z" style="fill:#263238"></path><path d="M391.78,178.68l1.59-20.75,4.92.29,1.57,12.21L403,158.51l4.74.28-.88,20.79-3.25-.2.44-13.84-3.24,13.68L398,179,396.22,165l-1.14,13.9Z" style="fill:#263238"></path><path d="M408.9,179.7l5.16-20.54,5.23.31,2.64,21-4.23-.25-.43-4.43-3-.18-1,4.34Zm5.89-6.81,2.2.13-.62-8.16Z" style="fill:#263238"></path><path d="M425.62,180.69l.51-8.49-3.22-12.51,4.33.26,1.58,6.68,2.16-6.46,4.16.25-4.61,12.05L430,181Z" style="fill:#263238"></path><path d="M389.12,224l-.27-3.2a9.29,9.29,0,0,0,1.17-.17,1.65,1.65,0,0,0,.74-.36,1.21,1.21,0,0,0,.36-.68,3.77,3.77,0,0,0,0-1.09l-1.33-16,4.58-.38,1.35,16.18a8,8,0,0,1-.18,2.86,3.13,3.13,0,0,1-1.33,1.83,6.35,6.35,0,0,1-2.9.8Z" style="fill:#263238"></path><path d="M405.22,222.46a7.45,7.45,0,0,1-3.79-.47,4.16,4.16,0,0,1-2.07-2.12,11.27,11.27,0,0,1-.85-3.63l-1.19-14.3,4.53-.38,1.25,15a9.34,9.34,0,0,0,.21,1.27,2.09,2.09,0,0,0,.54,1,1.32,1.32,0,0,0,1.09.32,1.29,1.29,0,0,0,1-.5,2.13,2.13,0,0,0,.34-1.09,9.09,9.09,0,0,0,0-1.28l-1.25-15,4.55-.38,1.2,14.31a10.82,10.82,0,0,1-.24,3.71,4.34,4.34,0,0,1-1.69,2.44A7.44,7.44,0,0,1,405.22,222.46Z" style="fill:#263238"></path><path d="M414.25,221.39l-1.73-20.73,3.22-.27,5.09,9.63L420,200l3.79-.32,1.74,20.73-3.1.26-5.15-10.39.9,10.75Z" style="fill:#263238"></path><path d="M428.61,220.19l-1.73-20.73,9.31-.78.27,3.12-4.74.4.43,5.14,3.61-.3.27,3.18-3.61.3.52,6.19,4.78-.4.26,3.1Z" style="fill:#263238"></path></g><g id="freepik--Plant--inject-2"><path d="M561.46,113.32s-12.76-10.27-10.58-11.52,6.85,2.8,6.85,2.8S551.81,95,555.24,94s5.6,6.85,5.6,6.85-2.8-8.09.93-6.54,4.05,12.76,4.05,12.76-2.18-19.6,4.35-23.34,4.67,7.47,4.67,7.47,1.25-6.53,3.42-2.8-2.8,9-2.8,9,9-9,12.14-3.74-6.53,10.58-6.53,10.58,9.33-2.8,6.53.94-8.09,5.6-8.09,5.6l-.62,4-15.56.94Z" style="fill:#92E3A9"></path><path d="M563.33,116.31a.51.51,0,0,1-.4-.2l-1.83-2.44c-2-1.6-11.16-9.13-11-11.51a1,1,0,0,1,.5-.79c1.51-.86,3.82.29,5.47,1.38-1.28-2.41-3-6.22-2.24-8.1a1.8,1.8,0,0,1,1.24-1.11c1.77-.48,3.19.91,4.24,2.59a2.8,2.8,0,0,1,.6-2.12,1.75,1.75,0,0,1,2-.14c1.42.59,2.38,2.32,3,4.35.16-5.83,1.18-12.75,4.95-14.9,1.66-1,3-1.09,4-.39,1.25.87,1.61,2.89,1.66,4.74a1.8,1.8,0,0,1,1.15-.88c.68-.12,1.34.34,2,1.38,1.18,2,.49,4.41-.52,6.29,2.09-1.55,4.87-3.17,7.12-2.88A3.58,3.58,0,0,1,588,93.46a4.71,4.71,0,0,1,.5,3.79c-.65,2.38-2.9,4.47-4.72,5.84,1.93-.38,4-.54,4.62.35.36.52.22,1.22-.43,2.09-2.52,3.35-6.88,5.21-8,5.66l-.58,3.76a.5.5,0,0,1-.46.42l-15.56.94Zm-11.47-14.24a1.41,1.41,0,0,0-.73.17c-.29.91,4.59,5.81,10.64,10.69a.2.2,0,0,1,.09.09l1.71,2.27,14.88-.89.57-3.65a.48.48,0,0,1,.32-.39s5.19-1.87,7.86-5.43c.45-.6.45-.87.41-.92-.36-.51-3.35-.15-6.4.76a.51.51,0,0,1-.61-.28.52.52,0,0,1,.23-.64s5.72-3.18,6.74-6.87a3.77,3.77,0,0,0-.4-3,2.64,2.64,0,0,0-2-1.39c-3.62-.46-9.3,5.17-9.35,5.23a.5.5,0,0,1-.72-.7s4.7-5.06,2.73-8.43c-.41-.71-.76-.93-.91-.9-.56.1-1.28,1.91-1.59,3.55a.5.5,0,0,1-.58.39.48.48,0,0,1-.4-.57c.28-1.67.64-6.26-1-7.39-.65-.46-1.63-.31-2.94.44-4.58,2.62-4.64,13.82-4.35,19.51.19,1.68.24,3,.25,3.38a.5.5,0,0,1-.47.51.49.49,0,0,1-.53-.44c0-.2-.16-1.47-.26-3.35-.42-3.57-1.42-8.15-3.48-9-.32-.13-.75-.25-1-.05-.61.57-.17,3.09.4,5.07.18.51.28.86.3.92a.52.52,0,0,1-.33.62.51.51,0,0,1-.63-.32c-.06-.2-.19-.57-.33-1-.82-2.34-2.6-6-4.66-5.48a.77.77,0,0,0-.58.52c-.76,1.91,2.17,7.38,3.36,9.32a.49.49,0,0,1-.1.64.5.5,0,0,1-.65,0C556,103.73,553.42,102.07,551.86,102.07Z" style="fill:#263238"></path><rect x="557.71" y="113.01" width="25.34" height="24.66" style="fill:#263238"></rect><path d="M583.05,138.17H557.71a.5.5,0,0,1-.5-.5V113a.5.5,0,0,1,.5-.5h25.34a.5.5,0,0,1,.5.5v24.66A.51.51,0,0,1,583.05,138.17Zm-24.84-1h24.34V113.51H558.21Z" style="fill:#263238"></path></g><g id="freepik--Furniture--inject-2"><rect x="532.16" y="137.89" width="162.04" height="253.94" style="fill:#fff"></rect><path d="M694.19,392.33h-162a.5.5,0,0,1-.5-.5V137.89a.5.5,0,0,1,.5-.5h162a.5.5,0,0,1,.5.5V391.83A.5.5,0,0,1,694.19,392.33Zm-161.53-1h161V138.39h-161Z" style="fill:#263238"></path><rect x="534.96" y="142.29" width="156.43" height="245.14" style="fill:#fff"></rect><path d="M691.39,387.93H535a.5.5,0,0,1-.5-.5V142.29a.5.5,0,0,1,.5-.5H691.39a.5.5,0,0,1,.5.5V387.43A.5.5,0,0,1,691.39,387.93Zm-155.93-1H690.89V142.79H535.46Z" style="fill:#263238"></path><path d="M613.17,387.51a.5.5,0,0,1-.5-.5V142.39a.51.51,0,0,1,.5-.5.5.5,0,0,1,.5.5V387A.5.5,0,0,1,613.17,387.51Z" style="fill:#263238"></path><path d="M606.5,260.77a4.58,4.58,0,1,0-4.58,4.58A4.58,4.58,0,0,0,606.5,260.77Z" style="fill:#263238"></path><path d="M601.92,265.85a5.08,5.08,0,1,1,5.08-5.08A5.08,5.08,0,0,1,601.92,265.85Zm0-9.15a4.08,4.08,0,1,0,4.08,4.07A4.07,4.07,0,0,0,601.92,256.7Z" style="fill:#263238"></path><path d="M629.38,260.77a4.58,4.58,0,1,0-4.58,4.58A4.58,4.58,0,0,0,629.38,260.77Z" style="fill:#263238"></path><path d="M624.8,265.85a5.08,5.08,0,1,1,5.08-5.08A5.08,5.08,0,0,1,624.8,265.85Zm0-9.15a4.08,4.08,0,1,0,4.08,4.07A4.07,4.07,0,0,0,624.8,256.7Z" style="fill:#263238"></path><rect x="536.61" y="392.23" width="12.9" height="8.32" style="fill:#fff"></rect><path d="M549.51,401.05h-12.9a.5.5,0,0,1-.5-.5v-8.32a.5.5,0,0,1,.5-.5h12.9a.5.5,0,0,1,.5.5v8.32A.5.5,0,0,1,549.51,401.05Zm-12.4-1H549v-7.32h-11.9Z" style="fill:#263238"></path><rect x="675.35" y="392.23" width="12.9" height="8.32" style="fill:#fff"></rect><path d="M688.24,401.05H675.35a.5.5,0,0,1-.5-.5v-8.32a.5.5,0,0,1,.5-.5h12.89a.5.5,0,0,1,.5.5v8.32A.5.5,0,0,1,688.24,401.05Zm-12.39-1h11.89v-7.32H675.85Z" style="fill:#263238"></path><path d="M682,221.23H630.49a.5.5,0,0,1-.5-.5V159a.5.5,0,0,1,.5-.5H682a.5.5,0,0,1,.5.5v61.71A.5.5,0,0,1,682,221.23Zm-51-1h50.53V159.52H631Z" style="fill:#263238"></path><path d="M643.75,176H636a.5.5,0,0,1-.5-.5v-7.78a.5.5,0,0,1,.5-.5h7.79a.5.5,0,0,1,.5.5v7.78A.5.5,0,0,1,643.75,176Zm-7.29-1h6.79v-6.78h-6.79Z" style="fill:#263238"></path><path d="M674.17,172.15H649.05a.5.5,0,0,1,0-1h25.12a.5.5,0,0,1,0,1Z" style="fill:#263238"></path><path d="M643.75,190.55H636a.51.51,0,0,1-.5-.5v-7.79a.51.51,0,0,1,.5-.5h7.79a.51.51,0,0,1,.5.5v7.79A.51.51,0,0,1,643.75,190.55Zm-7.29-1h6.79v-6.79h-6.79Z" style="fill:#263238"></path><path d="M674.17,186.66H649.05a.51.51,0,0,1-.5-.5.5.5,0,0,1,.5-.5h25.12a.5.5,0,0,1,.5.5A.5.5,0,0,1,674.17,186.66Z" style="fill:#263238"></path><path d="M643.75,205.05H636a.5.5,0,0,1-.5-.5v-7.78a.5.5,0,0,1,.5-.5h7.79a.5.5,0,0,1,.5.5v7.78A.5.5,0,0,1,643.75,205.05Zm-7.29-1h6.79v-6.78h-6.79Z" style="fill:#263238"></path><path d="M674.17,201.16H649.05a.5.5,0,0,1-.5-.5.51.51,0,0,1,.5-.5h25.12a.5.5,0,0,1,.5.5A.5.5,0,0,1,674.17,201.16Z" style="fill:#263238"></path></g><g id="freepik--character-5--inject-2"><path d="M566,264.09l-.27-3.22s-1-12-3.5-15.38-4.06-1.68-4.06-.56,1.4,2.66,1.68,3.5,1,3.77,1,3.77a27.41,27.41,0,0,0-3.08-3.63c-1.39-1.26-3.21-1.12-3.63-.28s.56,1.82,1.26,2.52a11.07,11.07,0,0,1,2,3.49,6.19,6.19,0,0,0-3.91-1c-2.1.28-.84,1.12-.42,1.68s.7.42,2,1l1.26.56s-3.78.14-3.78,1.26a1.28,1.28,0,0,0,1.26,1.4c.42,0,2.38.28,2.38.28a6.82,6.82,0,0,0,.83,5.31,7.71,7.71,0,0,0,3.36,2.94l.28,2.23,6-2.37Z" style="fill:#fff"></path><path d="M560.57,270.46a.43.43,0,0,1-.25-.07.47.47,0,0,1-.25-.36l-.24-1.95a9,9,0,0,1-3.3-3,7,7,0,0,1-1-5.18c-.72-.1-1.56-.2-1.78-.2a1.78,1.78,0,0,1-1.76-1.9c0-.9,1.15-1.34,2.34-1.56l-.52-.19a2,2,0,0,1-1.16-.75c-.06-.08-.15-.17-.23-.26-.33-.36-.78-.84-.58-1.4s.94-.73,1.56-.81a6,6,0,0,1,3,.42,10.67,10.67,0,0,0-1.35-2.09c-.77-.77-1.93-1.93-1.35-3.1a1.76,1.76,0,0,1,1.3-.87,3.78,3.78,0,0,1,3.12,1,16.34,16.34,0,0,1,1.68,1.81c-.15-.59-.3-1.14-.39-1.42a7,7,0,0,0-.6-1.07,5.48,5.48,0,0,1-1.11-2.59A2,2,0,0,1,559,243.1c.77-.26,2-.1,3.68,2.09,2.57,3.43,3.55,15.15,3.59,15.64l.28,3.2.56,3.48a.49.49,0,0,1-.31.54l-6,2.38A.52.52,0,0,1,560.57,270.46ZM552.8,254a4,4,0,0,0,.32.38,4.31,4.31,0,0,1,.3.34c.17.23.26.26.68.41a10.56,10.56,0,0,1,1.08.41l1.26.56a.52.52,0,0,1,.29.55.51.51,0,0,1-.48.41c-1.7.06-3.19.47-3.29.76,0,.87.68.9.76.9.44,0,2.24.25,2.45.28a.47.47,0,0,1,.34.22.5.5,0,0,1,.07.41,6.36,6.36,0,0,0,.76,4.89,7.39,7.39,0,0,0,3.11,2.75.54.54,0,0,1,.34.42l.2,1.59,5-2-.5-3.1v0l-.28-3.21c0-.12-1-11.93-3.4-15.13-1-1.3-1.93-1.95-2.56-1.74a1,1,0,0,0-.6.88,5,5,0,0,0,.95,2,7.55,7.55,0,0,1,.71,1.29c.28.85,1,3.7,1,3.82a.52.52,0,0,1-.28.57.5.5,0,0,1-.62-.17,26.76,26.76,0,0,0-3-3.55,2.79,2.79,0,0,0-2.26-.77.79.79,0,0,0-.59.34c-.26.52.63,1.41,1.16,1.94a10.83,10.83,0,0,1,2.1,3.85.5.5,0,0,1-.78.41,5.72,5.72,0,0,0-3.56-.89A2.74,2.74,0,0,0,552.8,254Z" style="fill:#263238"></path><path d="M564.91,255.14s-3.08-4-4.62-4.33-2,1.25-1.4,2.37a6.74,6.74,0,0,0,2.24,2.1s-2.52,3.92-1.12,5.59,4.34,1.54,4.34,1.54" style="fill:#fff"></path><path d="M564.17,262.92c-.73,0-3.21-.13-4.54-1.73s.15-4.6.82-5.75a6.26,6.26,0,0,1-2-2,2.43,2.43,0,0,1,.09-2.47,1.76,1.76,0,0,1,1.84-.63c1.65.3,4.39,3.83,4.92,4.53a.5.5,0,1,1-.79.6c-1.15-1.51-3.33-4-4.31-4.14a.83.83,0,0,0-.86.24,1.43,1.43,0,0,0,0,1.42,6,6,0,0,0,2,1.89.53.53,0,0,1,.24.31.52.52,0,0,1-.07.39c-.6.94-2.1,3.87-1.15,5,1.21,1.47,3.9,1.36,3.92,1.36a.51.51,0,0,1,.53.48.5.5,0,0,1-.48.52Z" style="fill:#263238"></path><path d="M566.86,265.35,559.31,270s-.42,8-.84,17.77,2.24,18.74,6,23.91,11.6,9.37,11.6,9.37l7.28-19.16a88.65,88.65,0,0,1-7.14-7.27C574,291.78,566.72,268.43,566.86,265.35Z" style="fill:#92E3A9"></path><path d="M576.09,321.51a.46.46,0,0,1-.23-.06c-.33-.17-8-4.31-11.78-9.52-4.16-5.7-6.5-15-6.11-24.23.42-9.68.84-17.68.84-17.76a.49.49,0,0,1,.24-.4l7.55-4.62a.53.53,0,0,1,.52,0,.49.49,0,0,1,.24.45c-.12,2.76,7,26.11,9.26,28.9a90.86,90.86,0,0,0,7.08,7.21.5.5,0,0,1,.13.55l-7.27,19.16a.52.52,0,0,1-.29.29ZM559.8,270.25c-.08,1.46-.46,8.8-.83,17.5-.38,9,1.88,18.06,5.92,23.59,3.12,4.28,9.17,7.94,10.94,9l6.95-18.3a84.33,84.33,0,0,1-6.94-7.1c-2.22-2.78-8.65-23.51-9.41-28.69Z" style="fill:#263238"></path><path d="M563.51,374.94s-16.66,10.19-21.36,16.27-.39,14.7,5.88,17.05,36.84,4.12,48.6,1.18,22.74-2.75,26.86-1.18c1.83.7,6.18,1.07,6.45-1.84a3.67,3.67,0,0,0-.25-1.5c-1.15-3.59-3.39-6.19-6-8.81a36.19,36.19,0,0,0-11.95-7.45S594.87,371.22,563.51,374.94Z" style="fill:#bababa"></path><path d="M577.73,411.46c-12.35,0-25.8-1.2-29.88-2.73a13.24,13.24,0,0,1-7.75-8.61,10.15,10.15,0,0,1,1.65-9.21c4.71-6.08,20.82-16,21.5-16.39a.48.48,0,0,1,.2-.07c30.12-3.58,47.2,12.46,48.55,13.78a36.29,36.29,0,0,1,12,7.53c2.86,2.86,5,5.49,6.13,9a4.42,4.42,0,0,1,.27,1.71,2.76,2.76,0,0,1-1.3,2.13c-1.62,1-4.38.68-5.83.13-4.25-1.62-15.34-1.61-26.55,1.19C592.4,411,585.27,411.46,577.73,411.46Zm-14.05-36c-1.34.83-16.72,10.39-21.14,16.09a9.18,9.18,0,0,0-1.48,8.32,12.21,12.21,0,0,0,7.14,8c6.48,2.43,36.95,4,48.31,1.16s22.77-2.83,27.15-1.15c1.23.46,3.64.77,5-.05a1.71,1.71,0,0,0,.83-1.37,3.41,3.41,0,0,0-.23-1.31c-1.06-3.33-3.12-5.85-5.88-8.61a36,36,0,0,0-11.77-7.33.39.39,0,0,1-.19-.12C611.2,388.84,594.34,371.83,563.68,375.43Z" style="fill:#263238"></path><path d="M623.68,396.11a36.19,36.19,0,0,0-11.95-7.45,32.51,32.51,0,0,0-3.29-2.78l-.05,0-4.31,10.19s4.12,6.27,4.12,8.82v2.53c6.9-.66,12.58-.23,15.29.8,1.83.7,6.18,1.07,6.45-1.84a3.67,3.67,0,0,0-.25-1.5C628.54,401.33,626.3,398.73,623.68,396.11Z" style="fill:#fff"></path><path d="M626.36,409.25a9.18,9.18,0,0,1-3.05-.52c-2.82-1.07-8.73-1.38-15.06-.78a.54.54,0,0,1-.39-.12.52.52,0,0,1-.16-.37v-2.53c0-2-2.91-6.84-4-8.55a.5.5,0,0,1,0-.46l4.31-10.2a.7.7,0,0,1,.13-.17.56.56,0,0,1,.68-.07,32.84,32.84,0,0,1,3.26,2.75,36.37,36.37,0,0,1,12,7.53c2.86,2.86,5,5.49,6.13,9a4.42,4.42,0,0,1,.27,1.71,2.76,2.76,0,0,1-1.3,2.13A5.37,5.37,0,0,1,626.36,409.25Zm-11.85-2.61a28.06,28.06,0,0,1,9.15,1.16c1.23.46,3.64.77,5-.05a1.71,1.71,0,0,0,.83-1.37,3.41,3.41,0,0,0-.23-1.31c-1.06-3.33-3.12-5.85-5.88-8.61a36.22,36.22,0,0,0-11.77-7.33.39.39,0,0,1-.19-.12,29.43,29.43,0,0,0-2.74-2.36l-4,9.41c.75,1.17,4.05,6.46,4.05,8.87v2C610.72,406.73,612.69,406.64,614.51,406.64Z" style="fill:#263238"></path><path d="M564.14,403c-2.8,0-5.65-.11-8.51-.36a.5.5,0,0,1-.46-.54.51.51,0,0,1,.54-.45c24.49,2.12,48-6,48.21-6.05a.49.49,0,0,1,.63.31.48.48,0,0,1-.3.63A136.91,136.91,0,0,1,564.14,403Z" style="fill:#263238"></path><path d="M579.78,297.92v6.28s-1.76,5.87-5.1,15.28-1.56,27.83-1.56,29.79-4.9,15.29-7.65,20.38-3.72,7.45-3.72,7.45,11.76-1,20.58,4.31,21.75,14.7,21.75,14.7a26.83,26.83,0,0,0,10.39-7.06c4.51-5.09,5.29-15.28,2.74-24.69s-10-26.26-10-26.26.19-19.21-6.86-29.4a37.62,37.62,0,0,0-16.66-13.53Z" style="fill:#92E3A9"></path><path d="M604.08,396.61a.46.46,0,0,1-.29-.1c-.13-.09-13-9.45-21.72-14.67s-20.16-4.25-20.28-4.24a.54.54,0,0,1-.45-.21.49.49,0,0,1-.05-.48c0-.1,1-2.44,3.74-7.5s7.59-18.26,7.59-20.14c0-.29,0-.92-.1-1.83-.32-5.47-1.18-20,1.69-28.13,3.1-8.74,4.86-14.49,5.07-15.18v-6.21a.49.49,0,0,1,.21-.41l3.92-2.75a.51.51,0,0,1,.45-.06,38.54,38.54,0,0,1,16.91,13.71c6.87,9.92,7,27.86,7,29.58.62,1.41,7.55,17.28,10,26.24,2.72,10,1.57,20.15-2.86,25.16a27,27,0,0,1-10.6,7.19A.45.45,0,0,1,604.08,396.61Zm-39.94-20.09c3.94,0,11.92.55,18.44,4.46,8.12,4.87,19.85,13.32,21.58,14.57a26.79,26.79,0,0,0,9.94-6.83c4.21-4.76,5.27-14.5,2.63-24.23-2.51-9.26-9.89-26-10-26.19a.52.52,0,0,1,0-.21c0-.19.11-19.17-6.77-29.11a37.92,37.92,0,0,0-16.18-13.25l-3.49,2.45v6a.39.39,0,0,1,0,.15s-1.81,6-5.1,15.29c-2.81,7.93-2,22.32-1.64,27.74.06.94.1,1.6.1,1.89,0,2.18-5,15.67-7.71,20.62-1.84,3.42-2.89,5.61-3.37,6.66C562.94,376.54,563.49,376.52,564.14,376.52Z" style="fill:#263238"></path><path d="M593.46,301.12a34.68,34.68,0,0,0-9.76-5.95l-3.92,2.75v6.28s-1.54,5.11-4.45,13.44a8.61,8.61,0,0,0,6.8.27C587.44,316.25,587.69,305.2,593.46,301.12Z" style="fill:#fff"></path><path d="M578.82,319a7.77,7.77,0,0,1-3.72-.87.49.49,0,0,1-.24-.6c2.69-7.7,4.23-12.71,4.42-13.35v-6.21a.49.49,0,0,1,.21-.41l3.92-2.75a.52.52,0,0,1,.45-.06,35,35,0,0,1,9.92,6,.52.52,0,0,1,.18.4.53.53,0,0,1-.21.39c-2.68,1.89-4.13,5.38-5.53,8.76-1.53,3.69-3,7.17-5.94,8.1A11.85,11.85,0,0,1,578.82,319ZM576,317.39a8.62,8.62,0,0,0,6,0c2.51-.78,3.88-4.06,5.32-7.53,1.37-3.29,2.78-6.69,5.35-8.79a35.34,35.34,0,0,0-8.88-5.38l-3.49,2.45v6a.39.39,0,0,1,0,.15S578.74,309.39,576,317.39Z" style="fill:#263238"></path><path d="M596.44,383.67a.51.51,0,0,1-.36-.15c-4.36-4.54-17.26-7.47-17.39-7.5a.5.5,0,0,1-.38-.6.51.51,0,0,1,.6-.38c.54.13,13.33,3,17.89,7.79a.5.5,0,0,1,0,.71A.48.48,0,0,1,596.44,383.67Z" style="fill:#263238"></path><path d="M605.85,381.13a.52.52,0,0,1-.38-.17,12,12,0,0,0-4.31-2.81.5.5,0,1,1,.39-.92,13,13,0,0,1,4.67,3.07.49.49,0,0,1-.05.7A.45.45,0,0,1,605.85,381.13Z" style="fill:#263238"></path><path d="M598.12,377l-.14,0a59.11,59.11,0,0,0-9.82-2,.5.5,0,0,1-.45-.55.51.51,0,0,1,.55-.45,62.15,62.15,0,0,1,10,2,.5.5,0,0,1,.33.62A.49.49,0,0,1,598.12,377Z" style="fill:#263238"></path><path d="M574.85,266.14a56.77,56.77,0,0,0-3.22,7.08c-.44,1.81-.69,2.81-1.79,3.82s-4.4.62-4.84,3.28,2.67,3.85,2.67,3.85-2.71,8.48.92,12.77,11,4.61,12.49,3.7,11.07-32.18,11.07-32.18S578.8,263.92,574.85,266.14Z" style="fill:#fff"></path><path d="M578.64,301.56c-3.11,0-7.8-1.18-10.44-4.3-3.32-3.93-1.65-11-1.13-12.81-1.23-.62-2.92-2.05-2.56-4.21s2.16-2.58,3.49-2.95a4.31,4.31,0,0,0,1.51-.62c1-.91,1.2-1.79,1.63-3.57s3.16-7,3.27-7.19a.39.39,0,0,1,.2-.2c4.09-2.31,17.15,2.09,17.7,2.28a.5.5,0,0,1,.32.62c-2.26,7.38-9.75,31.52-11.29,32.46A5.78,5.78,0,0,1,578.64,301.56Zm-3.42-35.05a54.55,54.55,0,0,0-3.11,6.83c-.45,1.84-.72,3-1.93,4.07a4.8,4.8,0,0,1-1.91.84c-1.54.43-2.56.82-2.78,2.15-.36,2.22,2.25,3.26,2.36,3.3a.5.5,0,0,1,.3.62c0,.08-2.59,8.27.82,12.3s10.49,4.42,11.85,3.59c1.1-1,7.09-19.63,10.71-31.43C587.6,267.49,578.31,265,575.22,266.51Z" style="fill:#263238"></path><path d="M575.46,277.56c-.27,1.11-.9,1.91-1.4,1.79s-.68-1.12-.41-2.23.9-1.91,1.4-1.78S575.73,276.46,575.46,277.56Z" style="fill:#263238"></path><path d="M571.09,286.94a11.82,11.82,0,0,1-1.47-.08.51.51,0,0,1-.43-.56.5.5,0,0,1,.56-.43s3.57.44,5.89-1a.49.49,0,0,1,.68.17.5.5,0,0,1-.16.69A10.21,10.21,0,0,1,571.09,286.94Z" style="fill:#263238"></path><path d="M578.45,275.39a.5.5,0,0,1-.49-.4,4.08,4.08,0,0,0-3.22-3,.5.5,0,0,1-.4-.58.49.49,0,0,1,.57-.41,5.09,5.09,0,0,1,4,3.84.48.48,0,0,1-.39.58Z" style="fill:#263238"></path><path d="M581.43,255.69s-3.84,1.07-5.83,3.71-5,7.71-5,7.71l7.71,5,3.62-2-.72,2.95,4.28,3.51s-5.56,14.51-6.65,18a121,121,0,0,1-4.74,11.14s2.9.93,14.51,6.46,24.5,3.09,24.5,3.09,3.61-27.51,4.26-35.62-5.63-19-12.28-23.79S584.11,253.88,581.43,255.69Z" style="fill:#263238"></path><path d="M606.12,316.32a41.83,41.83,0,0,1-17.73-3.66c-11.41-5.43-14.42-6.43-14.45-6.44a.48.48,0,0,1-.31-.28.49.49,0,0,1,0-.41,120.18,120.18,0,0,0,4.71-11.06c1-3.26,5.68-15.49,6.54-17.74l-4-3.28a.5.5,0,0,1-.17-.5l.46-1.84-2.63,1.46a.49.49,0,0,1-.51,0l-7.72-5a.49.49,0,0,1-.15-.67c.12-.21,3.06-5.13,5.05-7.76a12.65,12.65,0,0,1,6-3.87c3-1.94,17.37-4.59,24.15.25,6.45,4.61,13.16,15.7,12.48,24.24-.64,8-4.21,35.37-4.25,35.64a.5.5,0,0,1-.4.43A43,43,0,0,1,606.12,316.32Zm-31.34-10.86c1.27.48,5,2,14,6.29,10.26,4.89,21.69,3.45,23.84,3.12.43-3.3,3.6-27.73,4.2-35.23.65-8.2-5.84-18.89-12.07-23.35-6.52-4.65-20.63-1.84-23.08-.19l-.14.07s-3.71,1.06-5.57,3.53c-1.62,2.16-4,6-4.74,7.26l7.06,4.59,3.36-1.87a.5.5,0,0,1,.55,0,.52.52,0,0,1,.18.52l-.65,2.65,4,3.3a.5.5,0,0,1,.15.57c-.06.15-5.57,14.53-6.64,18A112.52,112.52,0,0,1,574.78,305.46Zm6.65-49.77h0Z" style="fill:#263238"></path><path d="M587.62,323.4s3.92,20.38,4.51,21.75-.4,4.31.19,5.29a4.72,4.72,0,0,1,.59,2.16S577,366.91,575.08,368.08a6.85,6.85,0,0,1-2.53,1.18,49.08,49.08,0,0,0,3.11,7c1.38,2.15,11.76-3.66,22.35-8.17s17.83-12.93,16.26-22.54-5.09-27-9.8-34.69-9.6-6.86-12.54-5.09-3.72,6.27-4.51,8.62" style="fill:#92E3A9"></path><path d="M576.83,377.21a1.71,1.71,0,0,1-1.59-.7,48.43,48.43,0,0,1-3.16-7.08.48.48,0,0,1,.06-.46.49.49,0,0,1,.41-.21,8,8,0,0,0,2.27-1.1c1.5-.91,12-10.29,17.58-15.27a4.15,4.15,0,0,0-.51-1.69,5,5,0,0,1-.17-2.76,6.45,6.45,0,0,0-.05-2.59c-.6-1.38-4.14-19.77-4.54-21.86a.49.49,0,0,1,.39-.58.5.5,0,0,1,.59.39c1.57,8.17,4.06,20.69,4.48,21.66a6.86,6.86,0,0,1,.13,3.07,5.32,5.32,0,0,0,0,2.16,5.23,5.23,0,0,1,.66,2.41.51.51,0,0,1-.16.37c-.65.59-15.94,14.35-17.92,15.54a13.31,13.31,0,0,1-2.13,1.09,44.4,44.4,0,0,0,2.89,6.38c.77,1.21,7.49-1.89,13.42-4.63,2.68-1.24,5.46-2.52,8.3-3.73,11.28-4.8,17.4-13.23,16-22-1-6-4.55-26.09-9.73-34.5-4.71-7.66-9.45-6.38-11.86-4.93s-3.19,4.58-3.87,6.93c-.15.52-.28,1-.42,1.42a.51.51,0,0,1-.64.32.5.5,0,0,1-.31-.64c.13-.4.27-.87.41-1.37.73-2.52,1.72-6,4.31-7.52,2.2-1.32,7.88-3.44,13.23,5.26s8.89,28.86,9.87,34.87c1.51,9.25-4.84,18.09-16.57,23.08-2.82,1.21-5.59,2.49-8.27,3.72C583.34,375.3,579.06,377.21,576.83,377.21Z" style="fill:#263238"></path><path d="M572.55,369.26s-7,1.5-9,2.77-5.59,3.62-7.39,6.16-.72,2,1.08,2a11.33,11.33,0,0,0,4.33-1.45s6.13.18,7.93-.36,6.14-2.12,6.14-2.12Z" style="fill:#fff"></path><path d="M555.9,380.73c-.48,0-.85-.08-1-.44-.29-.52.08-1.21.92-2.39,1.93-2.71,5.86-5.22,7.53-6.29,2-1.3,8.85-2.78,9.14-2.84a.5.5,0,0,1,.56.29l3.12,7a.5.5,0,0,1-.28.67c-.18.07-4.37,1.6-6.17,2.14s-7,.41-8,.39a11.23,11.23,0,0,1-4.45,1.44c-.29,0-.56,0-.8,0Zm-.09-1c.15,0,.39,0,.6,0s.54,0,.85,0a10.91,10.91,0,0,0,4.08-1.38.48.48,0,0,1,.26-.07c.07,0,6.08.18,7.78-.34,1.41-.42,4.41-1.5,5.61-1.93l-2.73-6.12c-1.5.33-6.8,1.57-8.42,2.61s-5.44,3.48-7.25,6A7.06,7.06,0,0,0,555.81,379.73Z" style="fill:#263238"></path></g><g id="freepik--character-4--inject-2"><path d="M504.45,379.21s-10.72-7.37-20.11-5.81-6.93,13.85-4.69,18.55,8.49,14.52,8.49,14.52,15.64,3.58,17.88,4,9.83-10.5,8-19S504.45,379.21,504.45,379.21Z" style="fill:#263238"></path><path d="M506.15,411a.86.86,0,0,1-.23,0c-2.22-.44-17.74-4-17.89-4a.5.5,0,0,1-.31-.22c-.06-.1-6.3-9.91-8.52-14.58-1.63-3.41-3.3-10.53-.9-15.14a7.75,7.75,0,0,1,6-4.11c9.31-1.55,19.68,5.35,20.44,5.87.65.32,8.07,4.18,9.85,12.62,1.48,7-3.22,15.33-6.06,18.21A3.75,3.75,0,0,1,506.15,411Zm-17.7-5c1.84.42,15.6,3.56,17.66,4,.19,0,.73-.15,1.67-1.09,2.71-2.75,7.19-10.64,5.79-17.31-1.72-8.15-9.26-11.9-9.34-11.94l-.06,0c-.11-.07-10.67-7.24-19.75-5.73a6.84,6.84,0,0,0-5.24,3.6c-2.11,4.05-.73,10.77.92,14.24C482.13,396,487.61,404.69,488.45,406Z" style="fill:#263238"></path><path d="M491.46,312.16s2.49-2.19,3.07-.59l.59,1.61s2.19-.58,2.19,1-.29,4.53-.29,4.53,2.77-3.22,3.36-1.76a4,4,0,0,1,.15,2.63l-.44,7.9a11,11,0,0,0,2.48-2.63c.44-1,1.76-1,1.76.43s-1,3.66-1.76,5.85-4.09,5.12-4.82,5.41-.44-.88-.73.29.44,11.84.44,11.84,6.87,14.76,7,19.15-.44,6-1.75,7.45-4.24,3.21-9.06,2.19-6.44-4.38-6.44-12.71,2.34-22.8,2.34-25,.73-7.3.59-8.18S489,318.59,491.46,312.16Z" style="fill:#fff"></path><path d="M496.45,378.3a13.65,13.65,0,0,1-2.9-.32c-5-1.07-6.83-4.52-6.83-13.2,0-5.54,1-13.83,1.72-19.31.35-2.78.62-5,.62-5.69,0-1.1.18-2.85.34-4.54a28.32,28.32,0,0,0,.25-3.56c-.18-1.1-1.13-13.28,1.35-19.7a.53.53,0,0,1,.13-.2c.3-.26,1.83-1.54,3-1.25a1.28,1.28,0,0,1,.91.87l.44,1.21a2.5,2.5,0,0,1,1.8.34,1.51,1.51,0,0,1,.57,1.26c0,.9-.09,2.18-.17,3.16.74-.68,1.68-1.38,2.41-1.25a1,1,0,0,1,.79.68,4.45,4.45,0,0,1,.18,2.91l-.37,6.66a6.45,6.45,0,0,0,1.46-1.69,1.52,1.52,0,0,1,1.65-1,1.49,1.49,0,0,1,1.07,1.63,13.7,13.7,0,0,1-1.14,4.2c-.22.59-.44,1.2-.64,1.81-.78,2.33-4.21,5.35-5.12,5.71a1.29,1.29,0,0,1-.45.08c-.14,1.22.2,7.53.47,11.46.61,1.33,6.88,14.95,7,19.26.16,4.66-.51,6.28-1.88,7.8A8.67,8.67,0,0,1,496.45,378.3Zm-4.57-65.84c-2.34,6.25-1.42,18-1.24,19.06a24.42,24.42,0,0,1-.24,3.82c-.16,1.59-.34,3.39-.34,4.44,0,.78-.26,2.89-.62,5.81-.69,5.46-1.72,13.71-1.72,19.19,0,8.18,1.53,11.27,6,12.22,5.12,1.09,7.71-1.06,8.59-2,1.19-1.32,1.77-2.78,1.62-7.1s-6.9-18.8-7-18.95a.58.58,0,0,1,0-.18c-.08-1.1-.73-10.78-.43-12,.16-.61.22-.87.59-.91a.58.58,0,0,1,.49.24c.82-.44,3.83-3.11,4.49-5.07.2-.62.43-1.24.66-1.84a13.41,13.41,0,0,0,1.07-3.85c0-.36-.11-.62-.28-.65s-.38.1-.52.41a10.68,10.68,0,0,1-2.63,2.83.51.51,0,0,1-.54.05.5.5,0,0,1-.27-.47l.44-7.89a.4.4,0,0,1,0-.15,3.49,3.49,0,0,0-.14-2.27c-.33-.15-1.47.68-2.52,1.89a.5.5,0,0,1-.88-.37s.29-2.92.29-4.48a.52.52,0,0,0-.18-.47,1.94,1.94,0,0,0-1.38-.07.51.51,0,0,1-.6-.32l-.59-1.6c-.07-.22-.17-.24-.21-.25C493.4,311.39,492.45,312,491.88,312.46Z" style="fill:#263238"></path><path d="M519.74,291.81s-4,5.49-4.43,8.47-.62,4.41-1.14,5.37-2.76.31-3.46,2.21,2.13,4.59,2.13,4.59.36,9.45,3,12.57,9.4,2.74,9.4,2.74-.4,3.33-.43,4.31,19.06.37,19.06.37l.06-6.93,1.22-4.68s4.43-1.68,4.74-10.67S528.58,287.11,524.19,286,519.74,291.81,519.74,291.81Z" style="fill:#fff"></path><path d="M533.17,333.14c-4.41,0-8.16-.15-8.66-.64a.74.74,0,0,1-.18-.44c0-.76.25-2.78.36-3.79-1.74,0-6.87-.17-9.21-2.92-2.56-3-3.06-11.26-3.13-12.69-.65-.65-2.82-3-2.11-5a3.07,3.07,0,0,1,2.52-1.86c.45-.11.86-.21,1-.41.46-.86.65-2.2,1-4.88l.05-.33c.41-2.85,3.81-7.7,4.43-8.56,0-.8.26-4.2,2.12-5.63a3.27,3.27,0,0,1,3-.5c4.77,1.21,26.42,15.48,26.09,24.66-.28,8.09-3.83,10.49-4.81,11l-1.15,4.39-.06,6.87a.5.5,0,0,1-.48.49C540.83,333,536.78,333.14,533.17,333.14Zm-7.82-1.33c1.54.41,10.16.39,18,.15l.06-6.45a.5.5,0,0,1,0-.12l1.22-4.68a.47.47,0,0,1,.3-.34s4.12-1.74,4.42-10.23-20.83-22.51-25.34-23.66a2.33,2.33,0,0,0-2.09.33c-1.4,1.08-1.73,4-1.74,5a.52.52,0,0,1-.09.29c0,.05-3.93,5.42-4.34,8.24l0,.34c-.4,2.79-.61,4.19-1.15,5.2a2.24,2.24,0,0,1-1.61.91c-.77.19-1.5.37-1.82,1.23-.47,1.3,1.28,3.37,2,4.05a.52.52,0,0,1,.16.35c0,.09.38,9.31,2.9,12.27s8.92,2.56,9,2.56a.51.51,0,0,1,.39.16.48.48,0,0,1,.13.4S525.42,330.63,525.35,331.81Zm-5.61-40h0Z" style="fill:#263238"></path><path d="M534.12,276.07s-8-.43-14.15,4.74-7.26,6.27-4.89,9.29S522.2,295,522.2,295l4.64-2.27s-3.48,1.37-1.5,4.09,6.75,4.62,6.75,4.62l3.42-1.22s-4,5.13-3,5.85a23,23,0,0,1,2.72,2.49,10.14,10.14,0,0,1,3.71-2.44c1.84-.49,7.43,3.22,3.5,8.07s-7.14,5.48-7.14,5.48,2.89,5.2,5.11,6.35,5.9.18,6.32-1,.88-2.83.88-2.83,7.41.08,11.86-5.74,4.54-23.65,2.28-27a12.67,12.67,0,0,0-5.46-4.49S550.91,273.63,534.12,276.07Z" style="fill:#263238"></path><path d="M542.84,327.06a5.72,5.72,0,0,1-2.63-.57c-2.33-1.2-5.2-6.33-5.32-6.54a.53.53,0,0,1,0-.46.51.51,0,0,1,.36-.28s3.11-.69,6.85-5.31c1.81-2.23,1.34-4,.63-5.1-1-1.52-2.86-2.36-3.61-2.17a9.56,9.56,0,0,0-3.47,2.31.51.51,0,0,1-.37.15h0a.49.49,0,0,1-.36-.15,22.91,22.91,0,0,0-2.64-2.42.88.88,0,0,1-.38-.63c-.16-1,1.17-3.13,2.24-4.61l-1.86.66a.55.55,0,0,1-.36,0c-.2-.08-4.92-2-7-4.8a2.9,2.9,0,0,1-.61-2.57v0l-1.92.93a.51.51,0,0,1-.4,0c-.2-.08-4.91-2-7.34-5.09-2.76-3.53-1-5,5-10a22.71,22.71,0,0,1,14.45-4.86c15.74-2.27,21.77,7.6,22.57,9.08a13.18,13.18,0,0,1,5.53,4.6c2.31,3.38,2.4,21.4-2.3,27.55-4,5.24-10.25,5.86-11.88,5.92-.16.56-.47,1.66-.79,2.51a2.73,2.73,0,0,1-1.65,1.34A7.88,7.88,0,0,1,542.84,327.06ZM536.07,320c.79,1.34,2.94,4.76,4.6,5.61a6.09,6.09,0,0,0,4.54,0,2,2,0,0,0,1.09-.75c.41-1.14.85-2.77.85-2.79a.54.54,0,0,1,.49-.37c.06,0,7.23,0,11.47-5.54,4.39-5.74,4.41-23.23,2.26-26.38a12.18,12.18,0,0,0-5.23-4.3.49.49,0,0,1-.28-.25c-.21-.45-5.47-11.05-21.66-8.69h-.1c-.08,0-7.84-.35-13.8,4.63-6.41,5.34-6.81,6.06-4.83,8.59s5.8,4.29,6.72,4.69l4-2a3.37,3.37,0,0,1,.49-.23.5.5,0,0,1,.4.91l-.42.21a2.75,2.75,0,0,0-1.35,1.43,2,2,0,0,0,.46,1.7c1.67,2.29,5.5,4,6.35,4.39l3.25-1.16a.48.48,0,0,1,.57.18.5.5,0,0,1,0,.6c-1.78,2.26-3.2,4.69-3,5.19a18.73,18.73,0,0,1,2.41,2.14,9.36,9.36,0,0,1,3.57-2.22c1.21-.33,3.49.71,4.7,2.59.73,1.12,1.61,3.44-.69,6.27C539.85,318.24,537.24,319.56,536.07,320Z" style="fill:#263238"></path><path d="M518.19,315.72a8.45,8.45,0,0,1-2.44-.35.5.5,0,1,1,.31-.95s3.86,1.21,6.16-1.38a.5.5,0,0,1,.7,0,.5.5,0,0,1,0,.71A6.16,6.16,0,0,1,518.19,315.72Z" style="fill:#263238"></path><path d="M518.52,305.69c-.43,1.17-1.17,2-1.65,1.8s-.53-1.27-.1-2.44,1.17-2,1.65-1.79S519,304.52,518.52,305.69Z" style="fill:#263238"></path><path d="M521.44,303.3a.49.49,0,0,1-.49-.43,2.45,2.45,0,0,0-.93-1.71,4.32,4.32,0,0,0-2.8-.6.51.51,0,0,1-.57-.42.5.5,0,0,1,.42-.56,5.18,5.18,0,0,1,3.55.77,3.44,3.44,0,0,1,1.32,2.39.51.51,0,0,1-.43.56Z" style="fill:#263238"></path><path d="M543.22,329.4s-2.65-2.77-8.2-1.46A21.5,21.5,0,0,0,521.86,337c-2.77,4.38-4.53,43-5.26,47.06s30,39.17,31.28,40.19,4.82-.14,7.16-4.38,7.31-5.12,7.6-25.29-2.19-35.22-6-44.28S549.37,334.07,543.22,329.4Z" style="fill:#92E3A9"></path><path d="M549.05,425.11a2.39,2.39,0,0,1-1.48-.45c-.34-.27-32.29-36-31.46-40.68.21-1.18.52-5.46.91-10.86,1-13.22,2.4-33.19,4.42-36.38a21.85,21.85,0,0,1,13.46-9.28c5.51-1.31,8.31,1.23,8.65,1.56,6.41,4.88,9.93,12.44,13.56,21.09,4.16,9.93,6.3,25.72,6,44.49-.23,16.14-3.41,20-6,23.18a16.3,16.3,0,0,0-1.69,2.34c-1.46,2.65-3.57,4.48-5.64,4.91A4.5,4.5,0,0,1,549.05,425.11Zm-11.13-97a12.43,12.43,0,0,0-2.79.34,20.86,20.86,0,0,0-12.84,8.84c-1.89,3-3.38,23.6-4.27,35.92-.41,5.65-.7,9.73-.93,11-.62,3.5,28.73,37.85,31.1,39.71a1.83,1.83,0,0,0,1.44.18c1.39-.29,3.42-1.6,5-4.41a16.57,16.57,0,0,1,1.79-2.49c2.46-3,5.52-6.77,5.75-22.56.27-18.64-1.84-34.29-5.95-44.09-3.58-8.53-7.05-16-13.28-20.7l-.06-.06A7,7,0,0,0,537.92,328.09Z" style="fill:#263238"></path><path d="M540.57,330.43c0-.44-6.87-3.36-11.11-1.61s-5,2.34-7.89,6.58-6.87,17.83-7.45,18.85-3.36,7.31-3.36,7.31L522,370.77l7.89,3.36,12.57-25.87" style="fill:#92E3A9"></path><path d="M529.9,374.63a.43.43,0,0,1-.19,0l-7.9-3.36-.12-.07L510.44,362a.51.51,0,0,1-.14-.59c.11-.26,2.79-6.32,3.38-7.36.15-.25.65-1.76,1.19-3.36,1.56-4.65,4.16-12.44,6.29-15.53,2.94-4.26,3.78-5,8.11-6.75,4-1.65,10,.53,11.38,1.45a.79.79,0,0,1,.42.62.5.5,0,0,1-.5.5.52.52,0,0,1-.44-.26c-.72-.58-6.69-3-10.47-1.39-4.18,1.73-4.83,2.27-7.68,6.4-2,3-4.62,10.68-6.16,15.28a35.65,35.65,0,0,1-1.27,3.54c-.49.85-2.59,5.58-3.18,6.92l10.9,8.92,7.39,3.14L542,348a.5.5,0,0,1,.9.44l-12.57,25.87A.48.48,0,0,1,529.9,374.63Z" style="fill:#263238"></path><path d="M510.76,361.56s-10.53-13.88-11.7-16.08a41.56,41.56,0,0,1-2.33-7.45s3.8-3.36,3.94-5.12,0-7.89.15-9.06,1.31-5-.29-4.24-2.49,3.07-2.49,3.07v1s-1.9-3.8-2.78-6.29a8.8,8.8,0,0,0-3.07-3.95s-2.63-3.06-3.5-2.19.58,2.78.73,3.66.73,3.36.73,3.36a46.63,46.63,0,0,0-2.78-4.53c-.58-.59-1.31-.15-.58,2.34s1.46,5.4,1.46,5.4-2.19-5.26-2.78-3.65-.15,8,.44,10.38a69.46,69.46,0,0,0,3.65,9.35c.59,1,4.24,19.73,6.58,26.89s8.19,13,10.52,14.91,6.58,2.34,8.63.88,6.72-9.5,6.72-9.5Z" style="fill:#fff"></path><path d="M512,381.64a9.28,9.28,0,0,1-5.65-1.86c-.32-.26-7.85-6.44-10.68-15.14-1.39-4.26-3.27-12.67-4.64-18.81-.86-3.89-1.68-7.57-1.9-8a69.68,69.68,0,0,1-3.71-9.48c-.61-2.44-1-8.95-.42-10.67a.84.84,0,0,1,.76-.64h0a1.38,1.38,0,0,1,.92.57l-.39-1.37c-.5-1.69-.43-2.73.19-3.1a1,1,0,0,1,1.22.26,13.18,13.18,0,0,1,1.24,1.84,1.37,1.37,0,0,0,0-.23,4.86,4.86,0,0,0-.36-.93c-.46-1-1.08-2.31-.23-3.16a1,1,0,0,1,.81-.3c1.21,0,2.95,2,3.39,2.47a9.28,9.28,0,0,1,3.21,4.15c.52,1.48,1.41,3.45,2,4.77a6,6,0,0,1,2.54-2.86,1,1,0,0,1,1.12,0c.66.53.44,1.89.05,3.75-.08.39-.15.72-.18,1-.07.56-.07,2.44-.07,4.25s0,3.9-.07,4.8c-.14,1.7-3,4.43-3.89,5.24a38.12,38.12,0,0,0,2.23,7.05c1.1,2.07,10.93,15.07,11.61,16l11.21,9.17a.49.49,0,0,1,.11.64c-.19.33-4.75,8.15-6.86,9.66A6.23,6.23,0,0,1,512,381.64ZM485.9,318.2c-.44,1.8-.09,7.59.49,9.92a71,71,0,0,0,3.61,9.22c.25.45.75,2.62,2,8.27,1.36,6.13,3.23,14.51,4.61,18.72,2.2,6.74,7.74,12.54,10.36,14.67,2.18,1.77,6.15,2.2,8,.86,1.52-1.09,4.92-6.53,6.36-9L510.44,362l-.08-.09c-.43-.57-10.56-13.94-11.74-16.14a41.46,41.46,0,0,1-2.38-7.58.5.5,0,0,1,.15-.48c1.41-1.25,3.69-3.66,3.78-4.79.07-.85.07-2.81.07-4.71s0-3.75.08-4.37c0-.25.11-.62.19-1a9.22,9.22,0,0,0,.32-2.73l-.1,0a5.46,5.46,0,0,0-2.19,2.71v.93a.5.5,0,0,1-1,.22c-.08-.16-1.92-3.86-2.8-6.34a8.37,8.37,0,0,0-2.87-3.7.48.48,0,0,1-.11-.09c-.74-.86-2.11-2.15-2.71-2.18-.42.37,0,1.34.36,2.05a5.24,5.24,0,0,1,.45,1.18c.14.86.72,3.31.72,3.33a.49.49,0,0,1-.3.58.5.5,0,0,1-.62-.22,43.1,43.1,0,0,0-2.69-4.42h0a4,4,0,0,0,.26,1.85c.72,2.47,1.46,5.4,1.46,5.43a.5.5,0,0,1-.32.6.5.5,0,0,1-.62-.28A15.81,15.81,0,0,0,485.9,318.2Z" style="fill:#263238"></path><path d="M494.82,321.72a.48.48,0,0,1-.48-.4,6.31,6.31,0,0,0-.65-1.85,43.84,43.84,0,0,1-2-5.86.51.51,0,0,1,.35-.62.48.48,0,0,1,.61.35,50.19,50.19,0,0,0,1.82,5.54,7.06,7.06,0,0,1,.83,2.24.51.51,0,0,1-.4.59Z" style="fill:#263238"></path><path d="M491.76,322.45a.49.49,0,0,1-.46-.3l-1.61-3.65a.5.5,0,1,1,.92-.4l1.6,3.65a.49.49,0,0,1-.25.66A.51.51,0,0,1,491.76,322.45Z" style="fill:#263238"></path><path d="M488.83,323.91a.5.5,0,0,1-.48-.35l-.58-1.9a.5.5,0,0,1,.33-.62.49.49,0,0,1,.63.33l.58,1.9a.5.5,0,0,1-.33.62A.39.39,0,0,1,488.83,323.91Z" style="fill:#263238"></path><path d="M547.88,424.26s4.61-3.94-5.67-20S517.63,377,510,375.63s-10.28.9-12.74,7.83.67,17.65,2.46,20.33,10.05,2.9,11.17,8.71,9.83,12.52,19.44,14.3C541.28,428.83,547.88,424.26,547.88,424.26Z" style="fill:#263238"></path><path d="M535.92,427.83a30.69,30.69,0,0,1-5.64-.54c-9.57-1.77-18.65-8.51-19.84-14.69-.65-3.37-3.93-4.73-6.84-5.94-1.88-.78-3.5-1.46-4.26-2.59-2-3-5-13.87-2.51-20.78,2.68-7.57,5.79-9.48,13.29-8.15,7.81,1.38,22.11,12.54,32.51,28.83s5.78,20.5,5.58,20.67l-.05,0C547.94,424.83,543.5,427.83,535.92,427.83Zm-29.58-52.07c-4.39,0-6.56,2.19-8.57,7.86-2.47,7,.82,17.51,2.4,19.89.59.88,2.16,1.53,3.82,2.23,3,1.24,6.68,2.78,7.43,6.67,1.1,5.72,10,12.22,19,13.9,10.17,1.89,16.6-2.11,17.1-2.44.28-.29,3.74-4.49-5.77-19.37-10.12-15.84-24.41-27.06-31.84-28.37A20.94,20.94,0,0,0,506.34,375.76Zm41.54,48.5h0Z" style="fill:#263238"></path><path d="M488.14,406.47s-6.26.67-7.82.89-6.93-1.34-9.61,1.34,0,13.19,11,15.42,22.57-3.13,24.58-3.8,5.14-2.68,4.69-6.25-2-4.7-5.81-7.38S491.71,404.91,488.14,406.47Z" style="fill:#fff"></path><path d="M487.31,425.17a29,29,0,0,1-5.75-.56c-6.94-1.41-10.68-6.13-11.86-10.07-.79-2.62-.54-5,.66-6.19,2.14-2.14,5.73-1.8,8.1-1.57a9.56,9.56,0,0,0,1.79.09c1.48-.21,7-.81,7.76-.89,3.67-1.56,13.43-2.5,17.4.31,3.8,2.68,5.54,3.91,6,7.72.45,3.62-2.43,5.92-5,6.79-.23.07-.58.21-1,.39C502.28,422.38,495.12,425.17,487.31,425.17ZM475.7,407.61a6.46,6.46,0,0,0-4.64,1.45c-.9.9-1.07,3-.41,5.19,1.11,3.67,4.6,8.05,11.11,9.38,9.54,1.95,19.49-1.92,23.23-3.37.48-.19.85-.33,1.09-.41.5-.17,4.85-1.74,4.35-5.72-.42-3.37-1.83-4.37-5.6-7s-13.14-1.64-16.49-.17l-.15,0c-.06,0-6.26.67-7.8.89a10,10,0,0,1-2-.08A26.28,26.28,0,0,0,475.7,407.61Zm12.44-1.14h0Z" style="fill:#263238"></path><path d="M470.71,408.7c-2.68,2.69,0,13.19,11,15.42s22.57-3.13,24.58-3.8,5.14-2.68,4.69-6.25c-.39-3.09-1.61-4.35-4.39-6.36-5.63.62-12.53,2.8-15.5,1.66a39.84,39.84,0,0,0-10.72-2C478.75,407.59,473.39,406,470.71,408.7Z" style="fill:#fff"></path><path d="M487.31,425.17a29,29,0,0,1-5.75-.56c-6.94-1.41-10.68-6.13-11.86-10.07-.79-2.62-.54-5,.66-6.19h0c2.14-2.14,5.73-1.8,8.1-1.57a9.56,9.56,0,0,0,1.79.09,38.84,38.84,0,0,1,11,2c1.83.69,5.44,0,9.27-.71,2-.38,4.07-.78,6-1a.54.54,0,0,1,.35.09c2.91,2.12,4.19,3.51,4.59,6.71.45,3.62-2.43,5.92-5,6.79-.23.07-.58.21-1,.39C502.28,422.38,495.12,425.17,487.31,425.17Zm-16.25-16.11c-.9.9-1.07,3-.41,5.19,1.11,3.67,4.6,8.05,11.11,9.38,9.54,1.95,19.49-1.92,23.23-3.37.48-.19.85-.33,1.09-.41.5-.17,4.85-1.74,4.35-5.72-.36-2.91-1.51-4.06-4-5.9-1.84.21-3.82.59-5.73.95-4,.75-7.72,1.46-9.81.66a40,40,0,0,0-10.57-2,10,10,0,0,1-1.93-.08c-2.19-.21-5.5-.53-7.31,1.28Z" style="fill:#263238"></path></g><g id="freepik--character-3--inject-2"><path d="M414.41,367.91S400,359.31,392,363.29s-7.61,12.15-3.12,16.86,7,7.25,7,7.25,5.61,6.39,11.48,6.49,10.91-5.18,9.68-10.75S414.41,367.91,414.41,367.91Z" style="fill:#bababa"></path><path d="M407.51,394.4h-.18c-6-.11-11.61-6.39-11.84-6.66,0,0-2.59-2.56-7-7.23a11.51,11.51,0,0,1-3.19-9.8c.42-2.34,1.88-5.61,6.46-7.86,8.22-4.06,22.34,4.28,22.94,4.64a.53.53,0,0,1,.24.36c0,.1,1.38,9.71,2.6,15.19a8.83,8.83,0,0,1-1.92,7.51A10.51,10.51,0,0,1,407.51,394.4ZM397,362.74a11.05,11.05,0,0,0-4.85,1c-4.2,2.07-5.53,5-5.91,7.15a10.46,10.46,0,0,0,2.93,8.93c4.43,4.66,7,7.21,7,7.23s5.55,6.25,11.13,6.35a9.52,9.52,0,0,0,7.47-3.48,7.84,7.84,0,0,0,1.71-6.66c-1.12-5-2.36-13.5-2.58-15C412.54,367.41,404.06,362.74,397,362.74Z" style="fill:#263238"></path><path d="M435.29,301.82s1.49,7,1.19,8.2-9.86,13.31-11.58,21.07-2.26,32.24-2.26,32.24L423.7,374s11.4,5.52,22.88,7.32,16.55,1.59,18.47,1.24,3.31-2.62,3.13-4.75-2-5.51-2.28-6.46.87-3.79.68-8.46-3.83-30.47-3.83-30.47,1.6-11.38-1.09-18-12-9.42-12-9.42l-1.51-7.56Z" style="fill:#737373"></path><path d="M461.49,383.3a101.39,101.39,0,0,1-15-1.48c-11.42-1.8-22.9-7.32-23-7.37a.53.53,0,0,1-.28-.4l-1.06-10.67c0-1.06.57-24.67,2.28-32.39,1.26-5.71,6.71-13.75,9.64-18.07a34.76,34.76,0,0,0,1.94-3c.19-.79-.64-5.31-1.2-8a.5.5,0,0,1,.33-.58L448,297a.49.49,0,0,1,.41,0,.45.45,0,0,1,.24.33l1.45,7.27c1.64.55,9.51,3.44,12,9.62,2.62,6.48,1.27,17.13,1.13,18.19.25,1.77,3.64,25.87,3.82,30.45a29.8,29.8,0,0,1-.51,6.52,6.59,6.59,0,0,0-.19,1.82c.08.26.31.78.58,1.39a18.55,18.55,0,0,1,1.72,5.16c.2,2.48-1.42,4.9-3.54,5.29A20.74,20.74,0,0,1,461.49,383.3Zm-37.32-9.63c1.74.81,12.14,5.53,22.49,7.16,12.17,1.91,16.86,1.5,18.3,1.23,1.61-.29,2.88-2.26,2.73-4.21A18.68,18.68,0,0,0,466,373a14.4,14.4,0,0,1-.62-1.52,6,6,0,0,1,.16-2.26,28.81,28.81,0,0,0,.5-6.31c-.18-4.6-3.79-30.16-3.82-30.42a.33.33,0,0,1,0-.14c0-.11,1.54-11.32-1.06-17.74s-11.57-9.1-11.66-9.13a.5.5,0,0,1-.35-.38l-1.39-7-11.93,4c.37,1.8,1.38,6.86,1.1,8a20.13,20.13,0,0,1-2.08,3.34c-2.9,4.26-8.28,12.2-9.5,17.72-1.68,7.63-2.25,31.9-2.25,32.14Z" style="fill:#263238"></path><path d="M451.69,306.24c-1.19-.8-2-1.24-2-1.24l-1.51-7.56-12.88,4.38s1.49,7,1.19,8.2c-.12.51-1.92,3-4.08,6.26l.36.29s5.94.84,13.57-5.52A61.48,61.48,0,0,0,451.69,306.24Z" style="fill:#fff"></path><path d="M433.55,317.11a5.68,5.68,0,0,1-.86-.05.51.51,0,0,1-.24-.1l-.36-.28A.51.51,0,0,1,432,316c.76-1.15,1.47-2.2,2.08-3.1a33.64,33.64,0,0,0,1.94-3c.19-.79-.64-5.31-1.2-8a.5.5,0,0,1,.33-.58L448,297a.49.49,0,0,1,.41,0,.45.45,0,0,1,.24.33l1.47,7.34c.32.18,1,.57,1.84,1.15a.51.51,0,0,1,.22.36.55.55,0,0,1-.14.4,59.75,59.75,0,0,1-5.07,4.57l-.33.28C440.53,316.54,435.49,317.11,433.55,317.11Zm-.42-1c1.27.07,6.48-.09,12.88-5.42l.33-.27a60.61,60.61,0,0,0,4.57-4.08c-.88-.56-1.46-.87-1.47-.88a.49.49,0,0,1-.25-.34l-1.39-7-11.93,4c.37,1.8,1.38,6.86,1.1,8a19.07,19.07,0,0,1-2.08,3.33C434.36,314.25,433.76,315.13,433.13,316.09Z" style="fill:#263238"></path><path d="M442.8,330s-1.31,5.58-1.15,7.52,1.57,14.53,1.57,14.53-2.54,0-3,1.22a17.07,17.07,0,0,0-.67,3.77s-9.32,5.65-10.08,5.9-5.49,2.21-5.49,2.21l13.71,12.37s19.71-2.77,21.75-4.11,2-6.62,2-6.62,2.79-4.13,3.09-7.67-.84-27.11-2.35-31.28-1.81-7.87-4.56-8" style="fill:#737373"></path><path d="M437.67,378.05a.46.46,0,0,1-.33-.13l-13.71-12.37a.5.5,0,0,1-.16-.46.48.48,0,0,1,.3-.37c.2-.08,4.75-2,5.52-2.22.54-.19,6.18-3.56,9.76-5.72a15.87,15.87,0,0,1,.68-3.66c.46-1.13,2.06-1.43,2.94-1.51-.27-2.43-1.38-12.3-1.52-14-.16-2,1.11-7.44,1.16-7.67a.5.5,0,0,1,1,.22c0,.06-1.29,5.53-1.14,7.37s1.56,14.39,1.57,14.52a.47.47,0,0,1-.12.38.5.5,0,0,1-.37.17c-.72,0-2.3.23-2.57.91a17.64,17.64,0,0,0-.64,3.62.49.49,0,0,1-.24.39c-1.56.95-9.39,5.69-10.17,5.95-.56.19-3.37,1.33-4.72,1.89L437.83,377c7.89-1.11,19.91-3.07,21.32-4s1.79-4.8,1.78-6.19a.6.6,0,0,1,.08-.29s2.73-4.07,3-7.44-.84-27-2.32-31.06c-.36-1-.64-1.92-.91-2.82-.93-3.05-1.53-4.78-3.21-4.89a.49.49,0,0,1-.47-.53.48.48,0,0,1,.53-.47c2.46.15,3.18,2.56,4.1,5.6.27.89.55,1.81.9,2.77,1.56,4.32,2.68,27.88,2.37,31.49-.27,3.31-2.6,7-3.08,7.78,0,1-.16,5.53-2.23,6.88s-19.93,3.91-22,4.2Z" style="fill:#263238"></path><path d="M454.34,361.84a.52.52,0,0,1-.38-.17,9.24,9.24,0,0,0-3.29-2.26.5.5,0,1,1,.4-.91,10.13,10.13,0,0,1,3.65,2.51.51.51,0,0,1-.06.71A.49.49,0,0,1,454.34,361.84Z" style="fill:#263238"></path><path d="M447.67,358.37h-.13a32.9,32.9,0,0,0-6.09-.94.51.51,0,0,1-.48-.53.49.49,0,0,1,.52-.47,33.58,33.58,0,0,1,6.3,1,.5.5,0,0,1-.12,1Z" style="fill:#263238"></path><path d="M455.31,352.18h-.08c-.06,0-5.5-.89-8.64-.27a.5.5,0,0,1-.59-.39.51.51,0,0,1,.4-.59c3.32-.66,8.76.22,9,.26a.5.5,0,0,1,.41.58A.49.49,0,0,1,455.31,352.18Z" style="fill:#263238"></path><path d="M430.24,271.56a52.11,52.11,0,0,0-2.1,6.07c-.42,1.95-.39,2.77-2.15,3.42s-3.2-.28-3.7,2.06a2.73,2.73,0,0,0,1.91,3.46s-.21,7.7,2.54,13,16.47,4.92,20.76-.89,3.43-21.88,1.11-24.41S434.69,268.84,430.24,271.56Z" style="fill:#fff"></path><path d="M435.78,303.76c-.51,0-1,0-1.47-.06-3.94-.3-6.86-1.74-8-3.93-2.48-4.76-2.61-11.31-2.6-12.87a3.13,3.13,0,0,1-1.9-3.89,2.37,2.37,0,0,1,2.59-2.17,5.41,5.41,0,0,0,1.43-.26c1.31-.48,1.4-.94,1.71-2.46l.12-.59a52.66,52.66,0,0,1,2.13-6.16.45.45,0,0,1,.2-.23c4.8-2.94,16.61.16,19,2.76S452.3,293,447.91,299C445.4,302.33,440.15,303.76,435.78,303.76Zm-5.14-31.85a48.48,48.48,0,0,0-2,5.83l-.12.57c-.32,1.58-.51,2.53-2.35,3.21a6.76,6.76,0,0,1-1.67.32c-1,.09-1.45.13-1.71,1.38-.4,1.86.58,2.45,1.62,2.9a.48.48,0,0,1,.3.47c0,.07-.17,7.63,2.49,12.72,1,1.85,3.66,3.12,7.2,3.4,4.33.33,10.15-.89,12.71-4.36,4.14-5.6,3.32-21.4,1.14-23.77S435,269.44,430.64,271.91Z" style="fill:#263238"></path><path d="M429.08,290.39c-.53,0-.88,0-.93,0a.49.49,0,0,1-.46-.53.48.48,0,0,1,.53-.46s4.06.25,5.82-1.05a.5.5,0,0,1,.59.81C433.14,290.23,430.48,290.39,429.08,290.39Z" style="fill:#263238"></path><path d="M432.57,280.71c-.19.92-.78,1.57-1.32,1.45s-.82-.94-.62-1.86.78-1.56,1.32-1.45S432.77,279.8,432.57,280.71Z" style="fill:#263238"></path><path d="M424.42,268.29s9.06,7.22,12.86,9.45,7.17,4.58,7.17,4.58-2.12,10.95-4.23,20.89.28,21-.77,22.91-4.42,2.16-4.42,2.16,6,5.5,13.21,5.12,13.43-6.89,13.43-6.89l1.08,5.91s6.36,2.55,7.9-5.58.44-3.21-1.39-14.43c-2.22-13.6-1.75-20.71-1.75-20.71s4.25-19.06,1.87-26.08S454,250.74,440.61,253.4A20.89,20.89,0,0,0,424.42,268.29Z" style="fill:#92E3A9"></path><path d="M447.51,333.92c-6.95,0-12.57-5.05-12.82-5.27a.5.5,0,0,1-.13-.53.48.48,0,0,1,.43-.34s3.12-.28,4-1.9c.35-.63.22-3,.06-5.66-.26-4.66-.63-11.05.66-17.11,1.89-8.88,3.8-18.68,4.17-20.56-.87-.6-3.74-2.54-6.87-4.38-3.79-2.22-12.55-9.19-12.92-9.49a.5.5,0,0,1-.18-.5,21.56,21.56,0,0,1,16.59-15.27c14.13-2.8,27,5.7,29.34,12.55,2.39,7.07-1.68,25.56-1.86,26.34h0s-.43,7.16,1.75,20.53a46.69,46.69,0,0,0,1.69,7.45c.63,2,.62,2.29-.3,7.16-.54,2.81-1.69,4.73-3.44,5.68a6.46,6.46,0,0,1-5.14.26.48.48,0,0,1-.3-.37l-.91-5c-1.84,1.7-7.11,6.06-13.09,6.38Zm-11.3-5.33c1.87,1.43,6.63,4.58,12,4.31,6.88-.37,13-6.67,13.1-6.74a.49.49,0,0,1,.5-.13.5.5,0,0,1,.35.39l1,5.62a5.44,5.44,0,0,0,4-.3c1.47-.81,2.45-2.49,2.93-5,.91-4.81.89-4.88.32-6.67a48.9,48.9,0,0,1-1.71-7.59C466.56,299,467,291.73,467,291.66c.06-.26,4.21-19.07,1.9-25.88-2.21-6.52-14.59-14.58-28.2-11.89A20.53,20.53,0,0,0,425,268.1c1.5,1.19,9.17,7.23,12.54,9.21,3.78,2.22,7.18,4.58,7.21,4.6a.5.5,0,0,1,.2.51c0,.11-2.14,11.07-4.23,20.9-1.26,5.93-.9,12.24-.64,16.84.2,3.5.28,5.37-.18,6.2C439.13,327.72,437.38,328.33,436.21,328.59Z" style="fill:#263238"></path><path d="M464.54,323.18a.51.51,0,0,1-.31-.11.5.5,0,0,1-.08-.7s1.06-1.47.14-4.95a.5.5,0,0,1,1-.25c1.07,4-.27,5.75-.33,5.82A.48.48,0,0,1,464.54,323.18Z" style="fill:#263238"></path><path d="M462.87,313.19a.51.51,0,0,1-.44-.27c-3.91-7.26-2.88-20-2.83-20.54a.52.52,0,0,1,.54-.45.5.5,0,0,1,.46.54c0,.12-1.05,13,2.71,20a.5.5,0,0,1-.2.68A.5.5,0,0,1,462.87,313.19Z" style="fill:#263238"></path><path d="M444.45,282.82h-.09a.5.5,0,0,1-.4-.58l2-10.57a.51.51,0,0,1,.59-.4.5.5,0,0,1,.39.59l-2,10.57A.49.49,0,0,1,444.45,282.82Z" style="fill:#263238"></path><path d="M440,270.24a.5.5,0,0,1-.4-.8,19.4,19.4,0,0,1,2.46-2.79.5.5,0,1,1,.67.74,18.66,18.66,0,0,0-2.33,2.65A.51.51,0,0,1,440,270.24Z" style="fill:#263238"></path><path d="M435.93,276.94a.46.46,0,0,1-.23-.06.5.5,0,0,1-.22-.67s1.13-2.26,2.69-4.68a.49.49,0,0,1,.69-.15.5.5,0,0,1,.15.69c-1.53,2.38-2.63,4.57-2.64,4.59A.5.5,0,0,1,435.93,276.94Z" style="fill:#263238"></path><path d="M430.4,268.43a.53.53,0,0,1-.27-.08.5.5,0,0,1-.15-.69c.1-.16,2.53-3.89,5.37-5.39a.51.51,0,0,1,.67.21.5.5,0,0,1-.21.68c-2.6,1.37-5,5-5,5A.51.51,0,0,1,430.4,268.43Z" style="fill:#263238"></path><path d="M455.23,382.25c-4.83-5.62-13.58-14.92-21.43-18.65-11.59-5.51-16.42-7.27-22,3.35s-6,11.79-5.79,14.7,4.55,6.73,7.93,7.43,7.88,2.47,8.29,5.17,5.48,9.72,16.93,11.13,23.35-1.31,26.11-5.84,3.16-11.59,2.2-13.86a6.88,6.88,0,0,0-2.41-3.12l-7.84-.34Z" style="fill:#bababa"></path><path d="M445.26,406.25a51.32,51.32,0,0,1-6.17-.37c-12.12-1.5-17-9-17.36-11.56-.34-2.21-4.22-4-7.91-4.75-3.44-.71-8-4.57-8.31-7.88-.25-3.07.24-4.33,5.84-15,5.79-11,11.14-9.05,22.67-3.57,7.93,3.77,16.77,13.19,21.44,18.6l1.74,0,7.87.34a.4.4,0,0,1,.24.07,7.37,7.37,0,0,1,2.61,3.36c1.05,2.47.57,9.73-2.23,14.31C463.32,403.68,454.67,406.25,445.26,406.25Zm-24.2-46.53c-3.49,0-6,2.13-8.83,7.46-5.64,10.74-6,11.72-5.73,14.43s4.22,6.3,7.53,7c1.35.28,8.12,1.87,8.69,5.58.34,2.27,5.08,9.3,16.49,10.71,11,1.36,23-1.25,25.62-5.6s3-11.36,2.17-13.4a6.85,6.85,0,0,0-2.11-2.83l-7.7-.33-1.95,0a.49.49,0,0,1-.39-.17c-4.57-5.32-13.41-14.8-21.26-18.53C428.06,361.42,424.18,359.72,421.06,359.72Z" style="fill:#263238"></path><path d="M458.94,387.27a.5.5,0,0,1-.39-.2s-1.43-1.86-3.7-4.49a.51.51,0,0,1,.06-.71.49.49,0,0,1,.7.06c2.28,2.65,3.72,4.51,3.73,4.53a.49.49,0,0,1-.09.7A.51.51,0,0,1,458.94,387.27Z" style="fill:#263238"></path><path d="M425.29,391.15a33.3,33.3,0,0,1-8.47-1.08.49.49,0,0,1-.36-.54.51.51,0,0,1,.49-.44c.08,0,8.28-.17,14.21-5.92a.5.5,0,1,1,.7.71,22.91,22.91,0,0,1-11.72,5.85,29.17,29.17,0,0,0,12.13-.5.5.5,0,0,1,.62.34.51.51,0,0,1-.34.62A26.11,26.11,0,0,1,425.29,391.15Z" style="fill:#263238"></path><path d="M422,394.43a11.34,11.34,0,0,0-6.74-4.54c-2.1-.46-5,1.28-7.94,1.72s-6.23-3.07-11.41-4.21a11.34,11.34,0,0,0-12.71,7.09c-.76,2.19.46,4.7,1.88,6.35a16.94,16.94,0,0,0,14.71,5.4c5.83-.7,11.8.3,17.55-1.11C422.35,403.89,425.16,399.19,422,394.43Z" style="fill:#fff"></path><path d="M397.63,406.87a17.1,17.1,0,0,1-13-5.71c-.73-.84-3-3.83-2-6.83A11.89,11.89,0,0,1,396,386.91a25.34,25.34,0,0,1,6.38,2.58c1.87,1,3.48,1.82,4.85,1.62a20.52,20.52,0,0,0,3.37-.91c1.73-.57,3.36-1.1,4.75-.79a11.87,11.87,0,0,1,7,4.74h0a7.13,7.13,0,0,1,1,6.66,8.34,8.34,0,0,1-6,4.81,43,43,0,0,1-10.4.84,58,58,0,0,0-7.21.28A19.74,19.74,0,0,1,397.63,406.87Zm-3.9-19.2a10.93,10.93,0,0,0-10.11,7c-.68,2,.47,4.32,1.79,5.85a16.31,16.31,0,0,0,14.27,5.23,60.11,60.11,0,0,1,7.33-.28,42.35,42.35,0,0,0,10.16-.81,7.36,7.36,0,0,0,5.29-4.2,6.08,6.08,0,0,0-.93-5.74h0a10.84,10.84,0,0,0-6.43-4.33c-1.12-.25-2.62.25-4.21.77a21.76,21.76,0,0,1-3.54,1c-1.7.26-3.44-.66-5.46-1.72a24.22,24.22,0,0,0-6.13-2.49A9.28,9.28,0,0,0,393.73,387.67Z" style="fill:#263238"></path><path d="M406.06,380.92a.48.48,0,0,1-.47-.33s-1.4-4-2.78-7.85c-1.28-3.6-6.09-5.57-6.13-5.59a.5.5,0,0,1-.28-.65.51.51,0,0,1,.65-.27c.21.08,5.27,2.16,6.71,6.17,1.38,3.85,2.77,7.86,2.77,7.86a.51.51,0,0,1-.31.64A.44.44,0,0,1,406.06,380.92Z" style="fill:#263238"></path></g><g id="freepik--character-2--inject-2"><path d="M352,368.47s-11.71,10.46-13.59,11.29S337,381.23,335.3,381s-8.78-1.26-11.5-.42-3.13,1.25-3.55,2.09a24.19,24.19,0,0,1-1.46,2.3l-.21,1.67s20.48.84,24.25.63,6.9-5.23,8.78-12.54S352,368.47,352,368.47Z" style="fill:#fff"></path><path d="M341,387.82c-6.15,0-21.69-.63-22.43-.66a.51.51,0,0,1-.48-.56l.21-1.67a.46.46,0,0,1,.09-.23,23.59,23.59,0,0,0,1.42-2.23c.53-1.05,1.13-1.51,3.86-2.35s8.82,0,11.16.33l.54.07c.82.11.95,0,1.36-.31a7.22,7.22,0,0,1,1.51-.9c1.49-.66,10.22-8.32,13.46-11.21l.05,0a.75.75,0,0,1,.86,0c.35.24,1.06.73-.51,6.82-2,8-5.42,12.71-9.23,12.92C342.43,387.81,341.79,387.82,341,387.82Zm-21.85-1.64c3.28.13,20.31.8,23.66.61s6.41-4.73,8.32-12.17c.93-3.6,1-5,.94-5.5-2.11,1.87-11.63,10.3-13.42,11.1a5.89,5.89,0,0,0-1.31.78,2.25,2.25,0,0,1-2.09.51l-.55-.07c-2.29-.3-8.36-1.1-10.74-.36-2.64.81-2.92,1.17-3.25,1.83a23.5,23.5,0,0,1-1.43,2.27Z" style="fill:#263238"></path><path d="M348.68,380.39s-7.73,3.55-9.41,3.76-23.41-2.09-31.14.84-12.13,8.78-11.71,15.47,6.27,11.08,11.29,13.17,24.67,4.18,33.86,4.18,35.75-2.09,35.75-2.09S361.64,401.29,356,391.05,348.68,380.39,348.68,380.39Z" style="fill:#92E3A9"></path><path d="M341.57,418.31c-9,0-28.83-2-34.05-4.22-2.59-1.08-11.08-5.25-11.6-13.6-.44-7,4.06-12.95,12-16,6-2.29,20.46-1.44,27.38-1,2,.12,3.54.2,3.88.17,1.31-.17,7.13-2.74,9.26-3.72a.47.47,0,0,1,.33,0c.32.07,2.16,1,7.64,10.9s21.06,24.4,21.22,24.54a.48.48,0,0,1,.13.53.5.5,0,0,1-.43.34C377.09,416.24,350.69,418.31,341.57,418.31ZM321.79,384c-5.29,0-10.49.33-13.49,1.47-7.53,2.85-11.79,8.45-11.38,15,.48,7.78,8.53,11.71,11,12.74,4.71,2,24.09,4.14,33.67,4.14,8,0,29.42-1.61,34.58-2-3.33-3.15-15.72-15.18-20.59-24-4.48-8.12-6.4-10-6.91-10.34-1.47.67-7.73,3.5-9.31,3.7-.42.05-1.61,0-4.06-.16C331.93,384.29,326.82,384,321.79,384Z" style="fill:#263238"></path><path d="M391.12,321.23a40.88,40.88,0,0,1,6.06,16.51c1.05,9.2,2.72,26.76,5.23,33.87s5.22,13.8,3.76,19.23-5.85,13.38-17.56,20.49-22.79,3.76-26.34,1.46-11.08-15.68-14.22-24.46-.83-11.7.63-13.58,5.65-14.85,7.11-24.25,4.81-21.33,11.71-24.25S385.89,320,391.12,321.23Z" style="fill:#263238"></path><path d="M373.77,416.14A23.13,23.13,0,0,1,362,413.21c-3.75-2.42-11.3-16-14.42-24.71-3.22-9-.77-12.17.7-14.05,1.28-1.65,5.51-14.34,7-24,1.22-7.81,4.4-21.4,12-24.63,6.28-2.67,18.33-6.38,23.93-5.05a.54.54,0,0,1,.3.21,41.63,41.63,0,0,1,6.15,16.74c.13,1.17.27,2.48.43,3.89,1,9.45,2.6,23.72,4.77,29.86l.66,1.86c2.31,6.46,4.49,12.56,3.11,17.67-1.46,5.45-5.74,13.48-17.78,20.79A28.85,28.85,0,0,1,373.77,416.14Zm14.63-94.68c-5.44,0-14.17,2.47-20.71,5.25-7.17,3-10.22,16.25-11.41,23.86-1.46,9.43-5.68,22.52-7.2,24.48s-3.59,4.61-.56,13.12c3.29,9.2,10.76,22.09,14,24.2,2.94,1.9,14,5.71,25.81-1.47,12.38-7.51,16.17-15.87,17.34-20.19,1.29-4.81-.84-10.77-3.09-17.08l-.67-1.85c-2.2-6.26-3.78-20.6-4.82-30.09-.15-1.41-.29-2.72-.43-3.89a40.54,40.54,0,0,0-5.87-16.13A12.43,12.43,0,0,0,388.4,321.46Z" style="fill:#263238"></path><path d="M383.5,365.88a59.14,59.14,0,0,0,15.15-15.13c-.59-4.85-1.07-9.53-1.47-13-.12-1-.29-2-.49-3C391.8,340.64,384.3,348.64,378,351c-7,2.55-16.42,0-21.91-2-.09.52-.17,1-.25,1.54a119.6,119.6,0,0,1-4.25,17.14C359.66,372.49,371.26,374.31,383.5,365.88Z" style="fill:#fff"></path><path d="M365.91,372.21a28.32,28.32,0,0,1-14.62-4.14.51.51,0,0,1-.22-.59,120.19,120.19,0,0,0,4.22-17.06c.08-.51.17-1,.26-1.55a.5.5,0,0,1,.24-.34.48.48,0,0,1,.42,0c5.09,1.84,14.66,4.54,21.57,2,6.16-2.26,13.47-10,18.52-16.07a.52.52,0,0,1,.51-.16.48.48,0,0,1,.37.38c.22,1.09.39,2.08.5,3,.13,1.17.27,2.48.43,3.89.3,2.76.65,5.9,1,9.11a.48.48,0,0,1-.08.35,59.55,59.55,0,0,1-15.28,15.25h0A31.44,31.44,0,0,1,365.91,372.21Zm-13.77-4.8c5.89,3.42,17.46,7.44,31.08-2h0a58.27,58.27,0,0,0,14.91-14.84c-.38-3.15-.72-6.22-1-8.93-.15-1.41-.29-2.72-.43-3.89-.07-.62-.16-1.25-.28-1.92-5.09,6-12.18,13.32-18.28,15.56-7,2.55-16.35.06-21.68-1.81-.06.32-.11.63-.16.94A118.28,118.28,0,0,1,352.14,367.41Zm31.36-1.53h0Z" style="fill:#263238"></path><path d="M406.23,384c-.69-3.84-2.29-8-3.82-12.37-.06-.16-.11-.35-.17-.52a39.59,39.59,0,0,1-27.75,13.51c-14.11.76-22.33-3.93-26.89-8.3a9.7,9.7,0,0,0-1,6.29c3.82,6.31,9.46,14,15.74,17.26,11.44,5.89,22.88,1.39,35-7.28A43.23,43.23,0,0,0,406.23,384Z" style="fill:#fff"></path><path d="M373.09,403a23.58,23.58,0,0,1-11-2.7c-6.46-3.32-12.23-11.32-15.94-17.45a.44.44,0,0,1-.07-.19,10.23,10.23,0,0,1,1.06-6.6.48.48,0,0,1,.36-.24.5.5,0,0,1,.42.13c4.31,4.14,12.42,8.93,26.51,8.16a39.29,39.29,0,0,0,27.41-13.35.51.51,0,0,1,.85.18l.07.23c0,.1.06.2.09.28l.64,1.82a68.46,68.46,0,0,1,3.2,10.63.49.49,0,0,1-.09.39,43.81,43.81,0,0,1-9,8.7C390.71,397.94,382.16,403,373.09,403Zm-26-20.57c3.64,6,9.27,13.78,15.49,17,9.79,5,20.43,2.8,34.5-7.25a42.76,42.76,0,0,0,8.62-8.32,70.15,70.15,0,0,0-3.12-10.24l-.55-1.55a40.17,40.17,0,0,1-27.52,13.05c-13.93.76-22.2-3.82-26.77-8A9.61,9.61,0,0,0,347.09,382.42Z" style="fill:#263238"></path><path d="M357.25,289.25a3.5,3.5,0,0,1-2.51,3.34c-2.51.63-3.13,0-3.55,2.09s2.3,4.6,2.3,4.6-4.6,4,0,13.59,12.33,10,12.33,10l1.68,3.35,24-2.3,2.5-9.41s-5.64-1.88-17.35-10.24-15.88-16.52-15.88-16.52A3.68,3.68,0,0,0,357.25,289.25Z" style="fill:#fff"></path><path d="M367.5,326.75a.5.5,0,0,1-.45-.28l-1.55-3.1c-1.51-.18-8.24-1.46-12.46-10.29-4-8.29-1.31-12.55-.25-13.79-.77-.81-2.46-2.85-2.09-4.71s1-2,2.36-2.18c.41-.06.93-.14,1.56-.29a3,3,0,0,0,2.13-2.87.46.46,0,0,1,.09-.27,4.16,4.16,0,0,1,4.06-1.68.52.52,0,0,1,.35.26c0,.08,4.28,8.16,15.73,16.34s17.17,10.16,17.22,10.18a.5.5,0,0,1,.33.6L392,324.08a.53.53,0,0,1-.44.37l-24,2.3Zm-9.75-37.34a3.93,3.93,0,0,1-2.89,3.67,14.66,14.66,0,0,1-1.66.31c-1.16.17-1.28.19-1.52,1.39-.3,1.48,1.45,3.49,2.15,4.13a.55.55,0,0,1,.16.38.52.52,0,0,1-.17.37c-.18.15-4.24,3.88.12,13s11.84,9.75,11.91,9.75a.5.5,0,0,1,.42.28l1.52,3,23.35-2.24,2.3-8.63c-1.54-.6-7.09-3-17-10.15-10.7-7.64-15.12-15-15.91-16.45A3.09,3.09,0,0,0,357.75,289.41Z" style="fill:#263238"></path><path d="M366.45,297.82s0,2.51.21,4.39,2.09,4.6,2.09,4.6a12.21,12.21,0,0,0,3.34,2.09c2.3,1,5.44,1.46,5.86,2.92s-1.05,4-2.72,6.9-1.88,5.65,5.85,5.65,10.66,1,12.76-2.72a17.12,17.12,0,0,0,2.29-6.06s-3.13,1-14.63-9.83-14.63-15.05-14.63-15.05Z" style="fill:#263238"></path><path d="M387.7,325c-.76,0-1.61,0-2.54-.06-1.19,0-2.54-.07-4.08-.07-3.92,0-6.13-.67-7-2.09s0-3.13.68-4.31l.11-.2c1.5-2.61,2.91-5.08,2.56-6.31-.22-.74-1.74-1.25-3.2-1.73a23.25,23.25,0,0,1-2.38-.88,12.51,12.51,0,0,1-3.49-2.19c-.14-.19-2-2.91-2.24-4.9s-.21-4.34-.21-4.44v0l.42-7.11a.49.49,0,0,1,.35-.45.51.51,0,0,1,.55.18s3.26,4.29,14.57,15c10.88,10.28,14.13,9.71,14.16,9.7a.49.49,0,0,1,.63.53,17.6,17.6,0,0,1-2.36,6.26C392.8,324.54,390.93,325,387.7,325Zm-18.54-18.48a12.85,12.85,0,0,0,3.14,1.92,22.78,22.78,0,0,0,2.28.84c1.79.59,3.49,1.15,3.85,2.41.47,1.63-.91,4-2.65,7.08l-.12.2c-.87,1.54-1.09,2.59-.67,3.31.61,1.05,2.66,1.59,6.09,1.59,1.55,0,2.91,0,4.11.07,4.73.15,6.68.21,8.21-2.53a20.07,20.07,0,0,0,2.14-5.32c-1.53-.17-5.55-1.62-14.38-10A191.46,191.46,0,0,1,367.29,292l-.34,5.81c0,.21,0,2.56.21,4.32s1.94,4.28,2,4.37Z" style="fill:#263238"></path><path d="M369,276.29s-12.75-5.86-16.1-4.81-4.6,8.57-.42,15.47,14,10.87,14,10.87Z" style="fill:#bababa"></path><path d="M366.45,298.32a.65.65,0,0,1-.19,0c-.4-.16-10-4.11-14.24-11.07-3.21-5.29-3.12-10.41-2.07-13.18a4.7,4.7,0,0,1,2.76-3c3.43-1.07,15.13,4.22,16.46,4.83a.52.52,0,0,1,.29.51L367,297.87a.52.52,0,0,1-.24.38A.59.59,0,0,1,366.45,298.32Zm-12.57-26.47a3.15,3.15,0,0,0-.87.1,3.76,3.76,0,0,0-2.13,2.43c-1,2.77-.83,7.65,2,12.31,3.45,5.69,11,9.41,13.16,10.4l2.39-20.5C365,275.06,357.19,271.85,353.88,271.85Z" style="fill:#263238"></path><path d="M369,276.29s-4.18,10.24-3.76,17.55,13.37,18.19,16.93,20.7a27.28,27.28,0,0,0,11.91,4c2.09,0,2.72-.83,3.77-1.88s9-6.27,11.08-12.75-1.68-19.65-9.62-26.34-15-10.87-21.74-7.94S369,276.29,369,276.29Z" style="fill:#bababa"></path><path d="M394,319a27.82,27.82,0,0,1-12.2-4.06c-3.3-2.33-16.7-13.39-17.14-21.08-.42-7.34,3.62-17.35,3.8-17.77,0,0,0,0,0,0,.08-.16,2-4,8.82-6.92,7.37-3.22,15.05,1.95,22.26,8,8,6.76,11.92,20.23,9.77,26.87-1.77,5.49-7.62,10.1-10.12,12.07-.51.4-.92.72-1.08.88l-.25.26A4.64,4.64,0,0,1,394,319ZM369.41,276.5c-.21.52-4.11,10.36-3.72,17.32.39,6.76,12.4,17.26,16.73,20.31A27,27,0,0,0,394,318a3.66,3.66,0,0,0,3.15-1.47l.26-.26c.21-.21.61-.53,1.17-1,2.43-1.91,8.11-6.39,9.79-11.58,2-6.36-1.71-19.28-9.46-25.81-7-5.86-14.35-10.87-21.22-7.87C371.52,272.77,369.55,276.24,369.41,276.5Z" style="fill:#263238"></path><path d="M370,310.15s6.48-3.34,9-1.46.42,5.64-2.92,7.94-6.9-2.51-6.9-2.51" style="fill:#fff"></path><path d="M374.15,317.75c-2.25,0-4.38-2-5.38-3.33a.5.5,0,1,1,.8-.6c0,.05,3.31,4.4,6.21,2.4,2.25-1.55,3.79-3.68,3.82-5.31a2.12,2.12,0,0,0-.91-1.82c-1.85-1.39-6.73.62-8.46,1.5a.5.5,0,0,1-.67-.21.49.49,0,0,1,.21-.67c.7-.36,6.84-3.43,9.52-1.42a3.1,3.1,0,0,1,1.31,2.64c0,2-1.71,4.37-4.25,6.11A3.8,3.8,0,0,1,374.15,317.75Z" style="fill:#263238"></path><path d="M353.49,299.78a.5.5,0,0,1-.33-.12.51.51,0,0,1-.05-.71l3.14-3.55a.51.51,0,0,1,.71,0,.51.51,0,0,1,0,.71l-3.14,3.55A.48.48,0,0,1,353.49,299.78Z" style="fill:#263238"></path><path d="M380.25,331.68s-7.53-8.57-11.92-7.94-8.78,6.06-10,12.33,1.25,73,1.25,77.35.21,8.15.63,8.78,2.51,2.09,5.85,2.09,7.74-.42,7.74-.42,6.9.84,7.94.42,1.25-4.6-4.18-7.11a45.7,45.7,0,0,0-10.66-3.34s8.78-32.2,11.91-49.13,2.09-28.85,2.09-28.85" style="fill:#263238"></path><path d="M380.42,424.9c-2.14,0-5.68-.41-6.66-.52-.52,0-4.6.41-7.73.41-3.57,0-5.76-1.56-6.27-2.31-.62-.93-.71-6.08-.71-9.06,0-1-.14-5.53-.33-11.77-.66-21.25-1.88-60.82-.91-65.68,1.29-6.48,5.89-12.07,10.45-12.73s12.05,7.75,12.36,8.11a.5.5,0,1,1-.75.66c-2-2.33-8.11-8.25-11.47-7.78-4.17.6-8.39,5.84-9.61,11.94-1,4.75.32,45.75.93,65.45.19,6.25.33,10.76.33,11.8,0,5.6.33,8.15.55,8.5s2.27,1.87,5.43,1.87,7.65-.41,7.69-.42h.11c3.33.4,7.11.68,7.7.45.06,0,.25-.3.27-.88,0-1.48-1.12-3.76-4.48-5.31a45.9,45.9,0,0,0-10.53-3.31.49.49,0,0,1-.34-.22.48.48,0,0,1-.06-.4c.08-.33,8.81-32.37,11.9-49.09s2.1-28.59,2.09-28.71a.49.49,0,0,1,.45-.54.48.48,0,0,1,.54.45c0,.12,1,12.18-2.09,29-2.89,15.58-10.64,44.4-11.79,48.64a47.42,47.42,0,0,1,10.25,3.29c3.8,1.75,5.11,4.38,5.06,6.25a1.81,1.81,0,0,1-.9,1.77A4.73,4.73,0,0,1,380.42,424.9Z" style="fill:#263238"></path><path d="M373.77,423.87s6.9.84,7.94.42,1.25-4.6-4.18-7.11a45.7,45.7,0,0,0-10.66-3.34s6.25-22.92,10.08-40.25l-18.57-1.2c.47,19,1.17,38.71,1.17,41,0,4.39.21,8.15.63,8.78s2.51,2.09,5.85,2.09S373.77,423.87,373.77,423.87Z" style="fill:#fff"></path><path d="M380.42,424.9c-2.14,0-5.68-.41-6.66-.52-.52,0-4.6.41-7.73.41-3.57,0-5.76-1.56-6.27-2.31-.62-.93-.71-6.08-.71-9.06,0-1-.14-5.53-.33-11.78-.25-7.88-.58-18.67-.84-29.24A.46.46,0,0,1,358,372a.45.45,0,0,1,.38-.14l18.58,1.2a.51.51,0,0,1,.37.2.52.52,0,0,1,.08.41c-3.47,15.7-9,36.22-9.95,39.74a47.42,47.42,0,0,1,10.25,3.29c3.8,1.75,5.11,4.38,5.06,6.25a1.81,1.81,0,0,1-.9,1.77A4.73,4.73,0,0,1,380.42,424.9Zm-6.65-1.53h.06c3.33.4,7.12.68,7.7.45.06,0,.25-.3.27-.88,0-1.48-1.12-3.76-4.48-5.31a45.47,45.47,0,0,0-10.53-3.31.49.49,0,0,1-.34-.22.48.48,0,0,1-.06-.4c.06-.23,6.15-22.61,9.95-39.66l-17.45-1.13c.26,10.39.59,20.95.83,28.69.19,6.26.33,10.77.33,11.81,0,5.6.33,8.15.55,8.5s2.27,1.87,5.43,1.87,7.65-.41,7.69-.42Z" style="fill:#263238"></path><path d="M373.77,424.37a.5.5,0,0,1-.5-.5.5.5,0,0,1,.5-.5,2.34,2.34,0,0,0,.53-.05,5.58,5.58,0,0,0-1.39-1.3l-6.21-2.28a.49.49,0,0,1-.3-.64.5.5,0,0,1,.64-.3l6.27,2.3.11.06c.82.56,2.14,1.63,1.87,2.5C375.07,424.37,374.09,424.37,373.77,424.37Z" style="fill:#263238"></path></g><g id="freepik--character-1--inject-2"><rect x="86.03" y="332.19" width="195.97" height="68.36" style="fill:#737373"></rect><path d="M282,401.05H86a.5.5,0,0,1-.5-.5V332.19a.5.5,0,0,1,.5-.5H282a.51.51,0,0,1,.5.5v68.36A.5.5,0,0,1,282,401.05Zm-195.47-1h195V332.69h-195Z" style="fill:#263238"></path><rect x="134.65" y="332.19" width="147.35" height="68.36" style="fill:#bababa"></rect><path d="M282,401.05H134.65a.5.5,0,0,1-.5-.5V332.19a.5.5,0,0,1,.5-.5H282a.51.51,0,0,1,.5.5v68.36A.5.5,0,0,1,282,401.05Zm-146.85-1H281.5V332.69H135.15Z" style="fill:#263238"></path><path d="M199.2,192.38S210.26,203,211.74,212.3s5.9,40.58,9.34,51.16a146,146,0,0,0,8.86,20.65l-22.87,3.2s-.49-13.28-3.45-33.69-6.14-57.06-6.14-57.06Z" style="fill:#fff"></path><path d="M207.07,287.81a.51.51,0,0,1-.5-.48c0-.13-.53-13.49-3.44-33.64S197,197,197,196.61a.5.5,0,0,1,0-.24l1.72-4.18a.54.54,0,0,1,.36-.3.52.52,0,0,1,.45.13c.46.44,11.21,10.8,12.69,20.21.22,1.38.51,3.25.84,5.46,2,12.8,5.57,36.64,8.49,45.61a145.45,145.45,0,0,0,8.82,20.58.51.51,0,0,1-.37.73l-22.87,3.2ZM198,196.64c.21,2.35,3.31,37.33,6.14,56.91,2.59,17.9,3.29,30.47,3.42,33.19l21.63-3a146.56,146.56,0,0,1-8.56-20.11c-3-9.05-6.58-32.94-8.53-45.77-.33-2.21-.62-4.07-.83-5.46-1.25-7.91-9.68-16.89-11.87-19.11Z" style="fill:#263238"></path><path d="M118.48,280.63l-.84,10.53s3.79,4.64,18.12,5.06,36.22-2.32,39.8-3.16a25.93,25.93,0,0,1,4.64-.84s-10.95-1.9-26.12-4.85-26.75-6.32-28.86-6.53S118.48,280.63,118.48,280.63Z" style="fill:#fff"></path><path d="M139,296.76c-1.1,0-2.18,0-3.22,0-14.38-.43-18.32-5-18.48-5.24a.48.48,0,0,1-.12-.36l.85-10.53a.49.49,0,0,1,.49-.46c.19,0,4.69,0,6.79.22.85.08,3,.62,6.34,1.44,5.27,1.3,13.23,3.28,22.57,5.09,15,2.91,26,4.82,26.1,4.84a.5.5,0,0,1-.08,1,26.82,26.82,0,0,0-4.52.82C172.52,294.29,153.43,296.76,139,296.76ZM118.16,291c.77.75,5.14,4.37,17.61,4.74,14.6.43,36.31-2.35,39.68-3.15.65-.15,1.22-.28,1.72-.38-4.25-.76-12.76-2.3-23.19-4.33-9.36-1.82-17.33-3.79-22.61-5.1-3.15-.78-5.42-1.34-6.2-1.42-1.66-.17-5-.2-6.22-.21Z" style="fill:#263238"></path><path d="M160.21,184.83S141,190.89,137.06,193s-10.33,12.46-10.87,22.26-4.09,49.87-5.87,54.86-4.81,13-2,15.32,24,8.19,48.09,7.83,41.67-7.3,42.39-7.66,1.6-15.31-2-37.58-2.85-33.3-3.21-43.81-2.85-10.87-9.62-14.43a73.92,73.92,0,0,0-15.14-5.52S165.91,182.87,160.21,184.83Z" style="fill:#263238"></path><path d="M164.36,293.82c-22.77,0-43.21-5.44-46.32-8s-.35-9.84,1.58-15.25l.22-.62c1.75-4.88,5.3-44.58,5.85-54.72.55-9.93,7-20.43,11.13-22.67,3.9-2.13,22.36-8,23.24-8.23,5.74-2,18.37-.62,18.91-.56a75.16,75.16,0,0,1,15.32,5.58l1.58.82c5.63,2.89,8,4.09,8.3,14,.07,2.18.1,4.37.13,6.68A227.62,227.62,0,0,0,207.37,248c3.28,20.48,3,37.43,1.69,38.11-.15.08-18,7.35-42.61,7.71Zm5.07-109.52a30.89,30.89,0,0,0-9.05,1h0c-.19.06-19.23,6.07-23.06,8.16s-10.09,12.4-10.61,21.85c-.55,10.16-4.13,50-5.9,55l-.23.62c-1.62,4.54-4.35,12.14-1.89,14.14s23.51,8.09,47.77,7.72c23.39-.34,40.54-6.94,42.06-7.56.59-1.58,1.26-16-2.12-37.1a228.51,228.51,0,0,1-3.08-37.21c0-2.32-.05-4.5-.13-6.67-.32-9.35-2.19-10.31-7.76-13.17l-1.59-.83a73.9,73.9,0,0,0-15-5.47S174.25,184.3,169.43,184.3Zm-9.22.53h0Z" style="fill:#263238"></path><path d="M178.2,217.07c8.91,6.24,11.94,7.13,11.94,7.13s3-10.16,3.38-18.53A106.52,106.52,0,0,0,192.43,189a77.61,77.61,0,0,0-13.52-4.71s-13-1.43-18.7.53c0,0-3.49,1.1-7.79,2.53a52.31,52.31,0,0,1,9.4,9.41C167.69,204.25,169.3,210.84,178.2,217.07Z" style="fill:#fff"></path><path d="M190.13,224.7l-.14,0c-.12,0-3.21-1-12.07-7.2h0c-6-4.23-8.78-8.63-11.68-13.3a75.15,75.15,0,0,0-4.82-7.1,51.45,51.45,0,0,0-9.3-9.32.51.51,0,0,1,.14-.88c4.31-1.42,7.8-2.52,7.8-2.52,5.73-2,18.37-.62,18.91-.56a78.53,78.53,0,0,1,13.67,4.76.5.5,0,0,1,.28.39,107.43,107.43,0,0,1,1.1,16.74c-.36,8.34-3.38,18.55-3.41,18.65A.49.49,0,0,1,190.13,224.7Zm-36.66-37.16a53.65,53.65,0,0,1,8.74,8.92,75.88,75.88,0,0,1,4.88,7.2c2.84,4.57,5.52,8.89,11.4,13h0c6.8,4.76,10.16,6.39,11.31,6.87.62-2.17,2.92-10.73,3.22-17.88a105.24,105.24,0,0,0-1.05-16.3,76.63,76.63,0,0,0-13.17-4.56c-.07,0-12.9-1.38-18.42.52C160.36,185.31,157.35,186.26,153.47,187.54Z" style="fill:#263238"></path><path d="M186.57,227.22l9.8-3s.89-11.94.89-14.61-.89-6.05,0-8,1.78-.36,2.14.89,2,9.44,2,9.44.35-9.8.71-12.65.71-5.52,2-5.52,1.6,1.42,2,2.85.17,9.08.17,9.62.18,1.78.18,1.78,1.78-7.84,1.78-11.4,1.25-6.23,2.5-5.7,1.07,1.78,1.07,3.74.89,12.47.89,12.47,2-7.13,2.31-9.09,1.43-4.45,2.14-3.91,1.07,2.31.89,5.16-1.78,12.65-1.78,13.18a21.54,21.54,0,0,0,.89,3s2.85-.36,4.1-1.78,3.2-4.28,4.09-3.56,1.61,2.13,0,4.63a44.07,44.07,0,0,0-4.09,8.19c-.89,2.49-3.39,3.74-6.42,4.63a28.91,28.91,0,0,1-5,1.07,9.21,9.21,0,0,1-4.81,2.31c-3.39.72-21.55,13.18-21.55,13.18Z" style="fill:#bababa"></path><path d="M183.37,244.64a.48.48,0,0,1-.28-.08.49.49,0,0,1-.21-.51l3.2-16.92a.5.5,0,0,1,.35-.38l9.47-2.93c.14-2,.86-11.86.86-14.23a27.55,27.55,0,0,0-.2-2.78c-.2-2-.41-4,.24-5.44.39-.84.85-1.24,1.41-1.21,1,.07,1.49,1.54,1.67,2.17s.69,3.12,1.15,5.37c.14-3,.34-6.87.54-8.5.39-3.07.75-6,2.46-6s2.06,1.71,2.44,3.23a50.6,50.6,0,0,1,.23,7.29,47.4,47.4,0,0,0,.92-7.17c0-2.85.77-5.27,1.9-6a1.35,1.35,0,0,1,1.3-.14c1.4.6,1.39,1.91,1.37,3.55v.65c0,1.28.39,6.32.65,9.58.59-2.22,1.35-5.15,1.56-6.29.27-1.46,1.07-3.93,2.1-4.33a.81.81,0,0,1,.83.11c1.14.85,1.22,3.51,1.09,5.59-.12,1.84-.8,6.43-1.3,9.77-.24,1.64-.47,3.18-.48,3.39a16.74,16.74,0,0,0,.72,2.46,6.52,6.52,0,0,0,3.39-1.55l.79-1c1.42-1.75,2.89-3.56,4-2.68.69.56,2.1,2.19.1,5.3a43,43,0,0,0-4,8.09c-1,2.93-4.16,4.18-6.74,4.94a31.61,31.61,0,0,1-4.9,1.07,10.25,10.25,0,0,1-4.94,2.32c-2.6.55-15.12,8.81-21.37,13.11A.48.48,0,0,1,183.37,244.64Zm3.64-17-2.93,15.44c3.9-2.65,17.72-11.94,20.74-12.57a8.91,8.91,0,0,0,4.54-2.17.49.49,0,0,1,.32-.16,28.87,28.87,0,0,0,4.89-1.05c3.56-1,5.38-2.34,6.09-4.32a44.22,44.22,0,0,1,4.14-8.29c1.13-1.76,1.17-3.13.11-4-.46-.13-1.95,1.73-2.59,2.52l-.82,1c-1.35,1.55-4.28,1.93-4.41,1.94a.49.49,0,0,1-.53-.32,18.22,18.22,0,0,1-.92-3.2c0-.21.13-1.08.49-3.53.47-3.14,1.18-7.88,1.29-9.68.18-2.82-.19-4.25-.62-4.67a7.93,7.93,0,0,0-1.42,3.54c-.35,2-2.24,8.84-2.32,9.13a.52.52,0,0,1-.53.37.51.51,0,0,1-.45-.46c0-.43-.89-10.55-.89-12.51V194c0-1.62,0-2.29-.77-2.62a.32.32,0,0,0-.35.05c-.7.47-1.45,2.44-1.45,5.19,0,3.58-1.72,11.19-1.79,11.51a.51.51,0,0,1-.51.39.49.49,0,0,1-.47-.43c0-.05-.18-1.29-.18-1.85v-.55c.08-5.16,0-8.17-.17-8.95-.38-1.54-.67-2.47-1.47-2.47s-1.21,3.06-1.47,5.08c-.34,2.8-.7,12.51-.7,12.6a.51.51,0,0,1-.46.49.5.5,0,0,1-.53-.41c0-.08-1.61-8.18-2-9.4-.28-.95-.65-1.41-.78-1.44s-.18.07-.43.62c-.53,1.19-.34,3.09-.15,4.93.1,1,.2,2,.2,2.88,0,2.66-.86,14.16-.89,14.64a.51.51,0,0,1-.35.44Z" style="fill:#263238"></path><path d="M196.37,224.2s1.25,3.56,4.1,4.09" style="fill:#fff"></path><path d="M200.47,228.79h-.1c-3.09-.58-4.42-4.26-4.47-4.42a.5.5,0,0,1,.94-.33s1.19,3.3,3.72,3.77a.5.5,0,0,1-.09,1Z" style="fill:#263238"></path><path d="M143.65,194.81s-6.59-2-10.69,2-6.77,11-7.12,21.55-2,29.74-1.78,36.33,2.31,7.84,3.91,7.84,40.08-4.63,48.81-4.81,10.33-1.42,10.33-1.42l-.54-29-28.85,4.46s2-18.53-1.43-26.36S143.65,194.81,143.65,194.81Z" style="fill:#fff"></path><path d="M128,263c-1.91,0-4.23-1.44-4.41-8.32-.11-3.88.41-12.25.91-20.34.35-5.74.72-11.68.87-16,.34-10.1,2.86-17.67,7.28-21.89,4.25-4.07,10.87-2.17,11.17-2.08s9.53,2.84,13,10.79c3.08,7.13,1.85,22.57,1.53,26l28.22-4.35a.5.5,0,0,1,.39.11.46.46,0,0,1,.18.37l.54,29a.51.51,0,0,1-.2.4c-.17.14-2,1.35-10.62,1.53-5.9.12-25.2,2.26-38,3.67C132.05,262.6,128.49,263,128,263Zm11.88-68.16a9.29,9.29,0,0,0-6.54,2.3c-4.23,4-6.64,11.37-7,21.21-.15,4.36-.52,10.3-.87,16-.5,8.07-1,16.41-.91,20.25.12,4.74,1.34,7.35,3.41,7.35.49,0,5-.5,10.74-1.13,12.79-1.42,32.12-3.56,38.06-3.68,6.76-.14,9.17-.93,9.83-1.22l-.52-28.15-28.28,4.36a.52.52,0,0,1-.43-.13.53.53,0,0,1-.15-.42c0-.18,1.91-18.48-1.38-26.11s-12.24-10.2-12.33-10.22h0A14.62,14.62,0,0,0,139.85,194.83Z" style="fill:#263238"></path><path d="M137.41,235.2a.48.48,0,0,1-.45-.29.49.49,0,0,1,.25-.66c6.25-2.86,19.92-3.07,20.5-3.07a.47.47,0,0,1,.51.49.51.51,0,0,1-.49.51c-.14,0-14,.21-20.11,3A.52.52,0,0,1,137.41,235.2Z" style="fill:#263238"></path><path d="M255.81,371s-1.89,10.11-2.31,11.16,1.89,6.32,7.79,11.59,18.32,7.37,20.43,8.84,1.47,2.74.84,4.43S271,410.8,263,411.22s-25.27-3.79-28.85-4-5.48-1.27-5.48-4.43,6.11-21.27,6.74-23,1.69-13.9,1.69-13.9Z" style="fill:#263238"></path><path d="M261.77,411.75c-5.55,0-14.16-1.63-20.58-2.84-3.33-.63-5.95-1.13-7.1-1.19-2.94-.18-6-.9-6-4.93,0-3.27,6.13-21.42,6.77-23.13.5-1.33,1.37-10.39,1.66-13.77a.51.51,0,0,1,.63-.44l18.74,5.06a.5.5,0,0,1,.36.57c-.19,1-1.91,10.19-2.34,11.26-.24.64,1.58,5.59,7.66,11,3.88,3.46,10.82,5.58,15.42,7a23.43,23.43,0,0,1,5,1.81c2.31,1.62,1.7,3.21,1.12,4.75l-.1.26c-.86,2.3-13.68,4.21-20,4.54Q262.42,411.75,261.77,411.75Zm-24.26-45.18c-.22,2.51-1.09,11.91-1.66,13.44s-6.71,19.7-6.71,22.78c0,2.65,1.36,3.71,5,3.93,1.21.07,3.87.57,7.23,1.21,6.86,1.29,16.26,3.07,21.57,2.79,8.71-.46,18.69-2.67,19.14-3.89l.11-.27c.58-1.54.91-2.39-.77-3.57a25.16,25.16,0,0,0-4.68-1.68c-4.68-1.43-11.75-3.59-15.79-7.2-5.67-5.05-8.52-10.66-7.93-12.14.29-.71,1.44-6.57,2.21-10.62Z" style="fill:#263238"></path><path d="M262.76,279s10.53-.64,15.17,2.1,8.21,9.48,8,19.8-14.95,58.35-16.22,64-1.89,10.32-1.89,10.32l-16-1.47-14.74-1.48,16-94.15Z" style="fill:#92E3A9"></path><path d="M267.82,375.7h-.05l-16-1.47L237,372.75a.48.48,0,0,1-.35-.19.54.54,0,0,1-.1-.39l16-94.15a.52.52,0,0,1,.54-.41l9.65.84c.8-.05,10.79-.56,15.41,2.17,5.36,3.17,8.45,10.74,8.25,20.24-.15,7.63-8.12,35.45-12.87,52.08-1.69,5.89-3,10.55-3.36,12.05-1.24,5.6-1.88,10.23-1.89,10.28A.49.49,0,0,1,267.82,375.7Zm-30.17-3.89,14.21,1.42,15.53,1.43c.2-1.33.81-5.28,1.84-9.89.34-1.53,1.61-6,3.36-12.11,4.75-16.58,12.69-44.32,12.84-51.82.19-9.14-2.71-16.38-7.76-19.36-4.44-2.62-14.77-2-14.88-2h-.07l-9.23-.8Z" style="fill:#263238"></path><path d="M224,372.89s-5.27,32.85-5.06,33.49,8.22,2.94,24.44,4.84,29.27-.63,31-2.11,3.16-4.84,2.31-5.89-11.16-3-16-6.11-12.22-8-13.9-10.74a28.4,28.4,0,0,1-2.32-4.43l1.26-7.58Z" style="fill:#bababa"></path><path d="M254.94,412.39a101,101,0,0,1-11.61-.67c-13.27-1.55-24.42-3.88-24.85-5.19-.21-.61,2.62-18.68,5-33.72a.51.51,0,0,1,.53-.42l21.7,1.47a.48.48,0,0,1,.35.19.5.5,0,0,1,.11.39L245,381.89a30.77,30.77,0,0,0,2.22,4.21c1.67,2.71,9.53,7.83,13.75,10.59,2.82,1.84,7.64,3.27,11.17,4.32,3,.91,4.53,1.37,5,1.89,1.12,1.42-.69,5.11-2.38,6.59C273.17,410.81,265.24,412.39,254.94,412.39Zm-35.49-6.23c1.16.7,9.05,2.82,24,4.56,16.39,1.92,29.14-.72,30.58-2,1.63-1.43,2.82-4.51,2.25-5.21a23,23,0,0,0-4.46-1.56c-3.58-1.07-8.49-2.53-11.43-4.44-5.93-3.88-12.41-8.23-14-10.9a29.78,29.78,0,0,1-2.36-4.51.46.46,0,0,1,0-.26l1.17-7-20.69-1.4C222.44,385.84,219.59,404.09,219.45,406.16Zm0,.15h0Zm-.1-.22Z" style="fill:#263238"></path><path d="M260.66,397.11c-4.85-3.16-12.22-8-13.9-10.74a28.4,28.4,0,0,1-2.32-4.43s-3.16.63-3.79,2.53a15.62,15.62,0,0,0-.63,4.21,83.91,83.91,0,0,1-10.32-1.26,77.48,77.48,0,0,1-7.6-2.47c-1.49,9.45-3.27,21.05-3.15,21.43.21.63,8.22,2.94,24.44,4.84s29.27-.63,31-2.11,3.16-4.84,2.31-5.89S265.5,400.27,260.66,397.11Z" style="fill:#fff"></path><path d="M254.94,412.39a101,101,0,0,1-11.61-.67c-13.27-1.55-24.42-3.88-24.85-5.19-.08-.22-.19-.56,3.12-21.66a.49.49,0,0,1,.24-.35.5.5,0,0,1,.43,0,78,78,0,0,0,7.54,2.45,78.24,78.24,0,0,0,9.72,1.22,15.26,15.26,0,0,1,.64-3.84c.72-2.14,4-2.83,4.17-2.86a.51.51,0,0,1,.57.32,28.39,28.39,0,0,0,2.27,4.33c1.67,2.71,9.53,7.83,13.75,10.59h0c2.82,1.84,7.64,3.27,11.17,4.32,3,.91,4.53,1.37,5,1.89,1.12,1.42-.69,5.11-2.38,6.59C273.17,410.81,265.24,412.39,254.94,412.39Zm-35.49-6.23c1.16.7,9.05,2.82,24,4.56,16.39,1.92,29.14-.72,30.58-2,1.63-1.43,2.82-4.51,2.25-5.21a23,23,0,0,0-4.46-1.56c-3.58-1.07-8.49-2.53-11.43-4.44-5.93-3.88-12.41-8.23-14-10.9a33.19,33.19,0,0,1-2.19-4.1c-1,.27-2.64,1-3,2.1a15,15,0,0,0-.6,4.05.5.5,0,0,1-.54.5,83.54,83.54,0,0,1-10.4-1.27,74.27,74.27,0,0,1-7.08-2.28C220,401.77,219.51,405.41,219.45,406.16Zm-.1-.07Z" style="fill:#263238"></path><path d="M256.44,408.9c-13.33-.69-31.07-5.23-37-6.82-.36,2.5-.57,4.16-.53,4.3.21.63,8.22,2.94,24.44,4.84s29.27-.63,31-2.11a8,8,0,0,0,1.52-1.94A65.11,65.11,0,0,1,256.44,408.9Z" style="fill:#fff"></path><path d="M254.94,412.39a101,101,0,0,1-11.61-.67c-13.27-1.55-24.42-3.88-24.85-5.19-.06-.16-.1-.3.5-4.52a.47.47,0,0,1,.22-.34.5.5,0,0,1,.41-.07c5.25,1.42,23.43,6.11,36.86,6.8h0a64.43,64.43,0,0,0,19.28-1.72.5.5,0,0,1,.55.74,8.51,8.51,0,0,1-1.62,2.07C273.17,410.81,265.24,412.38,254.94,412.39Zm-35.49-6.23c1.16.7,9.05,2.82,24,4.56,16.39,1.92,29.14-.72,30.58-2a6.15,6.15,0,0,0,.72-.78,67,67,0,0,1-18.32,1.44c-13.1-.68-30.63-5.11-36.53-6.69C219.57,405,219.48,405.85,219.45,406.16Z" style="fill:#263238"></path><path d="M240.26,322.1s-17,9.25-25.91,9.87H166.51l75.6-18.2Z" style="fill:#92E3A9"></path><path d="M166.51,332.47a.5.5,0,0,1-.5-.45.49.49,0,0,1,.38-.54L242,313.29a.49.49,0,0,1,.6.59l-1.85,8.33a.51.51,0,0,1-.24.33c-.7.38-17.16,9.31-26.11,9.92Zm4.21-1h43.63c8.19-.57,23.54-8.67,25.47-9.7l1.62-7.32Zm69.54-9.37h0Z" style="fill:#263238"></path><path d="M120.17,292.64s-3.37,12.42,3,22.74,24,17.28,43.39,16.64,49.92-6.74,51.18-7.58,9.69-4.21,9.69-4.21l-5.27,55.6s13.48,3.59,21.28,1.06A203.19,203.19,0,0,1,263.82,372s-.42-16.21-.42-32.64,5.26-43.81,3.58-55-21.28-10.53-31.18-9.69-39.74,10.08-54.55,14.33-20,5.26-20,5.26S132.39,297.27,120.17,292.64Z" style="fill:#92E3A9"></path><path d="M236.42,378.3a64.15,64.15,0,0,1-14.44-2,.51.51,0,0,1-.37-.53L226.8,321c-2.71,1.09-7.93,3.25-8.83,3.86-1.36.9-31.64,7-51.45,7.66-19.32.63-37.36-6.31-43.83-16.87-6.36-10.39-3-23-3-23.14a.5.5,0,0,1,.25-.32.53.53,0,0,1,.41,0c12,4.54,40.55,1.68,40.84,1.66,0,0,5.32-1.07,19.92-5.25,2.72-.78,5.93-1.73,9.44-2.76,15.65-4.6,37.08-10.89,45.21-11.58,19.5-1.66,30.46,1.83,31.71,10.11.95,6.31-.27,17.51-1.56,29.37-1,9.08-2,18.48-2,25.68,0,16.23.41,32.47.42,32.63a.52.52,0,0,1-.41.51,204.41,204.41,0,0,0-20.37,4.82A23.33,23.33,0,0,1,236.42,378.3Zm-13.77-2.84c2.31.56,13.77,3.16,20.58,1a199.54,199.54,0,0,1,20.08-4.78c-.07-2.67-.41-17.45-.41-32.23,0-7.26,1-16.68,2-25.79,1.28-11.79,2.5-22.93,1.56-29.11-1.16-7.67-11.75-10.88-30.63-9.27-8,.69-29.41,7-45,11.55-3.51,1-6.73,2-9.44,2.76-14.66,4.2-20,5.26-20,5.27-1.21.13-28.36,2.84-40.81-1.51-.54,2.46-2.39,13,3,21.82,6.3,10.28,24,17,43,16.4s49.37-6.61,50.93-7.5c1.28-.85,9.43-4.12,9.77-4.25a.48.48,0,0,1,.49.06.51.51,0,0,1,.2.45Z" style="fill:#263238"></path><path d="M227.38,320.73h0a.5.5,0,0,1-.47-.5l-.21-26.11a.5.5,0,0,1,.49-.51h0a.5.5,0,0,1,.5.5l.15,18.82,2.85-22a.5.5,0,0,1,1,.13l-3.8,29.27A.5.5,0,0,1,227.38,320.73Z" style="fill:#263238"></path><path d="M230.54,370.86a.5.5,0,0,1-.16-1c.06,0,5.32-1.79,15.2-10.84s15.17-31.74,15.22-32a.5.5,0,1,1,1,.22c-.22.95-5.42,23.22-15.53,32.48s-15.34,11-15.56,11.06A.4.4,0,0,1,230.54,370.86Z" style="fill:#263238"></path><path d="M161.1,131.76s-7.66,13.36-10.15,25.29,3,20.13,11.22,23.33,11.22,3.39,11.22,3.39-5.34-14.08,2-20.13,21.73-16.39,21.73-16.39l4.1-2.49s7.3,7.66,8.55,16a44.22,44.22,0,0,1-.54,15.49s6.06-1.42,7.66-6.94,3-11,2.14-14.25-1.78-5.7-1.78-5.7,3.92-2.67,3.56-5.88-8.55-9.26-13-16S186,117,176.24,120.18,161.1,131.76,161.1,131.76Z" style="fill:#263238"></path><path d="M173.39,184.27h0c-.12,0-3.2-.22-11.37-3.41-7.38-2.89-14.29-10.69-11.53-23.9,2.48-11.88,10.13-25.31,10.21-25.44v0a31.37,31.37,0,0,1,15.41-11.79c10.23-3.35,27.63.72,32.1,7.51a64.37,64.37,0,0,0,7.41,8.69c3.05,3.17,5.46,5.67,5.67,7.56.32,2.94-2.5,5.37-3.47,6.11.28.81,1,2.89,1.67,5.39.94,3.37-.54,9-2.14,14.52-1.66,5.73-7.76,7.23-8,7.29a.5.5,0,0,1-.6-.61,43.94,43.94,0,0,0,.52-15.3c-1.07-7.21-6.82-14-8.14-15.46l-3.75,2.28c-.11.08-14.46,10.37-21.67,16.34-6.94,5.76-1.86,19.43-1.81,19.57a.49.49,0,0,1-.06.47A.52.52,0,0,1,173.39,184.27ZM161.53,132c-.26.45-7.67,13.56-10.09,25.13-2.63,12.61,3.91,20,10.91,22.77a57.81,57.81,0,0,0,10.3,3.23c-1-3.11-4.18-14.45,2.38-19.9,7.24-6,21.62-16.3,21.76-16.4l4.13-2.52a.5.5,0,0,1,.62.08c.3.32,7.43,7.87,8.68,16.31a45.8,45.8,0,0,1-.36,14.83c1.63-.59,5.35-2.34,6.51-6.35,1.49-5.13,3-10.86,2.14-14s-1.76-5.64-1.77-5.66a.49.49,0,0,1,.19-.58s3.66-2.55,3.34-5.41c-.17-1.55-2.59-4.07-5.39-7a65.53,65.53,0,0,1-7.53-8.83c-4.18-6.36-21.25-10.28-30.95-7.11C167,123.72,161.74,131.7,161.53,132Z" style="fill:#263238"></path><path d="M170.71,170.38a4.56,4.56,0,0,1-1.41-.51c-2-1.07-3.39-5.7-1.78-11.57s7.65,0,7.65,0,3.39-5.35,12.12-10a41.84,41.84,0,0,0,13.18-10.69l12.64,13a29.17,29.17,0,0,0-.35,8.9c.53,5.17,1.6,10.69-.72,15.32s-5.16,7.48-6.94,9.8-5.35,2.67-8.55,2.49a7.32,7.32,0,0,1-4.63-1.6,22.41,22.41,0,0,0-1.61,7.83c0,4.1.18,13.36-.53,17.46a32.19,32.19,0,0,1-1.6,6.23s-10.16-2-15.68-13.36a88,88,0,0,0-12.29-18.88l8.91-5a9.7,9.7,0,0,0,.71-3.21c.18-2.14.53-5,.53-5Z" style="fill:#bababa"></path><path d="M188.18,217.57h-.1a24.91,24.91,0,0,1-16-13.63,88.36,88.36,0,0,0-12.21-18.76.49.49,0,0,1-.12-.42.48.48,0,0,1,.25-.35l8.76-4.91a10.28,10.28,0,0,0,.6-2.89c.18-2.12.54-5,.54-5l.22-.85a5.11,5.11,0,0,1-1-.43c-2.29-1.24-3.67-6.13-2-12.15a3.64,3.64,0,0,1,2.37-2.87c2.1-.57,4.67,1.38,5.69,2.25,1-1.43,4.64-5.77,12-9.66a41.56,41.56,0,0,0,13-10.54.49.49,0,0,1,.37-.2.44.44,0,0,1,.39.15l12.65,13a.49.49,0,0,1,.13.46,28.91,28.91,0,0,0-.35,8.74c.07.67.15,1.35.23,2,.54,4.62,1.09,9.4-1,13.56a40.85,40.85,0,0,1-5.59,8.15c-.51.62-1,1.19-1.41,1.73-1.58,2.06-4.51,2.94-9,2.69a8.84,8.84,0,0,1-4.38-1.3,22,22,0,0,0-1.33,7c0,.61,0,1.33,0,2.13,0,4.73.07,11.88-.55,15.41a32.78,32.78,0,0,1-1.63,6.34A.51.51,0,0,1,188.18,217.57ZM161,185a90.77,90.77,0,0,1,12,18.53,24.14,24.14,0,0,0,14.91,13,35.52,35.52,0,0,0,1.43-5.73c.6-3.44.56-10.54.53-15.23,0-.81,0-1.53,0-2.14a22.65,22.65,0,0,1,1.65-8,.49.49,0,0,1,.36-.29.49.49,0,0,1,.45.13,7,7,0,0,0,4.3,1.46c4.05.22,6.78-.55,8.13-2.3.42-.55.91-1.13,1.43-1.76a40,40,0,0,0,5.47-8c1.94-3.9,1.41-8.53.89-13-.08-.69-.16-1.37-.23-2a30.33,30.33,0,0,1,.31-8.8l-12.06-12.4a43,43,0,0,1-13,10.37c-8.51,4.52-11.89,9.75-11.92,9.8a.51.51,0,0,1-.37.23.46.46,0,0,1-.4-.14c-.86-.82-3.45-2.86-5.16-2.4-.78.21-1.34.95-1.67,2.18-1.58,5.77-.12,10.1,1.54,11a4.44,4.44,0,0,0,1.26.46.48.48,0,0,1,.33.22.51.51,0,0,1,.06.4l-.34,1.27h0s-.35,2.81-.52,4.9a10.4,10.4,0,0,1-.76,3.39.53.53,0,0,1-.21.21Z" style="fill:#263238"></path><path d="M171.59,171a5,5,0,0,1-1-.09.48.48,0,0,1-.39-.58.5.5,0,0,1,.58-.4,4.09,4.09,0,0,0,2-.13l2.94-.56a.5.5,0,0,1,.59.4.51.51,0,0,1-.4.59l-2.85.53A4.24,4.24,0,0,1,171.59,171Z" style="fill:#263238"></path><path d="M191.92,185.55s-7.13-4.1-8.38-6.77.36,4.63,1.79,6.59,5.16,3.92,5.16,3.92Z" style="fill:#263238"></path><path d="M190.49,189.79a.46.46,0,0,1-.23-.06c-.16-.08-3.86-2-5.34-4.07-1.09-1.49-2.66-6.87-2.24-7.66a.55.55,0,0,1,.5-.3c.39,0,.59.38.82.87,1,2.07,6.22,5.43,8.17,6.54a.5.5,0,0,1,.21.61L191,189.46a.49.49,0,0,1-.29.29A.39.39,0,0,1,190.49,189.79Zm-6.58-9.6a18,18,0,0,0,1.82,4.88,16.39,16.39,0,0,0,4.5,3.5l1.07-2.81C190,185,185.86,182.45,183.91,180.19Z" style="fill:#263238"></path><path d="M202,171.75a7.4,7.4,0,0,1-2.26-.34.5.5,0,0,1,.32-.94c.16.05,3.78,1.26,5.85-1.6a.5.5,0,0,1,.7-.12.51.51,0,0,1,.11.7A5.58,5.58,0,0,1,202,171.75Z" style="fill:#263238"></path><path d="M201.49,176.81a14.68,14.68,0,0,1-9.74-3.37.5.5,0,0,1,0-.71.51.51,0,0,1,.71,0,14.09,14.09,0,0,0,10,3.07.48.48,0,0,1,.52.47.49.49,0,0,1-.47.52C202.13,176.8,201.8,176.81,201.49,176.81Z" style="fill:#263238"></path><path d="M189.6,156.66a.42.42,0,0,1-.24-.07.49.49,0,0,1-.2-.67c.08-.15,2-3.52,7.68-2.21a.49.49,0,0,1,.37.6.5.5,0,0,1-.6.38c-4.88-1.14-6.51,1.6-6.57,1.71A.51.51,0,0,1,189.6,156.66Z" style="fill:#263238"></path><path d="M211.51,155.77a.52.52,0,0,1-.37-.16,4.26,4.26,0,0,0-4.44-1.12.5.5,0,1,1-.35-.94,5.24,5.24,0,0,1,5.53,1.38.5.5,0,0,1,0,.7A.51.51,0,0,1,211.51,155.77Z" style="fill:#263238"></path><path d="M196.73,161.07a1.51,1.51,0,1,1-1.46-1.88A1.72,1.72,0,0,1,196.73,161.07Z" style="fill:#263238"></path><path d="M209.73,160.79a1.51,1.51,0,1,1-1.46-1.88A1.71,1.71,0,0,1,209.73,160.79Z" style="fill:#263238"></path></g></svg>