<svg xmlns="http://www.w3.org/2000/svg" viewBox="0 0 500 500"><g id="freepik--background-complete--inject-1"><rect x="416.78" y="398.49" width="33.12" height="0.25" style="fill:#ebebeb"></rect><rect x="322.53" y="401.21" width="8.69" height="0.25" style="fill:#ebebeb"></rect><rect x="396.59" y="389.21" width="19.19" height="0.25" style="fill:#ebebeb"></rect><rect x="52.46" y="390.89" width="43.19" height="0.25" style="fill:#ebebeb"></rect><rect x="104.56" y="390.89" width="6.33" height="0.25" style="fill:#ebebeb"></rect><rect x="131.47" y="395.11" width="93.68" height="0.25" style="fill:#ebebeb"></rect><path d="M238.4,337.8H45.3a5.71,5.71,0,0,1-5.71-5.71V60.66A5.71,5.71,0,0,1,45.3,55H238.4a5.71,5.71,0,0,1,5.71,5.71V332.09A5.71,5.71,0,0,1,238.4,337.8ZM45.3,55.2a5.47,5.47,0,0,0-5.46,5.46V332.09a5.47,5.47,0,0,0,5.46,5.46H238.4a5.47,5.47,0,0,0,5.46-5.46V60.66a5.47,5.47,0,0,0-5.46-5.46Z" style="fill:#ebebeb"></path><path d="M454.7,337.8H261.6a5.71,5.71,0,0,1-5.71-5.71V60.66A5.71,5.71,0,0,1,261.6,55H454.7a5.71,5.71,0,0,1,5.71,5.71V332.09A5.71,5.71,0,0,1,454.7,337.8ZM261.6,55.2a5.47,5.47,0,0,0-5.46,5.46V332.09a5.47,5.47,0,0,0,5.46,5.46H454.7a5.47,5.47,0,0,0,5.46-5.46V60.66a5.47,5.47,0,0,0-5.46-5.46Z" style="fill:#ebebeb"></path><rect y="382.4" width="500" height="0.25" style="fill:#ebebeb"></rect><path d="M200.49,264.34H79.89v-93l1.23-1.18a84.8,84.8,0,0,1,59.07-23.73h0a84.86,84.86,0,0,1,59.08,23.73l1.22,1.18Zm-112.6-8h104.6V174.76a77.37,77.37,0,0,0-104.6,0Z" style="fill:#e6e6e6"></path><polygon points="194.01 210.19 194.01 204.19 143.19 204.19 143.19 153.37 137.19 153.37 137.19 204.19 86.38 204.19 86.38 210.19 137.19 210.19 137.19 257.34 143.19 257.34 143.19 210.19 194.01 210.19" style="fill:#f5f5f5"></polygon><path d="M204.49,268.34H75.89V169.69l1.18-1.17a89.37,89.37,0,0,1,126.25,0l1.17,1.17Zm-120.6-8h112.6V173a81.37,81.37,0,0,0-112.6,0Z" style="fill:#f5f5f5"></path><rect x="391.71" y="152.05" width="52.12" height="230.49" transform="translate(835.55 534.58) rotate(180)" style="fill:#e6e6e6"></rect><rect x="279.78" y="152.05" width="127.31" height="230.49" transform="translate(686.88 534.59) rotate(-180)" style="fill:#f5f5f5"></rect><rect x="286.78" y="159.25" width="42.41" height="216.07" transform="translate(615.98 534.58) rotate(180)" style="fill:#ebebeb"></rect><rect x="336.45" y="159.25" width="62.2" height="216.07" transform="translate(735.1 534.58) rotate(180)" style="fill:#ebebeb"></rect><rect x="290.64" y="228.88" width="38.56" height="11.26" style="fill:#f5f5f5"></rect><rect x="343.96" y="228.88" width="54.69" height="11.26" style="fill:#f5f5f5"></rect><rect x="290.64" y="296.12" width="38.56" height="11.26" style="fill:#f5f5f5"></rect><rect x="343.96" y="296.12" width="54.69" height="11.26" style="fill:#f5f5f5"></rect><rect x="357.55" y="313.67" width="5.95" height="61.66" style="fill:#e0e0e0"></rect><rect x="363.5" y="319" width="5.95" height="56.33" style="fill:#e0e0e0"></rect><rect x="351.61" y="319" width="5.95" height="56.33" style="fill:#fafafa"></rect><rect x="387.4" y="319" width="4.62" height="56.33" style="fill:#e0e0e0"></rect><rect x="392.02" y="314.65" width="6.64" height="60.68" style="fill:#f0f0f0"></rect><rect x="369.45" y="319" width="8.97" height="56.33" style="fill:#f5f5f5"></rect><rect x="378.42" y="315.47" width="8.97" height="59.86" style="fill:#e6e6e6"></rect><rect x="393.02" y="245.04" width="5.95" height="51.44" transform="translate(791.99 541.52) rotate(180)" style="fill:#e0e0e0"></rect><rect x="387.08" y="249.49" width="5.95" height="46.99" transform="translate(780.1 545.97) rotate(180)" style="fill:#e6e6e6"></rect><rect x="364.51" y="249.49" width="4.62" height="46.99" transform="translate(733.64 545.97) rotate(180)" style="fill:#e0e0e0"></rect><rect x="357.87" y="245.86" width="6.64" height="50.62" transform="translate(722.38 542.34) rotate(180)" style="fill:#f0f0f0"></rect><rect x="351.26" y="245.86" width="6.64" height="50.62" transform="translate(709.16 542.34) rotate(180)" style="fill:#f5f5f5"></rect><rect x="378.1" y="249.49" width="8.97" height="46.99" transform="translate(765.18 545.97) rotate(180)" style="fill:#f5f5f5"></rect><rect x="369.13" y="246.54" width="8.97" height="49.94" transform="translate(747.23 543.02) rotate(180)" style="fill:#e6e6e6"></rect><rect x="357.55" y="186.44" width="5.95" height="42.44" style="fill:#fafafa"></rect><rect x="363.5" y="181.89" width="5.95" height="46.99" style="fill:#e0e0e0"></rect><rect x="351.61" y="181.89" width="5.95" height="46.99" style="fill:#e0e0e0"></rect><rect x="387.4" y="181.89" width="4.62" height="46.99" style="fill:#e0e0e0"></rect><rect x="392.02" y="190.35" width="6.64" height="38.54" style="fill:#e0e0e0"></rect><rect x="369.45" y="181.89" width="8.97" height="46.99" style="fill:#f5f5f5"></rect><rect x="378.42" y="178.95" width="8.97" height="49.94" style="fill:#e6e6e6"></rect><polygon points="328.12 230.45 310.5 193.53 292.87 230.45 328.12 230.45" style="fill:#e0e0e0"></polygon><polygon points="292.87 230.45 310.5 193.53 310.5 230.45 292.87 230.45" style="fill:#f5f5f5"></polygon><circle cx="309.39" cy="275.28" r="10.01" style="fill:#fafafa"></circle><path d="M299.43,274.42c0,.25,0,.51,0,.76-2,.3-3.28.69-3.28,1.12,0,.92,5.71,1.66,12.75,1.66s12.76-.74,12.76-1.66c0-.35-.82-.67-2.22-.94v-.08c0-.26,0-.51,0-.76,4.07.41,6.7,1.05,6.7,1.78,0,1.24-7.7,2.25-17.21,2.25s-17.21-1-17.21-2.25C291.65,275.51,294.75,274.82,299.43,274.42Z" style="fill:#e0e0e0"></path><path d="M311.56,257.74a5.61,5.61,0,1,0,2.31-7.59A5.61,5.61,0,0,0,311.56,257.74Z" style="fill:#fafafa"></path><path d="M311.36,257.3a3.39,3.39,0,0,0,.18.39c-.93.69-1.44,1.21-1.33,1.42.24.45,3.26-.68,6.75-2.54s6.1-3.74,5.86-4.2c-.09-.17-.58-.11-1.35.13,0,0,0,0,0-.05l-.22-.36c2.12-.87,3.59-1.25,3.78-.89.33.61-3.21,3.14-7.91,5.65s-8.77,4-9.1,3.43C307.8,259.9,309.15,258.74,311.36,257.3Z" style="fill:#e0e0e0"></path><path d="M296.06,248.75l-.53,1.07a1.24,1.24,0,0,1-.93.68l-1.19.17a1.25,1.25,0,0,0-.69,2.12l.86.84a1.24,1.24,0,0,1,.36,1.1l-.2,1.18a1.24,1.24,0,0,0,1.8,1.31l1.06-.56a1.25,1.25,0,0,1,1.16,0l1.06.56a1.24,1.24,0,0,0,1.8-1.31l-.2-1.18a1.21,1.21,0,0,1,.36-1.1l.85-.84a1.24,1.24,0,0,0-.69-2.12l-1.18-.17a1.23,1.23,0,0,1-.94-.68l-.53-1.07A1.24,1.24,0,0,0,296.06,248.75Z" style="fill:#fafafa"></path><path d="M321.59,263.39l-.25.51a.6.6,0,0,1-.45.32l-.56.08a.59.59,0,0,0-.33,1l.41.39a.61.61,0,0,1,.17.53l-.1.55a.6.6,0,0,0,.86.63l.5-.27a.59.59,0,0,1,.55,0l.5.27a.6.6,0,0,0,.86-.63l-.09-.55a.6.6,0,0,1,.16-.53l.41-.39a.59.59,0,0,0-.33-1l-.56-.08a.59.59,0,0,1-.44-.32l-.25-.51A.59.59,0,0,0,321.59,263.39Z" style="fill:#fafafa"></path><rect x="301.54" y="329.31" width="23.39" height="5.1" transform="translate(626.46 663.73) rotate(180)" style="fill:#e6e6e6"></rect><rect x="290.25" y="329.31" width="11.69" height="5.1" transform="translate(592.2 663.73) rotate(180)" style="fill:#fafafa"></rect><rect x="302.71" y="334.41" width="19.52" height="40.91" transform="translate(624.94 709.74) rotate(180)" style="fill:#e0e0e0"></rect><rect x="292.95" y="334.41" width="9.35" height="40.91" transform="translate(595.25 709.74) rotate(180)" style="fill:#f5f5f5"></rect><path d="M358.33,100.21A378.74,378.74,0,0,1,250,84.27c-62.22,18.58-116.08,17.58-150.32,13.47-33.5-4-55.28-11.73-59.4-13.27a.74.74,0,0,1-.43-1h0a.74.74,0,0,1,.95-.43c4,1.51,25.7,9.2,59.11,13.2,34.12,4.09,87.8,5.07,149.82-13.48l.44,0,.1,0c62,18.56,115.75,17.57,149.87,13.48,33.4-4,55-11.69,59.06-13.2a.74.74,0,0,1,.95.43h0a.74.74,0,0,1-.43,1c-4.12,1.54-25.9,9.25-59.4,13.27A352.66,352.66,0,0,1,358.33,100.21Z" style="fill:#e0e0e0"></path><path d="M66.33,91.5l4.34,28.83L90.09,95.7S79.33,100.33,66.33,91.5Z" style="fill:#f0f0f0"></path><path d="M320.76,98.59l9.45,27.16,12.34-25.19S333.49,106.61,320.76,98.59Z" style="fill:#f0f0f0"></path><path d="M194.86,96.35s12.1,5.72,26.07-5.29l3.95,32.85-14.1-5.24-11.15,6.7Z" style="fill:#f5f5f5"></path><path d="M194.86,96.35l4.77,29,11.15-6.7-2.62-21.39A22.56,22.56,0,0,1,194.86,96.35Z" style="fill:#ebebeb"></path><path d="M284.68,92.65,287.8,99a1.93,1.93,0,0,0,1.47,1.07l7,1a2,2,0,0,1,1.09,3.34l-5.05,4.92a2,2,0,0,0-.56,1.73l1.19,6.94a2,2,0,0,1-2.84,2.06l-6.24-3.28a1.93,1.93,0,0,0-1.81,0L275.78,120a2,2,0,0,1-2.84-2.06l1.19-6.94a2,2,0,0,0-.56-1.73l-5.05-4.92a2,2,0,0,1,1.09-3.34l7-1A1.93,1.93,0,0,0,278.05,99l3.12-6.32A2,2,0,0,1,284.68,92.65Z" style="fill:#f5f5f5"></path><polygon points="382.91 99.38 377 116.95 392.02 131.67 398.65 111.53 382.91 99.38" style="fill:#f5f5f5"></polygon><circle cx="138.75" cy="112.65" r="13.15" transform="translate(-39.02 131.11) rotate(-45)" style="fill:#f0f0f0"></circle><path d="M125.66,111.53c0,.33,0,.66,0,1-2.68.39-4.32.9-4.32,1.47,0,1.21,7.51,2.19,16.76,2.19s16.77-1,16.77-2.19c0-.46-1.08-.89-2.92-1.24,0,0,0-.07,0-.11,0-.33,0-.66,0-1,5.35.54,8.81,1.38,8.81,2.34,0,1.63-10.13,3-22.62,3s-22.61-1.32-22.61-3C115.44,113,119.51,112.05,125.66,111.53Z" style="fill:#e0e0e0"></path><path d="M421.92,104.49a10.88,10.88,0,1,0,7.85-13.24A10.88,10.88,0,0,0,421.92,104.49Z" style="fill:#f0f0f0"></path><path d="M421.73,103.57c0,.27.1.55.17.82-2.07.86-3.28,1.6-3.17,2,.25,1,6.47.23,13.9-1.67s13.24-4.22,13-5.19c-.09-.36-1-.48-2.59-.39,0,0,0-.06,0-.09-.07-.27-.15-.53-.24-.79,4.4-.66,7.35-.69,7.54.07.34,1.31-7.51,4.45-17.53,7S414.38,109,414,107.64C413.83,106.81,416.91,105.25,421.73,103.57Z" style="fill:#e0e0e0"></path></g><g id="freepik--Shadow--inject-1"><ellipse id="freepik--path--inject-1" cx="250" cy="415.69" rx="193.89" ry="11.32" style="fill:#f5f5f5"></ellipse></g><g id="freepik--Chair--inject-1"><path d="M402.71,367.1v47.6h2.63V390.88c0-8.35,4.42-15.13,9.86-15.13s9.87,6.78,9.87,15.13V414.7h2.63V367.1Z" style="fill:#263238"></path><path d="M364.37,367.1v47.6h4V390.88a15.14,15.14,0,0,1,30.27,0h0V414.7h4V367.1Z" style="fill:#263238"></path><polygon points="424.39 367.1 387.02 367.1 394.03 328.6 429.06 328.6 424.39 367.1" style="fill:#407BFF"></polygon><path d="M364.37,367.1v47.6H367V390.88c0-8.35,4.42-15.13,9.87-15.13s9.86,6.78,9.86,15.13V414.7h2.63V367.1Z" style="fill:#407BFF"></path><path d="M427.7,328.6l-7,38.5H389.36v47.6h4V390.88a15.14,15.14,0,0,1,30.27,0h0V414.7h4V367.1l4.67-38.5Z" style="fill:#407BFF"></path><polygon points="424.39 367.1 387.02 367.1 394.03 328.6 429.06 328.6 424.39 367.1" style="fill:#fff;isolation:isolate;opacity:0.2"></polygon><path d="M364.37,367.1v47.6H367V390.88c0-8.35,4.42-15.13,9.87-15.13s9.86,6.78,9.86,15.13V414.7h2.63V367.1Z" style="fill:#fff;isolation:isolate;opacity:0.2"></path><path d="M427.7,328.6l-7,38.5H389.36v47.6h4V390.88a15.14,15.14,0,0,1,30.27,0h0V414.7h4V367.1l4.67-38.5Z" style="fill:#407BFF;isolation:isolate"></path><path d="M427.7,328.6l-7,38.5H389.36v47.6h4V390.88a15.14,15.14,0,0,1,30.27,0h0V414.7h4V367.1l4.67-38.5Z" style="fill:#fff;isolation:isolate;opacity:0.4"></path></g><g id="freepik--table-2--inject-1"><rect x="376.41" y="331.9" width="44.6" height="4.27" style="fill:#407BFF"></rect><rect x="306.74" y="331.9" width="69.66" height="4.27" style="fill:#407BFF"></rect><rect x="376.41" y="331.9" width="44.6" height="4.27" style="fill:#fff;isolation:isolate;opacity:0.1"></rect><rect x="306.74" y="331.9" width="69.66" height="4.27" style="fill:#fff;isolation:isolate;opacity:0.5"></rect><rect x="367.81" y="336.17" width="2.34" height="78.53" transform="translate(737.95 750.87) rotate(180)" style="fill:#407BFF"></rect><rect x="367.81" y="336.17" width="2.34" height="78.53" transform="translate(737.95 750.87) rotate(180)" style="fill:#fff;isolation:isolate;opacity:0.2"></rect><rect x="363.77" y="336.17" width="4.04" height="78.53" transform="translate(731.57 750.87) rotate(180)" style="fill:#407BFF"></rect><rect x="363.77" y="336.17" width="4.04" height="78.53" transform="translate(731.57 750.87) rotate(180)" style="fill:#fff;isolation:isolate;opacity:0.4"></rect><rect x="314.96" y="336.17" width="2.34" height="78.53" transform="translate(632.26 750.87) rotate(180)" style="fill:#407BFF"></rect><rect x="314.96" y="336.17" width="2.34" height="78.53" transform="translate(632.26 750.87) rotate(180)" style="fill:#fff;isolation:isolate;opacity:0.2"></rect><rect x="310.92" y="336.17" width="4.04" height="78.53" transform="translate(625.88 750.87) rotate(180)" style="fill:#407BFF"></rect><rect x="310.92" y="336.17" width="4.04" height="78.53" transform="translate(625.88 750.87) rotate(180)" style="fill:#fff;isolation:isolate;opacity:0.4"></rect><rect x="411.76" y="336.17" width="2.34" height="78.53" transform="translate(825.86 750.87) rotate(180)" style="fill:#407BFF"></rect><rect x="407.72" y="336.17" width="4.04" height="78.53" transform="translate(819.49 750.87) rotate(180)" style="fill:#407BFF"></rect><rect x="407.72" y="336.17" width="4.04" height="78.53" transform="translate(819.49 750.87) rotate(180)" style="fill:#fff;isolation:isolate;opacity:0.1"></rect><rect x="358.92" y="336.17" width="2.34" height="78.53" transform="translate(720.18 750.87) rotate(180)" style="fill:#407BFF"></rect><rect x="354.88" y="336.17" width="4.04" height="78.53" transform="translate(713.8 750.87) rotate(180)" style="fill:#407BFF"></rect><rect x="354.88" y="336.17" width="4.04" height="78.53" transform="translate(713.8 750.87) rotate(180)" style="fill:#fff;isolation:isolate;opacity:0.2"></rect></g><g id="freepik--character-3--inject-1"><path d="M346.09,340l-3.16,30.1s.81,6.64.83,9.87c.05,6.72-1.35,29.87-1.35,29.87h-6.87L330.41,340Z" style="fill:#b55b52"></path><polygon points="349.03 325.61 346.54 356.43 329.67 356.43 328.77 326.41 349.03 325.61" style="fill:#263238"></polygon><path d="M348.09,337.17l-1.42,17.55a26.39,26.39,0,0,1-3.51-21.48l2.31-.5Z" style="opacity:0.5"></path><path d="M332.91,408.05a2.92,2.92,0,0,1-2-.56.62.62,0,0,1,0-.71.89.89,0,0,1,.52-.37c1.16-.3,3.53,1.12,3.64,1.18a.16.16,0,0,1-.06.3A11.22,11.22,0,0,1,332.91,408.05Zm-1.08-1.35a.81.81,0,0,0-.31,0,.42.42,0,0,0-.32.22c-.13.2-.08.3,0,.35.31.46,2,.5,3.33.36a7.6,7.6,0,0,0-2.66-.93Z" style="fill:#407BFF"></path><path d="M335,407.89h-.07c-.78-.37-2.45-1.9-2.28-2.67,0-.19.16-.4.61-.44a1.17,1.17,0,0,1,.9.29,4.54,4.54,0,0,1,1,2.68.13.13,0,0,1-.07.14A.11.11,0,0,1,335,407.89Zm-1.64-2.81h-.09c-.3,0-.31.14-.33.18,0,.47,1,1.65,1.86,2.17a3.78,3.78,0,0,0-.88-2.12.81.81,0,0,0-.56-.21Z" style="fill:#407BFF"></path><path d="M335.73,406.94l7.51.13a.62.62,0,0,1,.58.49l1.25,6.12a1,1,0,0,1-.76,1.19h-.23c-2.71-.09-5.11-.28-8.48-.33-4-.07-3,.43-7.65.41-2.82,0-3.28-3.22-2.08-3.35,5.45-.6,6.07-2.24,8.21-4.16A2.47,2.47,0,0,1,335.73,406.94Z" style="fill:#263238"></path><path d="M362.34,337.51l3.44,30s3.57,9.33,4.19,12.5c1.29,6.6,5.64,23.66,5.64,23.66l-6.74,2.45-22.94-65.69Z" style="fill:#b55b52"></path><path d="M365.28,404.19a2.93,2.93,0,0,1-2.08-.21.63.63,0,0,1-.12-.7.83.83,0,0,1,.45-.45c1.08-.49,3.66.51,3.78.55a.16.16,0,0,1,.1.16.15.15,0,0,1-.11.14A11.72,11.72,0,0,1,365.28,404.19ZM364,403a1.12,1.12,0,0,0-.31,0,.46.46,0,0,0-.28.28c-.09.21,0,.3,0,.35.39.4,2.1.15,3.35-.21A7.53,7.53,0,0,0,364,403Z" style="fill:#407BFF"></path><path d="M367.3,403.68a.06.06,0,0,1-.07,0c-.83-.23-2.73-1.46-2.7-2.24,0-.19.1-.43.53-.55a1.24,1.24,0,0,1,.94.14,4.64,4.64,0,0,1,1.46,2.47.16.16,0,0,1,0,.15A.14.14,0,0,1,367.3,403.68Zm-2.08-2.49h-.1c-.29.05-.28.19-.29.23,0,.47,1.28,1.46,2.2,1.83a3.82,3.82,0,0,0-1.22-1.94.88.88,0,0,0-.59-.12Z" style="fill:#407BFF"></path><path d="M367.88,402.62l7.42-1.13a.59.59,0,0,1,.65.37l2.26,5.83a1,1,0,0,1-.55,1.3h0l-.21,0c-2.69.37-5.09.59-8.41,1.1-3.94.6-2.86.92-7.48,1.7-2.78.47-3.77-2.63-2.61-3,5.27-1.51,5.61-3.23,7.39-5.48A2.45,2.45,0,0,1,367.88,402.62Z" style="fill:#263238"></path><path d="M362,324.11l1.57,14.9,2.05,13.52-15.81,3.39s-7-21-11-30.38Z" style="fill:#263238"></path><path d="M329.18,277.54c-2.92-1.61-5.95-3.28-8.81-5-1.42-.85-2.85-1.71-4.07-2.6a13,13,0,0,1-1.51-1.2,6.66,6.66,0,0,1-1-1.44,38.47,38.47,0,0,1-2.1-4.31c-.67-1.53-1.28-3.12-1.91-4.71-1.22-3.19-2.44-6.45-3.63-9.68v0a2,2,0,0,0-3.84.94A101.08,101.08,0,0,0,304.15,260a57.3,57.3,0,0,0,3.36,10.54,14.39,14.39,0,0,0,1.79,3,20.43,20.43,0,0,0,2.34,2.33,49.39,49.39,0,0,0,4.53,3.36,86.34,86.34,0,0,0,9.35,5.42,4,4,0,0,0,3.73-7.08Z" style="fill:#b55b52"></path><path d="M362.75,290.91a57.08,57.08,0,0,0,9.52,3.42,30.36,30.36,0,0,0,5.36.92,12.63,12.63,0,0,0,3.38-.18,7.2,7.2,0,0,0,2.25-.83,7.39,7.39,0,0,0,1.75-1.46,11.93,11.93,0,0,0,1.79-2.8,21.44,21.44,0,0,0,1-2.58,39.29,39.29,0,0,0,1.23-5,60.29,60.29,0,0,0,1-9.83,2,2,0,0,0-3.91-.59l0,.06c-.85,3-1.77,6-2.76,8.85a43.79,43.79,0,0,1-1.66,4.1,15.23,15.23,0,0,1-.93,1.76,5.34,5.34,0,0,1-.9,1.13c-.11.11-.15.07-.08,0s.15-.08,0-.09a8.81,8.81,0,0,1-1.38-.12,27.91,27.91,0,0,1-4-1c-2.75-.88-5.68-2-8.38-3.12l-.1,0a4,4,0,0,0-3.18,7.34Z" style="fill:#b55b52"></path><path d="M360.62,279.93a384.43,384.43,0,0,0,3,46.48l-35.4,2.14s-3.9-38.15.11-52.31C328.32,276.24,342.16,275.15,360.62,279.93Z" style="fill:#407BFF"></path><path d="M331.54,277.54c-2.59-1.49-10.38-6.91-10.38-6.91l-4,11.46s10.61,7.81,14.38,2.73S333.11,278.45,331.54,277.54Z" style="fill:#407BFF"></path><path d="M360.62,279.93c2.78.55,10.67,3.92,10.67,3.92l-3.75,10.89s-13.06-4.84-12.53-9.92S358.79,279.57,360.62,279.93Z" style="fill:#407BFF"></path><path d="M301.93,248.33l-1-4.12,6.94-.29s.17,4.16-1.68,6.84l-.9-.14A4.58,4.58,0,0,1,301.93,248.33Z" style="fill:#b55b52"></path><path d="M303.71,240.47l2.41.21a2,2,0,0,1,1.83,2.16l-.08,1.08-6.94.29.67-2.3A2,2,0,0,1,303.71,240.47Z" style="fill:#b55b52"></path><path d="M385.14,272.73l-1.59-3.92,6.83-1.29s.77,4.09-.68,7h-.91A4.55,4.55,0,0,1,385.14,272.73Z" style="fill:#b55b52"></path><path d="M385.76,264.7l2.42-.14a2,2,0,0,1,2.13,1.88l.07,1.08-6.83,1.29.33-2.38A2,2,0,0,1,385.76,264.7Z" style="fill:#b55b52"></path><path d="M348.62,269.87s-1.79,7.66.33,8.16c0,0-5.79,3.84-9.31,3.42s0-8.08-.23-10.5Z" style="fill:#b55b52"></path><path d="M339.41,271l8.42-1,.27.28s-3.31,6.89-9.19,3.95A12,12,0,0,0,339.41,271Z" style="opacity:0.2"></path><path d="M354.84,254.42A9.2,9.2,0,0,0,344,247.18c-7,1.33-9.81,11-9.59,17.19.27,6.87,7.92,10.41,13.94,6.3,4-2.68,4.58-5.51,6.3-12A9.22,9.22,0,0,0,354.84,254.42Z" style="fill:#b55b52"></path><path d="M344.27,257.82c-.34-.11-.74.22-.92.74s-.06,1,.29,1.14.76-.21.93-.73S344.62,257.94,344.27,257.82Z" style="fill:#263238"></path><path d="M338.41,255.82c-.34-.11-.76.22-.93.74s0,1,.29,1.15.76-.22.94-.74S338.75,255.93,338.41,255.82Z" style="fill:#263238"></path><path d="M338.79,261.64a2.36,2.36,0,0,1-1.7-1,14.94,14.94,0,0,0,3.05-2.61Z" style="fill:#a02724"></path><path d="M346.36,257.34h0a.32.32,0,0,0,.16-.42c-.74-1.66-2.89-2.08-3-2.12a.31.31,0,0,0-.38.25.33.33,0,0,0,.25.38,3.79,3.79,0,0,1,2.5,1.75.3.3,0,0,0,.32.2A.17.17,0,0,0,346.36,257.34Z" style="fill:#263238"></path><path d="M338.05,253.78a2.58,2.58,0,0,1,2.32.25.32.32,0,0,0,.45-.06h0a.32.32,0,0,0-.07-.44,3.14,3.14,0,0,0-2.91-.35.32.32,0,0,0-.21.4.35.35,0,0,0,.25.22A.43.43,0,0,0,338.05,253.78Z" style="fill:#263238"></path><path d="M337.55,264h0a2.23,2.23,0,0,0,2.13,2.34,3.84,3.84,0,0,0,4.4-2,33.86,33.86,0,0,0-6.51-.54A1.23,1.23,0,0,0,337.55,264Z" style="fill:#fff"></path><path d="M351.83,263.57s-1-2.64,0-7.15a3.06,3.06,0,0,1-4.41-2s-6.34.37-6.26-3.3c0,0-6.63,2-5.85-2.75s16.56-8.92,21.33,1.71c0,0,11.82,9.16-3.66,16.31,0,0-1.29,2.11-1.93,2S351.83,263.57,351.83,263.57Z" style="fill:#263238"></path><path d="M355.72,263.65A2.23,2.23,0,0,0,354,261c-1.65-.34-3.15,1.52-3.66,2.9s.17,3.08,1.86,2.72a5,5,0,0,0,3.1-2.14A2.32,2.32,0,0,0,355.72,263.65Z" style="fill:#b55b52"></path><path d="M349.38,276.12s-6.5,4.64-8.66,4.51-2.2-5.32-2.2-5.32l-3.21.82v7.72l5.13-2,4.62,3,7.17-6.75Z" style="fill:#407BFF"></path><path d="M349.38,276.12s-6.5,4.64-8.66,4.51-2.2-5.32-2.2-5.32l-3.21.82v7.72l5.13-2,4.62,3,7.17-6.75Z" style="fill:#fff;opacity:0.8"></path><rect x="275.18" y="198.25" width="58.52" height="48.45" transform="translate(608.88 444.96) rotate(180)" style="fill:#407BFF"></rect><rect x="275.18" y="198.25" width="58.52" height="48.45" transform="translate(608.88 444.96) rotate(180)" style="fill:#fff;opacity:0.8"></rect><path d="M380.54,255.38l-2.06-1a.51.51,0,0,0-.71.54l.36,2.25,9.21,12.22,2.42-1.82Z" style="fill:#407BFF"></path><polygon points="381.22 256.27 388.77 266.29 386.33 268.08 378.85 258.15 381.22 256.27" style="fill:#fff;opacity:0.5"></polygon><polygon points="382 257.31 379.65 259.22 379.22 258.65 381.57 256.74 382 257.31" style="fill:#407BFF"></polygon><polygon points="385.84 267.43 385.41 266.86 387.87 265.09 388.3 265.66 385.84 267.43" style="fill:#407BFF"></polygon><path d="M288.93,224.55c.23,1.36,2.43,2.56,3.32,2.77,1.95.46,6.58-.92,8.48-1.54l1.56,5.87a4.72,4.72,0,0,0-3.88,6.78c-2.1.92-4.86,2.46-4.34,4s2.49,2,4.89,2a43.5,43.5,0,0,0,9.58-1.47l.9-.23-.42-.84a2.54,2.54,0,0,1-.08-1.85,3.64,3.64,0,0,1,1.78-1.89c1.21,1.33,4.95,5,9.19,4.68,2.71-.2,5.06-2,7-5.24l.59-1-1.15-.13c-.48-.06-11.77-1.59-14.65-20.52.59-1,2.54-4.53,1.64-7.68a5.9,5.9,0,0,0-3.49-3.78c-6.18-2.81-9.38-.56-10.06,0a25.65,25.65,0,0,0-8.89,5.91,2.76,2.76,0,0,0-.81,2.81c.85,2.61,6.24,4,7.83,4.38l1.08,2.32c-2.14,0-6.39.14-7.94,1.11C290.21,221.56,288.73,223.34,288.93,224.55Zm15.06-16a1.5,1.5,0,0,0,1.5-1.5v-.19l1.15-.42c.22.95.38,2.58-1,3.2a1.34,1.34,0,0,1-1.14,0,3.82,3.82,0,0,1-1.56-1.86l1.05-.39v1.13ZM290.41,224.3a3.94,3.94,0,0,1,1.43-2c1.22-.75,5.75-.94,8.32-.87l1.2,0L299,216.3l-.37-.08c-2.47-.5-6.57-1.89-7.08-3.45-.05-.15-.19-.59.48-1.33a24.52,24.52,0,0,1,8.44-5.57l.16-.06.12-.12c.09-.09,1.85-1.74,5.78-.8l-5.46,2,.22.68c.08.27.89,2.66,2.64,3.44a2.72,2.72,0,0,0,1.12.24,3,3,0,0,0,1.23-.27c2.56-1.14,2.2-4.16,1.62-5.71.43.16.88.33,1.36.55a4.42,4.42,0,0,1,2.67,2.81c.85,3-1.59,6.67-1.61,6.7l-.16.24,0,.29c2.51,17.05,11.65,21,14.88,21.83-1.53,2.26-3.29,3.47-5.23,3.61-4.3.31-8.28-4.55-8.32-4.59l-.37-.46-.54.25a5.48,5.48,0,0,0-3.07,3.05,4.15,4.15,0,0,0-.12,2.12c-5.5,1.32-11.41,1.76-11.89.3.12-.42,2.1-1.63,4.14-2.45l.68-.28-.26-.69c-.68-1.73-.71-3.08-.1-4,1-1.45,3.27-1.53,3.3-1.53l.94,0-2.44-9.17-.76.26c-2.49.86-7,2.09-8.4,1.75A4.2,4.2,0,0,1,290.41,224.3Z" style="fill:#407BFF"></path><path d="M300.38,212l-1.56,4.05-1.37-4L296,214.39l-1.25-2.63-.58.78-.61-.45a.76.76,0,0,1-.15-1.05l1.63-2.16,1.14,2.39,1.67-2.68,1.06,3.08,1.17-3,2.13,3.45a.75.75,0,0,1-.24,1h0a.75.75,0,0,1-1-.24Z" style="fill:#407BFF"></path></g><g id="freepik--character-1--inject-1"><path d="M90.3,367.1v47.6h2.63V390.88c0-8.35,4.42-15.13,9.87-15.13s9.86,6.78,9.86,15.13V414.7h2.63V367.1Z" style="fill:#263238"></path><path d="M115.29,367.1v47.6h4V390.88h0a15.14,15.14,0,0,1,30.27,0V414.7h4V367.1Z" style="fill:#263238"></path><polygon points="88.94 328.6 123.97 328.6 130.98 367.1 93.61 367.1 88.94 328.6" style="fill:#407BFF"></polygon><path d="M128.64,367.1v47.6h2.63V390.88c0-8.35,4.42-15.13,9.86-15.13s9.87,6.78,9.87,15.13V414.7h2.63V367.1Z" style="fill:#407BFF"></path><path d="M85.63,328.6l4.67,38.5v47.6h4V390.88h0a15.14,15.14,0,0,1,30.27,0V414.7h4V367.1H97.31l-7-38.5Z" style="fill:#407BFF"></path><polygon points="88.94 328.6 123.97 328.6 130.98 367.1 93.61 367.1 88.94 328.6" style="fill:#fff;isolation:isolate;opacity:0.2"></polygon><path d="M128.64,367.1v47.6h2.63V390.88c0-8.35,4.42-15.13,9.86-15.13s9.87,6.78,9.87,15.13V414.7h2.63V367.1Z" style="fill:#fff;isolation:isolate;opacity:0.2"></path><path d="M85.63,328.6l4.67,38.5v47.6h4V390.88h0a15.14,15.14,0,0,1,30.27,0V414.7h4V367.1H97.31l-7-38.5Z" style="fill:#407BFF;isolation:isolate"></path><path d="M85.63,328.6l4.67,38.5v47.6h4V390.88h0a15.14,15.14,0,0,1,30.27,0V414.7h4V367.1H97.31l-7-38.5Z" style="fill:#fff;isolation:isolate;opacity:0.4"></path><path d="M142.51,310c2.23-3.9,4.29-7.81,6.25-11.84,1-2,1.94-4,2.83-6.13s1.79-4.17,2.55-6.51c.19-.56.36-1.24.54-1.86s.29-1.33.39-1.94c.2-1.23.3-2.4.39-3.56.19-2.3.23-4.55.26-6.8,0-4.49-.14-8.92-.53-13.39a2.24,2.24,0,0,0-4.45-.15v0c-.67,4.33-1.27,8.7-1.9,13-.3,2.14-.63,4.29-1,6.35-.19,1-.4,2-.62,3a19.06,19.06,0,0,1-.85,2.55c-.75,1.8-1.68,3.74-2.63,5.64s-2,3.83-3,5.75l-6.13,11.5,0,0a4.5,4.5,0,0,0,7.88,4.34Z" style="fill:#ffb573"></path><path d="M145.06,308.9c-2.07,2.45-4.82,3.86-8.28,2.13-9-4.48,3.71-19,3.71-19l9.64,5.84S148.52,304.81,145.06,308.9Z" style="fill:#407BFF"></path><path d="M157.3,347,149,363h8.69c-2.21,6.36,2.72,44.9,2.72,44.9h7.14s4.55-47.36,4.8-52.68-7.45-7.86-11-8.3C160.33,346.84,157.3,347,157.3,347Z" style="fill:#ffb573"></path><path d="M119,341.54s-9.74,23.23,5.58,24.13a139.9,139.9,0,0,0,30.62-2.07c2.52-17.4,11-16.22,11-16.22-6.87-3.5-14-1.69-18.94-3.25-1-.3-3.24-2.59-3.24-2.59Z" style="fill:#263238"></path><path d="M119,341.54s-9.74,23.23,5.58,24.13a139.9,139.9,0,0,0,30.62-2.07c2.52-17.4,11-16.22,11-16.22-6.87-3.5-14-1.69-18.94-3.25-1-.3-3.24-2.59-3.24-2.59Z" style="isolation:isolate;opacity:0.5"></path><path d="M165.42,346.24s-3.72-.52-8.18,6-3.83,12.33-3.83,12.33l2.47-.45s1-6.94,4.61-11.36a11.48,11.48,0,0,1,8.31-4.38Z" style="fill:#407BFF"></path><path d="M168.13,407.89a.16.16,0,0,1-.13-.12.18.18,0,0,1,.07-.18c.11-.06,2.49-1.48,3.64-1.18a.89.89,0,0,1,.52.37.62.62,0,0,1,0,.71,2.92,2.92,0,0,1-2,.56A11.22,11.22,0,0,1,168.13,407.89Zm3.16-1.19a7.6,7.6,0,0,0-2.66.93c1.29.14,3,.1,3.33-.36,0,0,.09-.15,0-.35a.45.45,0,0,0-.33-.22.81.81,0,0,0-.31,0Z" style="fill:#407BFF"></path><path d="M168,407.89a.16.16,0,0,1-.08-.14,4.61,4.61,0,0,1,1-2.68,1.18,1.18,0,0,1,.9-.29c.45,0,.62.25.62.44.16.77-1.51,2.3-2.29,2.67h-.07A.09.09,0,0,1,168,407.89Zm1.74-2.79a.81.81,0,0,0-.56.21,3.78,3.78,0,0,0-.88,2.12c.85-.52,1.91-1.7,1.86-2.17,0,0,0-.18-.33-.18h-.09Z" style="fill:#407BFF"></path><path d="M169,407.44c2.14,1.92,2.76,3.56,8.21,4.16,1.2.13.74,3.35-2.08,3.35-4.68,0-3.67-.48-7.65-.41-3.36,0-5.77.24-8.48.33h-.23a1,1,0,0,1-.76-1.19l1.25-6.12a.62.62,0,0,1,.58-.49l7.51-.13A2.45,2.45,0,0,1,169,407.44Z" style="fill:#263238"></path><path d="M138.56,350.75l-8.3,15.31h9.47c-2.2,6.36,2.72,41.78,2.72,41.78h7.14s5.31-45.79,5.58-51.12-12.58-6-12.58-6Z" style="fill:#ffb573"></path><path d="M137.22,343.11s.91,1.83,1.36,2.53c2.18,3.33,13.35,6.31,13.35,6.31-11.5,2.34-15.11,14.7-15.11,14.7s1.94,1.55-14.21,0-14-25.11-14-25.11Z" style="fill:#263238"></path><path d="M151,351c-14.14,5.19-16.63,16.76-16.63,16.76l3.4-.44C141.07,358.4,154.4,353,154.4,353Z" style="fill:#407BFF"></path><path d="M150,407.89a.16.16,0,0,1-.14-.12.18.18,0,0,1,.07-.18c.11-.06,2.49-1.48,3.64-1.18a.89.89,0,0,1,.52.37.62.62,0,0,1,0,.71,2.92,2.92,0,0,1-2,.56A11,11,0,0,1,150,407.89Zm3.15-1.19a7.6,7.6,0,0,0-2.66.93c1.29.14,3,.1,3.34-.36,0,0,.08-.15,0-.35a.45.45,0,0,0-.33-.22.81.81,0,0,0-.31,0Z" style="fill:#407BFF"></path><path d="M149.93,407.89a.16.16,0,0,1-.08-.14,4.61,4.61,0,0,1,1-2.68,1.18,1.18,0,0,1,.9-.29c.45,0,.62.25.62.44.16.77-1.51,2.3-2.28,2.67H150A.11.11,0,0,1,149.93,407.89Zm1.74-2.79a.83.83,0,0,0-.56.21,3.85,3.85,0,0,0-.88,2.12c.85-.52,1.91-1.7,1.86-2.17,0,0,0-.18-.33-.18h-.09Z" style="fill:#407BFF"></path><path d="M150.94,407.44c2.14,1.92,2.76,3.56,8.21,4.16,1.2.13.74,3.35-2.08,3.35-4.68,0-3.67-.48-7.65-.41-3.36,0-5.77.24-8.48.33h-.23a1,1,0,0,1-.76-1.19l1.25-6.12a.62.62,0,0,1,.58-.49l7.51-.13A2.45,2.45,0,0,1,150.94,407.44Z" style="fill:#263238"></path><path d="M113.24,300.51c-8.41,3.4-5.06,16.13-4.79,28.44.31,14.32-.44,14.34-.44,14.34a79.75,79.75,0,0,0,37.18-.78c-6-20.69-2.41-44.21-2.41-44.21S127.54,294.8,113.24,300.51Z" style="fill:#407BFF"></path><path d="M116.52,304.44l-8-10.28c-1.33-1.71-2.63-3.44-3.91-5.15s-2.51-3.46-3.56-5.11a17.52,17.52,0,0,1-1.27-2.36c-.38-.89-.77-1.84-1.13-2.83-.72-2-1.41-4-2.08-6.09-1.35-4.12-2.7-8.32-4.1-12.47v0a2.24,2.24,0,0,0-4.36.92c.39,4.46,1,8.86,1.78,13.28.42,2.21.85,4.41,1.43,6.65.29,1.12.59,2.26,1,3.44.2.59.45,1.25.71,1.84s.57,1.22.86,1.74c1.15,2.17,2.38,4.07,3.63,6s2.54,3.72,3.84,5.55c2.63,3.63,5.33,7.13,8.2,10.59a4.5,4.5,0,0,0,7-5.63Z" style="fill:#ffb573"></path><path d="M99.36,298.92l8.76-6.89s16.58,12.14,8,19.32C107.86,318.3,99.36,298.92,99.36,298.92Z" style="fill:#407BFF"></path><path d="M120.61,289.34s2.06,8-1,9.74a11.41,11.41,0,0,0,8.82,3.92c5.87,0,3-5.55,3-5.55s-1.26-.31-1.88-4.73S120.61,289.34,120.61,289.34Z" style="fill:#ffb573"></path><path d="M116.51,274.48a9,9,0,0,1,11.19-6.13c6.71,1.93,8.65,11.56,7.87,17.64-.86,6.71-8.65,10.61-14.18,6.06-3.68-3-4-6.89-5.1-13.42A9,9,0,0,1,116.51,274.48Z" style="fill:#ffb573"></path><path d="M126.94,278.77c.38-.1.78.24.91.77s0,1-.36,1.11-.72-.26-.86-.79S126.57,278.87,126.94,278.77Z" style="fill:#263238"></path><path d="M132.89,277.18c.34-.1.72.26.86.77s0,1-.35,1.1-.73-.25-.88-.77S132.55,277.27,132.89,277.18Z" style="fill:#263238"></path><path d="M132,284.17a3.11,3.11,0,0,0,2.38-1.1,19.3,19.3,0,0,1-3.57-3.87Z" style="fill:#ed893e"></path><path d="M124.2,277.84a2.49,2.49,0,0,1,1.68-1.54h0a.32.32,0,1,0-.1-.63,3.18,3.18,0,0,0-2.15,1.92.33.33,0,0,0,.18.41l.15,0A.32.32,0,0,0,124.2,277.84Z" style="fill:#263238"></path><path d="M134.37,275.24h0a.3.3,0,0,0,0-.43,3.1,3.1,0,0,0-2.66-1.15h0a.32.32,0,0,0-.26.36h0a.32.32,0,0,0,.36.26,2.52,2.52,0,0,1,2.07.92.29.29,0,0,0,.28.1A.29.29,0,0,0,134.37,275.24Z" style="fill:#263238"></path><path d="M132.1,286.3a34.59,34.59,0,0,0-5.92-1c.4,1.27,1.27,2.37,3.52,2.61S132.1,286.3,132.1,286.3Z" style="fill:#fff"></path><path d="M118.79,282.93s3.73-2.32.84-7.5c0,0,4.1,1.39,5.1-1.34,0,0,4.44.65,4.06-2,0,0,4.05,2.19,4.18-.62,0,0,3.77-1.87,2.76-3.88-1.13-2.25-5.13-.31-5.13-.31s.88-2.75-1.25-3.5-3.45,2.31-3.45,2.31-1.43-3-3.76-2.33-1.81,4.21-1.81,4.21-2.44-2.19-4.19-.69-.66,4.63-.66,4.63-2.46-.38-3.06,1.75c-.69,2.4,1.87,3.48,1.87,3.48a2.9,2.9,0,0,0-1.56,3.18c.31,2.42,2.06,2.09,2.06,2.09s2.46,8,4,6.44S118.79,282.93,118.79,282.93Z" style="fill:#263238"></path><path d="M115,280.51c2.06-.65,4.22,1.54,5,3.24.91,1.89.17,3.93-2,3.69a6.37,6.37,0,0,1-4.2-2.33A2.84,2.84,0,0,1,115,280.51Z" style="fill:#ffb573"></path><rect x="92.88" y="212.61" width="58.52" height="48.45" transform="translate(244.27 473.67) rotate(180)" style="fill:#407BFF"></rect><rect x="92.88" y="212.61" width="58.52" height="48.45" transform="translate(244.27 473.67) rotate(180)" style="fill:#fff;opacity:0.8"></rect><path d="M126,237.33c-5.17,0-9.55-2.56-10.27-6a9.21,9.21,0,0,1-1.48-5.06c0-4.48,3.06-8.12,6.83-8.12,2.89,0,5.43,2.12,6.41,5.32,5.1.49,8.89,3.4,8.89,6.88C136.4,234.21,131.75,237.33,126,237.33Zm-4.92-18.15c-3.21,0-5.83,3.19-5.83,7.12a8.15,8.15,0,0,0,1.37,4.58l.08.19c.55,3,4.55,5.26,9.3,5.26,5.18,0,9.38-2.67,9.38-6,0-3-3.57-5.57-8.31-5.91l-.36,0-.09-.34C125.86,221.16,123.63,219.18,121.1,219.18Z" style="fill:#263238"></path><path d="M127.16,233.18a14.31,14.31,0,0,1-7.07-1.94l.49-.87c7.17,4,12.74.19,13,0l.58.81A13.06,13.06,0,0,1,127.16,233.18Z" style="fill:#263238"></path><ellipse cx="124.8" cy="223.93" rx="0.7" ry="1.75" style="fill:#263238"></ellipse><ellipse cx="121.44" cy="224.55" rx="0.7" ry="1.75" style="fill:#263238"></ellipse><path d="M121.2,250.06a5.71,5.71,0,0,1-5.2-2.78c-2.69-4.35-1-12.37.37-14.83l.88.48c-1.21,2.24-2.85,9.86-.4,13.83a4.81,4.81,0,0,0,4.58,2.29,4.74,4.74,0,0,0,4-1.88c2.35-3.37.11-10.11.09-10.18l1-.32c.1.3,2.41,7.29-.22,11.07a5.7,5.7,0,0,1-4.82,2.31Z" style="fill:#263238"></path><path d="M124.38,249.16l.84-1.24,3.36,2.26,2.4,4.15,1.6-.32a1.4,1.4,0,0,1,1.65,1.1l0,.09-1.06.22.54.22a1.42,1.42,0,0,1,.78,1.86l0,.06-2.86-1.15.06.25a1.51,1.51,0,0,1-1.15,1.79h0l-.65-3-2.44-4.22Z" style="fill:#263238"></path><path d="M116.75,248l1.1-1,2.75,3,1.37,4.6,1.53.05a1.5,1.5,0,0,1,1.45,1.55h0l-1.08,0,.79.56a1,1,0,0,1,.24,1.46l-.26.37-2.41-1.71,0,.65a1,1,0,0,1-1,1.06l-.5,0-.16-3.12-1.4-4.7Z" style="fill:#263238"></path><rect x="112.47" y="228.26" width="1" height="9.45" transform="translate(-139.77 176.7) rotate(-51.58)" style="fill:#263238"></rect><rect x="125.42" y="237.19" width="9.43" height="1" transform="translate(-41.25 27.78) rotate(-10.53)" style="fill:#263238"></rect><path d="M112.11,254.39c-4.09,0-7-4.37-7.13-4.56l-1-1.48,1.61.75c2.25,1.06,4.16,1.19,5.68.36,2.85-1.54,3.48-5.91,3.48-6l1,.14c0,.2-.71,4.92-4,6.7a6.19,6.19,0,0,1-4.79.35c1.13,1.19,3,2.69,5.17,2.7s4.26-1.56,6.19-4.58l.84.54c-2.12,3.33-4.49,5-7,5Z" style="fill:#263238"></path><path d="M155,256.65l-1.47-4-5.9,3.65s2.19,3.53,5.22,4.71l.66-.62A4.54,4.54,0,0,0,155,256.65Z" style="fill:#ffb573"></path><path d="M149.14,251.15l-1.87,1.53a2,2,0,0,0-.31,2.82l.68.84,5.9-3.65-1.85-1.53A2,2,0,0,0,149.14,251.15Z" style="fill:#ffb573"></path><path d="M88.21,257.6l1.48-4,5.91,3.66s-2.19,3.54-5.23,4.72l-.66-.62A4.57,4.57,0,0,1,88.21,257.6Z" style="fill:#ffb573"></path><path d="M94.09,252.1,96,253.63a2,2,0,0,1,.3,2.81l-.67.85-5.91-3.66,1.85-1.53A2,2,0,0,1,94.09,252.1Z" style="fill:#ffb573"></path><path d="M120.29,297.31s6.5,4.64,8.66,4.52,2.19-5.32,2.19-5.32l3.22.82v7.72l-5.13-2-4.62,3-7.18-6.75Z" style="fill:#407BFF"></path><path d="M120.29,297.31s6.5,4.64,8.66,4.52,2.19-5.32,2.19-5.32l3.22.82v7.72l-5.13-2-4.62,3-7.18-6.75Z" style="fill:#fff;opacity:0.8"></path></g><g id="freepik--table-1--inject-1"><rect x="195.09" y="331.9" width="44.6" height="4.27" style="fill:#407BFF"></rect><rect x="125.43" y="331.9" width="69.66" height="4.27" style="fill:#407BFF"></rect><rect x="195.09" y="331.9" width="44.6" height="4.27" style="fill:#fff;isolation:isolate;opacity:0.2"></rect><rect x="125.43" y="331.9" width="69.66" height="4.27" style="fill:#fff;isolation:isolate;opacity:0.5"></rect><rect x="186.49" y="336.17" width="2.34" height="78.53" transform="translate(375.32 750.87) rotate(180)" style="fill:#407BFF"></rect><rect x="186.49" y="336.17" width="2.34" height="78.53" transform="translate(375.32 750.87) rotate(180)" style="fill:#fff;isolation:isolate;opacity:0.2"></rect><rect x="182.45" y="336.17" width="4.04" height="78.53" transform="translate(368.95 750.87) rotate(180)" style="fill:#407BFF"></rect><rect x="182.45" y="336.17" width="4.04" height="78.53" transform="translate(368.95 750.87) rotate(180)" style="fill:#fff;isolation:isolate;opacity:0.4"></rect><rect x="133.65" y="336.17" width="2.34" height="78.53" transform="translate(269.64 750.87) rotate(180)" style="fill:#407BFF"></rect><rect x="133.65" y="336.17" width="2.34" height="78.53" transform="translate(269.64 750.87) rotate(180)" style="fill:#fff;isolation:isolate;opacity:0.2"></rect><rect x="129.61" y="336.17" width="4.04" height="78.53" transform="translate(263.26 750.87) rotate(180)" style="fill:#407BFF"></rect><rect x="129.61" y="336.17" width="4.04" height="78.53" transform="translate(263.26 750.87) rotate(180)" style="fill:#fff;isolation:isolate;opacity:0.4"></rect><rect x="230.45" y="336.17" width="2.34" height="78.53" transform="translate(463.24 750.87) rotate(180)" style="fill:#407BFF"></rect><rect x="226.41" y="336.17" width="4.04" height="78.53" transform="translate(456.86 750.87) rotate(180)" style="fill:#407BFF"></rect><rect x="226.41" y="336.17" width="4.04" height="78.53" transform="translate(456.86 750.87) rotate(180)" style="fill:#fff;isolation:isolate;opacity:0.2"></rect><rect x="177.61" y="336.17" width="2.34" height="78.53" transform="translate(357.55 750.87) rotate(180)" style="fill:#407BFF"></rect><rect x="173.57" y="336.17" width="4.04" height="78.53" transform="translate(351.18 750.87) rotate(180)" style="fill:#407BFF"></rect><rect x="173.57" y="336.17" width="4.04" height="78.53" transform="translate(351.18 750.87) rotate(180)" style="fill:#fff;isolation:isolate;opacity:0.2"></rect><path d="M221.51,301.81l-1-3a.71.71,0,0,0-1.24-.2l-1.9,2.55L214,322.27l4.17.66Z" style="fill:#407BFF"></path><path d="M210.64,316.19l1.48,2.81a.71.71,0,0,0,1.26,0l1.48-2.81V296.91a2.11,2.11,0,0,0-2.11-2.11h0a2.11,2.11,0,0,0-2.11,2.11Z" style="fill:#407BFF"></path><path d="M210.64,316.19l1.48,2.81a.71.71,0,0,0,1.26,0l1.48-2.81V296.91a2.11,2.11,0,0,0-2.11-2.11h0a2.11,2.11,0,0,0-2.11,2.11Z" style="fill:#fff;opacity:0.5"></path><path d="M209.24,305.76h0A1.78,1.78,0,0,1,211,304h0a3.77,3.77,0,0,0,3.84-3.82,3.64,3.64,0,0,0-3.46-3.46,3.77,3.77,0,0,0-3.82,3.84v5.22Zm-.39-5.42a2.37,2.37,0,1,1,2.37,2.37A2.37,2.37,0,0,1,208.85,300.34Z" style="fill:#407BFF"></path><path d="M207.21,305.81l.07-5.22a3.76,3.76,0,0,0-3.77-3.89,3.63,3.63,0,0,0-3.5,3.41,3.77,3.77,0,0,0,3.78,3.87h0a1.77,1.77,0,0,1,1.76,1.81h0Zm-3.6-3.1a2.37,2.37,0,1,1,2.4-2.34A2.37,2.37,0,0,1,203.61,302.71Z" style="fill:#407BFF"></path><ellipse cx="207.43" cy="312.13" rx="3.02" ry="8.25" style="fill:#263238"></ellipse><ellipse cx="207.43" cy="312.13" rx="3.02" ry="8.25" style="fill:#fff;opacity:0.6000000000000001"></ellipse><path d="M207.43,320.38c-1.66,0-3-3.69-3-8.25s1.36-8.25,3-8.25Z" style="fill:#fff;opacity:0.30000000000000004"></path><path d="M208.19,331.9h8.3a3.51,3.51,0,0,0,3.5-3.35l.85-19.68h-17l.86,19.68A3.5,3.5,0,0,0,208.19,331.9Z" style="fill:#407BFF"></path><path d="M208.19,331.9h8.3a3.51,3.51,0,0,0,3.5-3.35l.85-19.68h-17l.86,19.68A3.5,3.5,0,0,0,208.19,331.9Z" style="opacity:0.4"></path></g><g id="freepik--character-2--inject-1"><path d="M233.55,186.52c-4.18,1.51-8.54,3.14-12.75,4.56-2.12.7-4.22,1.38-6.23,1.91a18.59,18.59,0,0,1-4.59.81,17.48,17.48,0,0,1-2.55-.56c-1-.27-2-.62-3-1-2.05-.74-4.14-1.6-6.25-2.48l-12.72-5.54-.05,0a3.25,3.25,0,0,0-3.42,5.45,110.44,110.44,0,0,0,11.64,8.66c2,1.32,4.14,2.59,6.38,3.78,1.13.58,2.28,1.15,3.53,1.69a24,24,0,0,0,4.21,1.44,15.26,15.26,0,0,0,2.8.38,24,24,0,0,0,2.44,0,35.58,35.58,0,0,0,4.13-.51c2.59-.45,5-1,7.4-1.69a114.38,114.38,0,0,0,13.85-4.78,6.5,6.5,0,0,0-4.71-12.11Z" style="fill:#ce7a63"></path><path d="M218.74,190.71l4.41,13.87s22-4.52,17.78-15.64S218.74,190.71,218.74,190.71Z" style="fill:#407BFF"></path><path d="M228.91,236.81s-2.68,44.91,1.31,77.24c-.43,27.35,8.3,93.65,8.3,93.65,3.49.69,4.8.8,7.79-.09,0,0,8.6-50.08,5.17-94,8-46.05,5.38-76.77,5.38-76.77Z" style="fill:#ce7a63"></path><path d="M240.93,238.81s14.19,59.63,23.14,85.1c9.39,26.75,38,69,39,70.79,3.69-1,5-2.27,7.17-4.42,0,0-13.61-43-18.11-55.39-2-5.49-9.3-17.47-9.3-17.47s-2.39-26.39-4-36.7c-1.47-9.4.83-17.13-1.06-23-5-15.36-11.68-19.93-11.68-19.93Z" style="fill:#ce7a63"></path><path d="M237.87,405.69l8.75.13a.62.62,0,0,1,.62.56l.77,7.16a1.32,1.32,0,0,1-1.32,1.41c-3.15-.1-4.14-.36-8.11-.42-4.64-.08-2.5.12-7.94,0-3.29-.05-3.81-3.38-2.41-3.68,4.46-.93,5.63-2.7,7.64-4.6A2.86,2.86,0,0,1,237.87,405.69Z" style="fill:#263238"></path><path d="M237.71,406.82a.19.19,0,0,0,.17-.1.2.2,0,0,0,0-.22c-.27-.31-2.7-3-3.81-2.83a.62.62,0,0,0-.47.36h0a1.08,1.08,0,0,0,0,1c.54,1,2.8,1.57,4.1,1.79ZM234.18,404c.64,0,2,1.27,3,2.3-1.76-.36-3-.91-3.27-1.49a.7.7,0,0,1,0-.66.23.23,0,0,1,.19-.14Z" style="fill:#407BFF"></path><path d="M237.71,406.82h0a.2.2,0,0,0,.14-.13c0-.09.6-2.19-.06-3.33a1.41,1.41,0,0,0-.86-.69h0c-.51-.13-.75.06-.85.25-.47.79.7,3.1,1.45,3.85A.18.18,0,0,0,237.71,406.82Zm-1-3.82.2,0h0a1,1,0,0,1,.63.5,4.46,4.46,0,0,1,.11,2.69c-.71-.9-1.44-2.65-1.17-3.12A.22.22,0,0,1,236.68,403Zm.25-.15h0Z" style="fill:#407BFF"></path><path d="M302.51,393.7l7.68-4.21a.61.61,0,0,1,.81.18l4.2,5.85a1.29,1.29,0,0,1-.44,1.87c-2.79,1.47-3.78,1.74-7.26,3.64-4.07,2.23-2.11,1.34-6.88,4-2.89,1.58-5-1.06-3.91-2,3.41-3,3.55-5.14,4.36-7.78A2.82,2.82,0,0,1,302.51,393.7Z" style="fill:#263238"></path><path d="M302.49,395.1a.19.19,0,0,0,0-.35c-.39-.13-3.82-1.26-4.7-.58a.58.58,0,0,0-.24.55h0a1.05,1.05,0,0,0,.49.86c1,.64,3.21,0,4.45-.47Zm-4.44-.67c.57-.3,2.4.1,3.75.51-1.71.56-3,.68-3.58.32a.69.69,0,0,1-.32-.57.23.23,0,0,1,.09-.22Z" style="fill:#407BFF"></path><path d="M302.49,395.1l0,0a.19.19,0,0,0,.05-.19c0-.08-.56-2.19-1.69-2.86a1.36,1.36,0,0,0-1.09-.17h0c-.51.13-.62.42-.62.63,0,.92,2.15,2.35,3.17,2.63A.17.17,0,0,0,302.49,395.1Zm-2.78-2.81a.52.52,0,0,1,.18-.07h0a1,1,0,0,1,.8.12,4.42,4.42,0,0,1,1.42,2.29c-1.06-.44-2.56-1.59-2.55-2.14C299.56,392.45,299.56,392.37,299.71,392.29Zm.14-.25h0Z" style="fill:#407BFF"></path><path d="M267.92,237.81H228.49s-4.09,57.39,0,79.39c0,0,17.58,3,55.41-2.16,0,0-4.66-31.67-4.33-41.67S279.67,252.42,267.92,237.81Z" style="fill:#407BFF"></path><path d="M228.2,238.81c-2.22-1.85-1.81-11.78-1.29-18.6a23.64,23.64,0,0,0-1.82-10.42c-1.78-4.51,1.56-10,1.44-12.76A12.16,12.16,0,0,1,237,184.46c1.72-.25,3.52-.47,5.26-.62a113.78,113.78,0,0,1,16.11,0c1.54.08,3,.2,4.45.34a9,9,0,0,1,7.89,10.76c-4.7,22.49-.87,36.92-1.58,43.88l-24.52,5.31a2.31,2.31,0,0,1-2-.56l-2.2-2a1.83,1.83,0,0,0-2.32-.12l-1.73,1.28a2.3,2.3,0,0,1-2.7,0C232,241.62,229.31,239.74,228.2,238.81Z" style="fill:#263238"></path><path d="M258.86,165.69c-1.29,5.18-2.54,13.64-.5,18.14,0,0-7.65.34-17.43,8.15-4.61-6.76.72-8.09.72-8.09,4.07-.95,4.71-5.9,4.71-9.75Z" style="fill:#ce7a63"></path><path d="M246.35,174.14l7.11-4.81a6.27,6.27,0,0,1-.63,3.16,13.47,13.47,0,0,1-6.88,6.16A21.73,21.73,0,0,0,246.35,174.14Z" style="opacity:0.2"></path><path d="M262.23,156.18c-2,8.43-2.7,12-7.69,15.67-7.52,5.46-17.23,1.15-17.72-7.71-.44-8,3-20.43,11.73-22.37S264.26,147.75,262.23,156.18Z" style="fill:#ce7a63"></path><path d="M248.13,159.61c-.12.69-.59,1.19-1,1.11s-.72-.71-.6-1.4.59-1.19,1-1.11S248.26,158.92,248.13,159.61Z" style="fill:#263238"></path><path d="M239.58,158.22c-.13.69-.59,1.19-1.05,1.11s-.72-.71-.6-1.4.59-1.19,1-1.11S239.7,157.53,239.58,158.22Z" style="fill:#263238"></path><path d="M239.17,156.89l-1.58-.77S238.21,157.57,239.17,156.89Z" style="fill:#263238"></path><path d="M245.78,167a6.25,6.25,0,0,1-1.18-.11.21.21,0,0,1-.17-.24.21.21,0,0,1,.25-.16,5.57,5.57,0,0,0,4.86-1.36.21.21,0,1,1,.3.28A5.75,5.75,0,0,1,245.78,167Z" style="fill:#263238"></path><path d="M250.59,155.68a.37.37,0,0,1-.25-.21,3.29,3.29,0,0,0-2.35-1.85.41.41,0,0,1-.36-.46.4.4,0,0,1,.46-.36,4.11,4.11,0,0,1,3,2.3.42.42,0,0,1-.19.56A.4.4,0,0,1,250.59,155.68Z" style="fill:#263238"></path><path d="M237.13,153.93a.43.43,0,0,1-.26-.16.41.41,0,0,1,.08-.58,4.08,4.08,0,0,1,3.7-.74.41.41,0,0,1,.25.53.4.4,0,0,1-.52.25,3.32,3.32,0,0,0-2.93.62A.47.47,0,0,1,237.13,153.93Z" style="fill:#263238"></path><path d="M247.73,158.28l-1.58-.77S246.77,159,247.73,158.28Z" style="fill:#263238"></path><path d="M269.88,199.29a107.25,107.25,0,0,0-1.49,14.46c-3.88-5.38-8.28-15.13-8-19.68Z" style="opacity:0.2"></path><path d="M187.16,184.62l-2-5.49-8.18,5.05s3,4.9,7.23,6.53l.93-.86A6.28,6.28,0,0,0,187.16,184.62Z" style="fill:#ce7a63"></path><path d="M179,177l-2.6,2.12A2.79,2.79,0,0,0,176,183l.93,1.16,8.18-5.05L182.56,177A2.79,2.79,0,0,0,179,177Z" style="fill:#ce7a63"></path><path d="M244,277.94c9.7,15.49,14.1,36.27,14.76,39.65q-3.65.23-6.86.34a161.07,161.07,0,0,0-8.46-40Z" style="opacity:0.2"></path><path d="M241.65,158.79a19.13,19.13,0,0,1-3.26,4,3.06,3.06,0,0,0,2.39.9Z" style="fill:#ba4d3c"></path><path d="M236.31,160.24l1.77.3a2.19,2.19,0,0,0,.36,0,2.12,2.12,0,0,0,2.09-1.76l.25-1.44a1,1,0,0,1,1.05-.57,1,1,0,0,1,.79.89l-.24,1.44a2.11,2.11,0,0,0,.35,1.58,2.08,2.08,0,0,0,1.38.87l4.44.77a2.19,2.19,0,0,0,.36,0,2.13,2.13,0,0,0,2.09-1.77l.51-2.93a.25.25,0,0,1,0-.08,8,8,0,0,1,2.88,1.21l4.71,3.24.42-.62-4.71-3.24a8.58,8.58,0,0,0-3.34-1.36,2.12,2.12,0,0,0-1.7-1.61l-4.44-.76a2.13,2.13,0,0,0-2.46,1.73l-.1.62a1.45,1.45,0,0,0-1.85-.32l.11-.61a2.13,2.13,0,0,0-1.73-2.46l-1.77-.31a2.09,2.09,0,0,0-1.59.36,2.16,2.16,0,0,0-.87,1.38l-.51,2.93A2.14,2.14,0,0,0,236.31,160.24Zm6.66-1,.5-2.94A1.53,1.53,0,0,1,245,155a1.18,1.18,0,0,1,.26,0l4.43.77a1.53,1.53,0,0,1,1.25,1.76l-.51,2.93a1.53,1.53,0,0,1-1.76,1.25l-4.44-.77a1.51,1.51,0,0,1-1.24-1.76Zm-7.8-1.35.5-2.93a1.5,1.5,0,0,1,.63-1,1.53,1.53,0,0,1,.87-.28l.27,0,1.76.31a1.53,1.53,0,0,1,1.25,1.76l-.51,2.93a1.52,1.52,0,0,1-1.76,1.25l-1.77-.3A1.53,1.53,0,0,1,235.17,157.88Z" style="fill:#407BFF"></path><path d="M260.37,164.17a2.78,2.78,0,0,1-2.68-3.42c.55-2.44.65-5.75-1.64-8.38-4.15-4.79-4.31.92-15.34-7.59-1.57-1.21-2.68-7.85,6-5.23,0,0,11.63-4.42,14.7,5.23,0,0,11.19,4.66,0,19.39Z" style="fill:#263238"></path><path d="M262.85,164a5.54,5.54,0,0,1-3.41,3.05c-1.93.53-2.88-1.58-2.34-3.72.49-1.93,2.09-4.52,4-4.1S263.74,162.14,262.85,164Z" style="fill:#ce7a63"></path><path d="M260.93,169.63l-1.54-3.22a.58.58,0,0,0-1.06,0l-1.55,3.22a.59.59,0,0,0,.53.84h3.09A.59.59,0,0,0,260.93,169.63Z" style="fill:#407BFF"></path><rect x="173.42" y="131.94" width="59.54" height="49.3" transform="translate(406.39 313.19) rotate(180)" style="fill:#407BFF"></rect><rect x="173.42" y="131.94" width="59.54" height="49.3" transform="translate(406.39 313.19) rotate(180)" style="fill:#fff;opacity:0.8"></rect><path d="M234.91,187.08l-2-5.49-8.18,5s3,4.9,7.23,6.53l.93-.86A6.28,6.28,0,0,0,234.91,187.08Z" style="fill:#ce7a63"></path><path d="M226.78,179.46l-2.6,2.12a2.79,2.79,0,0,0-.42,3.9l.93,1.16,8.18-5-2.56-2.12A2.79,2.79,0,0,0,226.78,179.46Z" style="fill:#ce7a63"></path><path d="M257.81,190.73l-1.1,2.91c-.38,1-.76,2-1.16,3-.78,2-1.61,3.88-2.46,5.66-.44.89-.87,1.75-1.31,2.52a16.93,16.93,0,0,1-1.23,1.89,2.87,2.87,0,0,0-.3.43s.15,0,.69-.16a2.19,2.19,0,0,1,1.14.05c.13.07,0,.08-.14,0a6.68,6.68,0,0,1-1.69-1,27.71,27.71,0,0,1-2.07-1.85c-1.42-1.37-2.8-3-4.19-4.62-2.73-3.31-5.42-6.93-8-10.46l-.07-.1a3.38,3.38,0,0,0-5.9,3.12,81.29,81.29,0,0,0,5.84,13,56.38,56.38,0,0,0,4,6.25,30.15,30.15,0,0,0,2.63,3.08,18.78,18.78,0,0,0,3.76,3,11.87,11.87,0,0,0,3,1.28,9.51,9.51,0,0,0,4.51.14,10.9,10.9,0,0,0,3.74-1.64,16,16,0,0,0,2.24-1.84,27,27,0,0,0,2.92-3.5,38.3,38.3,0,0,0,2.13-3.37,61.9,61.9,0,0,0,3.31-6.69c.47-1.12.93-2.24,1.35-3.38s.8-2.23,1.19-3.51a6.75,6.75,0,0,0-12.76-4.39Z" style="fill:#ce7a63"></path><path d="M264.74,209.37l-12.67-6.25s3.2-22.66,15.25-17.89C279,189.85,264.74,209.37,264.74,209.37Z" style="fill:#407BFF"></path><path d="M203.2,139.66l2.18.76a.72.72,0,0,1,.46.85l-.39,1.5,1.1.83a.71.71,0,0,1,.23.83l-.59,1.51.92.72a1.18,1.18,0,0,1,.37,1.4l-.75,1.78,1.42.49a.93.93,0,0,1,.58,1.18l-.66,1.88,1.65.36a1,1,0,0,1,.73,1.13l-.36,1.67,1.68.23a1.09,1.09,0,0,1,.94,1.08v1.79h1.64a1.09,1.09,0,0,1,1,.76l.43,1.32,1.93-.22a1.16,1.16,0,0,1,1.13.57l1.39,2.39h-3.72l-7.52-3.9s-3.52-5.37-3.58-5.55-3.51-5.42-3.51-5.42v-7.69Z" style="fill:#407BFF"></path><path d="M187.61,144l1.14-.8,1.06,1.43,1.95-1.43,1.14,1.43,1.78-1,1.71.49-1.3-1.63-1.71.74-1.22-1.47-1.78,1.47-1.22-1.47-1.55,1.11s-.58-2.93,0-3.63c1-1.18,4.61-.54,6-1.14,1.23-.52,3.05-2.93,4.39-3.08a7.25,7.25,0,0,1,4.22,1.73c1.11,1.1,2.2,4.2,2.44,5.74,2.81,18,11.11,21.31,17,21.62a1.09,1.09,0,0,1,.48,2,42.94,42.94,0,0,1-21.24,5.62c-14.47-.17-6.5-24.47-6.5-24.47l-6.83-.91Z" style="fill:#407BFF"></path><path d="M187.61,144l1.14-.8,1.06,1.43,1.95-1.43,1.14,1.43,1.78-1,1.71.49-1.3-1.63-1.71.74-1.22-1.47-1.78,1.47-1.22-1.47-1.55,1.11s-.58-2.93,0-3.63c1-1.18,4.61-.54,6-1.14,1.23-.52,3.05-2.93,4.39-3.08a7.25,7.25,0,0,1,4.22,1.73c1.11,1.1,2.2,4.2,2.44,5.74,2.81,18,11.11,21.31,17,21.62a1.09,1.09,0,0,1,.48,2,42.94,42.94,0,0,1-21.24,5.62c-14.47-.17-6.5-24.47-6.5-24.47l-6.83-.91Z" style="opacity:0.30000000000000004"></path><path d="M191.49,157.76a23.63,23.63,0,0,0,4.76-1.4c1.31-.82,3.32-3.69,3.29-5.24,0-.57-.72-1.77-1.28-1.89s-1.53.74-1.89,1.16c-.64.74-.8,2.93-1.51,3.59s-3.37.8-3.37.8l-2-.55.73,1.1-2,.91,1.53.31-1.22,1.21,1.58-.3-.49,1.22Z" style="fill:#407BFF"></path><path d="M196.19,138.87a1.39,1.39,0,1,0,1.34-1.77A1.6,1.6,0,0,0,196.19,138.87Z" style="fill:#fff"></path><path d="M196.55,139.15c0,.47.29.86.65.86s.65-.39.65-.86-.29-.86-.65-.86S196.55,138.68,196.55,139.15Z" style="fill:#263238"></path><path d="M196,137.47a2.34,2.34,0,0,1,3.3,0h0a.6.6,0,0,0-.11-.93,3,3,0,0,0-3.08,0,.6.6,0,0,0-.11.93Z" style="fill:#263238"></path><path d="M208.18,176.8c-.13-1.08-1.48-3-1.55-4.06-.14-2.44,2.79-7.1,2.36-9.51-.31-1.75-2.8-5.17-4.55-5.45s-5.6,2.18-6.26,3.91c-1,2.64,2.41,8.22,2.44,11.05a4.92,4.92,0,0,1-.82,3.09c-.55.51-2.16.65-2.84,1-.4.2-1.1.62-1.78,1a.69.69,0,0,0,.37,1.28h10.74a1.88,1.88,0,0,0,1.86-1.67A4.06,4.06,0,0,0,208.18,176.8Z" style="fill:#407BFF"></path><path d="M195.18,177.85c.48-.3.95-.59,1.34-.81a3.33,3.33,0,0,1,.4,1,3.4,3.4,0,0,1-.28,1.13h-1.09A.69.69,0,0,1,195.18,177.85Z" style="fill:#fff;opacity:0.5"></path></g></svg>